<svg width="238" height="65" viewBox="0 0 238 65" fill="none" xmlns="http://www.w3.org/2000/svg">
<path d="M28.2031 28.979C28.6066 28.4863 28.6515 28.0832 28.8308 27.6801C32.1937 18.9461 35.5117 10.1673 38.8745 1.43329C38.9194 1.25413 39.009 1.11976 39.0539 0.940601C39.2781 0.313545 39.6816 0.0895996 40.3542 0.0895996C42.8651 0.134389 45.376 0.0895996 47.887 0.0895996C48.8734 0.0895996 49.9047 0.0895996 50.8911 0.0895996C51.7879 0.0895996 52.1466 0.313543 52.1466 0.895809C52.1914 1.47807 51.7879 1.74681 50.8463 1.7916C50.2634 1.7916 49.6805 1.7916 49.1424 1.7916C48.7837 1.7916 48.6044 1.92597 48.6492 2.28429C48.6492 2.50824 48.6492 2.73219 48.6492 2.91135C48.6492 14.7358 48.6492 26.5155 48.6492 38.34C48.6492 38.4296 48.6492 38.4744 48.6492 38.5639C48.6492 39.6389 48.5595 39.5941 49.6356 39.5941C50.3082 39.5941 50.9808 39.5941 51.6982 39.5941C52.4604 39.5941 52.8191 39.9076 52.8191 40.4451C52.8191 40.9826 52.4604 41.2513 51.6533 41.2513C48.8734 41.2513 46.1383 41.2513 43.3583 41.2513C41.4751 41.2513 39.5471 41.2513 37.6639 41.2513C37.3949 41.2513 37.1707 41.2513 36.9017 41.2513C36.3188 41.1617 35.9601 40.8034 36.0497 40.3555C36.0946 39.8628 36.4533 39.5941 36.9465 39.5941C37.5742 39.5941 38.2468 39.5941 38.8745 39.5941C39.2781 39.5941 39.4574 39.4597 39.4574 39.0566C39.4574 38.8775 39.4574 38.6983 39.4574 38.5192C39.4574 27.8592 39.4574 17.1993 39.4574 6.53931C39.4574 6.27058 39.4574 6.04663 39.4126 5.77789C39.009 5.86747 39.0539 6.181 38.9642 6.44974C34.6149 17.9159 30.2656 29.3821 25.8715 40.8482C25.737 41.1618 25.6473 41.4753 25.5128 41.744C25.1541 42.3711 24.5712 42.4159 24.1228 41.8336C23.8986 41.5201 23.7641 41.1617 23.5848 40.8034C18.2491 29.4268 12.9133 18.0503 7.57762 6.67368C7.44311 6.36016 7.35343 6.00184 7.03956 5.77789C6.7257 5.91226 6.86021 6.18099 6.86021 6.40494C6.86021 17.1993 6.86021 27.9488 6.86021 38.7431C6.86021 39.6389 6.86021 39.6837 7.80181 39.6837C8.9676 39.6837 10.0885 39.6837 11.2543 39.6837C11.4785 39.6837 11.7027 39.6389 11.8821 39.7285C12.3304 39.8181 12.5546 40.1316 12.5546 40.5795C12.5546 40.9826 12.2856 41.2513 11.8821 41.3409C11.6579 41.3857 11.4337 41.3857 11.2543 41.3857C7.93632 41.3857 4.66315 41.3857 1.34514 41.3857C1.16579 41.3857 0.986437 41.3857 0.807085 41.3857C0.269029 41.2961 0 40.9826 0 40.5347C0 40.0868 0.31387 39.7733 0.851926 39.7285C1.03128 39.7285 1.21063 39.7285 1.38998 39.7285C2.2419 39.7285 3.09382 39.7285 3.99058 39.7285C5.02186 39.7285 5.02185 39.8628 5.02185 38.6983C5.02185 26.7843 5.02185 14.8702 5.02185 2.95614C5.02185 2.86656 5.02185 2.82177 5.02185 2.73219C5.02185 1.92597 5.02185 1.92597 4.16993 1.92597C3.5422 1.92597 2.95931 1.92597 2.33157 1.92597C2.10738 1.92597 1.8832 1.92597 1.70384 1.92597C1.21063 1.83639 0.896764 1.61244 0.851926 1.11976C0.807088 0.67186 1.21063 0.313545 1.79352 0.268756C2.01771 0.268756 2.2419 0.268756 2.42125 0.268756C6.05313 0.268756 9.64017 0.313543 13.272 0.223963C14.3033 0.223963 14.8414 0.537493 15.2449 1.47808C19.0561 9.67459 22.8674 17.8263 26.7234 25.978C27.1718 26.7843 27.665 27.8144 28.2031 28.979ZM46.8557 20.6481C46.8557 18.4086 46.8557 16.2139 46.8557 13.9744C46.8557 10.2569 46.8557 6.53931 46.8557 2.82177C46.8557 1.70202 47.035 1.70202 45.7796 1.70202C44.6586 1.70202 43.5377 1.70202 42.4616 1.70202C41.0716 1.70202 41.2509 1.61244 41.2509 2.91135C41.2509 14.7358 41.2509 26.5155 41.2509 38.34C41.2509 38.5192 41.2509 38.6983 41.2509 38.8775C41.2061 39.415 41.4751 39.5493 41.9683 39.5493C43.3135 39.5045 44.6138 39.5493 45.9589 39.5493C46.9005 39.5493 46.9005 39.5493 46.9005 38.6087C46.9005 38.4296 46.9005 38.2504 46.9005 38.0713C46.8557 32.2486 46.8557 26.4707 46.8557 20.6481ZM7.30859 1.70202C8.78824 4.88209 10.2231 7.92779 11.6579 10.9735C13.0927 14.064 14.5275 17.1097 16.0072 20.2002C17.442 23.2459 18.8768 26.2916 20.3116 29.3373C21.7464 32.383 23.1364 35.4287 24.7057 38.6535C25.5576 36.3693 26.3199 34.3089 27.127 32.2934C27.3512 31.6663 27.3512 31.1737 27.0373 30.5914C22.8225 21.6334 18.6078 12.6307 14.393 3.67278C14.0791 3.04572 13.9895 2.19471 13.4066 1.8364C12.8237 1.47808 12.0166 1.74682 11.2992 1.74682C9.99887 1.70203 8.74341 1.70202 7.30859 1.70202Z" fill="#B62020"/>
<path d="M88.0618 4.97166C87.7479 5.37477 87.8376 5.73308 87.8376 6.00182C87.8376 16.7961 87.8376 27.6352 87.8376 38.4296C87.8376 38.5639 87.8376 38.6983 87.8376 38.8775C87.7928 39.4149 88.017 39.5493 88.5102 39.5493C89.9002 39.5493 91.2901 39.5493 92.725 39.5493C92.994 39.5493 93.2182 39.5493 93.4872 39.5941C93.8459 39.7285 94.0701 39.9524 94.0701 40.4003C94.0701 40.8034 93.8011 41.0721 93.4424 41.1617C93.2182 41.2065 92.9491 41.2065 92.6801 41.2065C89.4069 41.2065 86.1786 41.2065 82.9054 41.2065C82.6813 41.2065 82.4571 41.2065 82.2777 41.2065C81.8293 41.1169 81.5603 40.893 81.5603 40.4003C81.5603 39.9524 81.8293 39.5941 82.3674 39.5493C83.0848 39.5045 83.8022 39.5493 84.5196 39.5493C85.0128 39.5493 85.506 39.6389 85.9993 39.5045C86.1338 39.191 86.0889 38.8774 86.0889 38.5191C86.0889 26.6051 86.0889 14.691 86.0889 2.77697C86.0889 2.68739 86.0889 2.6426 86.0889 2.55302C86.0889 1.70201 86.0889 1.7468 85.2818 1.7468C84.4748 1.7468 83.7125 1.7468 82.9054 1.7468C82.5019 1.7468 82.2329 1.52285 82.1432 1.11974C82.0535 0.761425 82.1432 0.492687 82.4122 0.223948C82.6364 0 82.9503 0.0447924 83.2193 0.0447924C84.2506 0.0447924 85.2818 0.0447924 86.358 0.0447924C89.1379 0.0447924 91.9627 0.0895794 94.7427 0C95.5946 0 96.0878 0.313533 96.581 0.985379C101.468 8.10694 106.401 15.1837 111.288 22.2605C111.871 23.1115 112.454 23.9625 113.081 24.8135C113.216 25.0374 113.306 25.351 113.619 25.3958C113.888 25.2166 113.799 24.9479 113.799 24.7239C113.799 17.3336 113.799 9.9881 113.799 2.5978C113.799 1.70201 113.888 1.70201 112.857 1.70201C112.05 1.70201 111.198 1.70201 110.391 1.70201C110.122 1.70201 109.853 1.7468 109.629 1.65722C109.27 1.52285 109.001 1.25412 109.046 0.851008C109.091 0.403111 109.315 0.0895821 109.763 0.0447924C109.988 2.73308e-06 110.212 0.0447924 110.391 0.0447924C113.306 0.0447924 116.175 0.0447924 119.09 0.0447924C119.224 0.0447924 119.359 0.0447924 119.538 0.0447924C120.121 0.0895821 120.48 0.447897 120.39 0.895794C120.345 1.38848 120.031 1.70201 119.538 1.70201C118.507 1.70201 117.476 1.70201 116.399 1.70201C115.413 1.70201 115.547 1.7468 115.547 2.5978C115.547 8.15172 115.547 13.7056 115.547 19.2596C115.547 26.202 115.547 33.1444 115.547 40.0868C115.547 40.5795 115.592 41.0722 115.368 41.5648C115.099 42.1471 114.74 42.2815 114.158 42.0127C113.575 41.744 113.261 41.2065 112.902 40.7138C110.929 37.8921 109.001 35.0703 107.028 32.2486C100.975 23.5146 94.922 14.7806 88.824 6.04661C88.5999 5.73308 88.3757 5.41956 88.0618 4.97166ZM88.1067 1.7468C89.0931 3.62797 113.037 37.8921 113.754 38.4296C113.754 37.9817 113.754 37.6681 113.754 37.3098C113.754 34.8912 113.709 32.5173 113.754 30.0987C113.754 29.3373 113.575 28.755 113.126 28.1279C108.867 22.0365 104.652 15.9451 100.437 9.85373C98.7333 7.3903 97.0294 4.92687 95.2807 2.41865C95.0565 2.06033 94.8772 1.70201 94.3391 1.70201C92.3214 1.7468 90.3037 1.7468 88.1067 1.7468Z" fill="#0E0D0D"/>
<path d="M127.654 39.5492C128.73 39.5492 129.761 39.5492 130.792 39.5492C131.061 39.5492 131.286 39.5492 131.555 39.594C131.958 39.6836 132.182 39.9971 132.182 40.3554C132.182 40.7585 131.958 41.0273 131.599 41.1616C131.375 41.2512 131.106 41.2064 130.837 41.2064C128.192 41.2064 125.546 41.2064 122.901 41.2064C122.721 41.2064 122.542 41.2064 122.363 41.2064C121.87 41.1168 121.556 40.8033 121.556 40.3554C121.556 39.9075 121.87 39.594 122.408 39.5492C123.17 39.5044 123.932 39.5492 124.649 39.5492C125.591 39.5492 125.591 39.5492 125.905 38.6086C129.357 27.9935 132.765 17.3783 136.218 6.80794C136.666 5.46425 137.114 4.07577 137.518 2.73208C137.608 2.41855 137.787 2.14981 137.652 1.7467C136.666 1.7467 135.68 1.7467 134.693 1.7467C134.11 1.7467 133.752 1.43318 133.707 0.985281C133.662 0.537384 133.976 0.134276 134.424 0.0894866C134.648 0.0446969 134.917 0.0894866 135.186 0.0894866C139.042 0.0894866 142.943 0.0894866 146.799 0.0894866C148.1 0.0894866 148.189 0.134276 148.593 1.43318C150.835 8.68911 153.077 15.9898 155.319 23.2458C156.888 28.3518 158.457 33.5026 160.071 38.6086C160.385 39.5492 160.385 39.5492 161.372 39.594C161.82 39.594 162.224 39.5492 162.672 39.594C163.21 39.6388 163.614 39.9971 163.524 40.4898C163.479 40.9825 163.165 41.2512 162.672 41.2512C162.448 41.2512 162.224 41.2512 162.044 41.2512C157.516 41.2512 152.942 41.2512 148.414 41.2512C148.189 41.2512 147.965 41.2512 147.786 41.2512C147.293 41.2064 146.979 40.9825 146.934 40.4898C146.889 39.9971 147.203 39.6388 147.786 39.594C148.503 39.5492 149.221 39.594 149.938 39.594C150.162 39.594 150.386 39.594 150.566 39.594C150.79 39.594 150.88 39.4148 150.835 39.2357C150.79 39.0565 150.745 38.8774 150.655 38.743C149.804 35.9212 148.907 33.1443 148.055 30.3225C147.831 29.5163 147.786 29.5163 146.934 29.5163C141.822 29.5163 136.666 29.5163 131.555 29.5163C131.151 29.5163 130.747 29.4715 130.568 30.0538C129.626 33.1443 128.64 36.19 127.654 39.2357C127.609 39.2357 127.654 39.3253 127.654 39.5492ZM141.284 1.7467C141.15 2.23939 141.374 2.55292 141.464 2.86645C143.706 10.1224 145.903 17.3335 148.145 24.5894C149.579 29.2924 151.059 33.9953 152.494 38.743C152.763 39.5492 152.763 39.5492 153.57 39.5492C154.825 39.5492 156.081 39.5492 157.336 39.5492C157.695 39.5492 158.054 39.6388 158.323 39.4596C158.412 39.1013 158.233 38.8326 158.143 38.5638C154.467 26.6946 150.835 14.7805 147.158 2.91123C146.71 1.52275 146.979 1.7467 145.589 1.7467C144.199 1.70191 142.719 1.7467 141.284 1.7467ZM131.286 27.7247C136.666 27.7247 141.912 27.7247 147.248 27.7247C144.692 19.4386 142.136 11.2421 139.581 3.00082C139.491 3.00082 139.446 3.00082 139.356 3.00082C136.711 11.1973 134.021 19.3938 131.286 27.7247Z" fill="#0E0D0D"/>
<path d="M179.172 20.5138C179.172 20.9617 179.172 21.2304 179.172 21.4992C179.172 27.1427 179.172 32.831 179.172 38.4745C179.172 38.6984 179.172 38.9224 179.172 39.1015C179.172 39.4151 179.307 39.5494 179.621 39.5494C179.845 39.5494 180.069 39.5494 180.249 39.5494C184.105 39.5494 187.916 39.5494 191.772 39.5494C191.906 39.5494 192.041 39.5494 192.22 39.5494C192.803 39.5942 192.983 39.3703 192.938 38.788C192.893 37.0412 192.938 35.2944 192.938 33.5476C192.938 33.2789 192.938 33.0549 192.938 32.7862C192.983 32.2039 193.386 31.8008 193.879 31.8456C194.328 31.8904 194.686 32.2487 194.686 32.7862C194.731 33.458 194.686 34.1299 194.686 34.8465C194.686 36.5485 194.686 38.2057 194.686 39.9077C194.686 40.9827 194.462 41.2066 193.341 41.2066C188.947 41.2066 184.508 41.2066 180.114 41.2066C176.079 41.2066 171.998 41.2066 167.963 41.2066C167.649 41.2066 167.29 41.2066 166.977 41.1619C166.528 41.0723 166.304 40.7588 166.304 40.3109C166.304 39.863 166.573 39.5494 167.021 39.5494C167.918 39.5494 168.815 39.5494 169.667 39.5494C169.936 39.2807 169.846 38.9672 169.846 38.6984C169.846 26.65 169.846 14.6464 169.846 2.59793C169.846 1.70214 169.846 1.70214 168.994 1.70214C168.501 1.70214 168.008 1.70214 167.47 1.70214C166.842 1.65735 166.573 1.38861 166.573 0.895923C166.573 0.403237 166.887 0.0897116 167.47 0.0449219C167.694 0.0449219 167.918 0.0449219 168.097 0.0449219C176.303 0.0449219 184.508 0.0449219 192.714 0.0449219C192.893 0.0449219 193.072 0.0449219 193.252 0.0449219C193.969 0.0897116 194.193 0.313659 194.238 1.03029C194.283 1.97088 194.238 2.91146 194.238 3.80725C194.238 4.97179 194.238 6.09153 194.238 7.25607C194.238 8.01749 193.924 8.33101 193.341 8.33101C192.758 8.33101 192.445 7.9727 192.445 7.25607C192.445 5.64364 192.445 4.03121 192.445 2.41878C192.445 1.92609 192.31 1.74693 191.772 1.74693C187.737 1.74693 183.746 1.74693 179.711 1.74693C179.038 1.74693 178.993 1.74693 178.993 2.55315C178.993 6.80817 178.993 11.0632 178.993 15.3182C178.993 16.3036 178.993 17.2442 178.993 18.2295C178.993 18.6774 179.128 18.8566 179.576 18.8566C183.029 18.8566 186.436 18.8566 189.889 18.8566C190.472 18.8566 190.651 18.6326 190.606 18.0952C190.561 17.3337 190.561 16.5723 190.606 15.8557C190.651 15.139 190.965 14.7807 191.548 14.8255C192.086 14.8703 192.4 15.1838 192.4 15.8557C192.4 18.3639 192.4 20.8721 192.4 23.3804C192.4 24.097 192.131 24.3657 191.548 24.3209C190.965 24.3209 190.651 24.0522 190.651 23.3804C190.606 22.6637 190.651 21.9471 190.651 21.2304C190.651 20.7378 190.516 20.5138 189.978 20.5138C186.526 20.5138 182.894 20.5138 179.172 20.5138ZM177.379 20.6034C177.379 14.6464 177.379 8.64454 177.379 2.68751C177.379 1.74693 177.379 1.74693 176.437 1.74693C175.137 1.74693 173.837 1.74693 172.581 1.74693C171.774 1.74693 171.774 1.74693 171.729 2.55315C171.729 2.68752 171.729 2.82189 171.729 3.00104C171.729 14.7807 171.729 26.5604 171.729 38.2953C171.729 38.4745 171.729 38.6536 171.729 38.8328C171.685 39.3703 171.864 39.5942 172.447 39.5942C173.792 39.5494 175.182 39.5942 176.527 39.5942C177.334 39.5942 177.334 39.5942 177.379 38.788C177.379 38.6088 177.379 38.4297 177.379 38.2505C177.379 32.3383 177.379 26.4708 177.379 20.6034Z" fill="#0E0D0D"/>
<path d="M210.38 1.88117C214.056 10.66 217.688 19.3939 221.365 28.1279C221.948 27.5009 231.05 4.47897 231.857 1.70201C230.826 1.70201 229.839 1.70201 228.853 1.70201C228.539 1.70201 228.18 1.7468 227.867 1.65722C227.418 1.56764 227.104 1.16454 227.104 0.76143C227.104 0.313533 227.418 0.0447897 228.001 0C229.839 0 231.678 0 233.471 0C234.637 0 235.758 0 236.924 0C237.596 0 238 0.313533 238 0.76143C238 1.25412 237.552 1.65722 236.879 1.65722C236.117 1.65722 235.355 1.70201 234.637 1.65722C233.965 1.61243 233.696 1.88117 233.471 2.46343C231.723 7.03198 229.929 11.6005 228.136 16.1691C224.907 24.4552 221.679 32.7413 218.451 41.0722C218.406 41.2513 218.316 41.3857 218.271 41.5648C218.137 41.9232 217.868 42.1471 217.464 42.1471C217.061 42.1471 216.792 41.9679 216.612 41.6096C216.478 41.3857 216.388 41.1617 216.298 40.9378C211.052 28.3519 205.806 15.8108 200.605 3.22486C200.56 3.13528 200.515 3.0457 200.471 2.91133C199.843 1.47806 200.157 1.7468 198.722 1.7468C198.318 1.7468 197.915 1.79159 197.556 1.7468C197.063 1.70201 196.749 1.34369 196.794 0.895794C196.794 0.403107 197.108 0.179164 197.556 0.0895848C197.78 0.0447952 198.049 0.0447924 198.318 0.0447924C202.892 0.0447924 207.51 0.0447924 212.084 0.0447924C212.353 0.0447924 212.577 2.73308e-06 212.846 0.0447924C213.294 0.134372 213.563 0.403111 213.608 0.851008C213.653 1.25412 213.294 1.65722 212.846 1.70201C212.039 1.83638 211.277 1.70201 210.38 1.88117ZM217.33 38.6087C217.733 38.34 217.733 38.0265 217.823 37.7577C218.63 35.7422 219.347 33.7714 220.199 31.7559C220.468 31.1288 220.423 30.6362 220.154 30.0091C218.226 25.4853 216.343 20.9168 214.415 16.3482C212.487 11.7349 210.559 7.12156 208.631 2.50823C208.407 1.92596 208.138 1.70201 207.465 1.70201C205.941 1.7468 204.371 1.70201 202.847 1.70201C202.623 1.70201 202.354 1.61243 202.085 1.92596C207.196 14.1535 212.263 26.3811 217.33 38.6087Z" fill="#0E0D0D"/>
<path d="M72.5479 39.5494C73.5792 39.5494 74.6105 39.5494 75.6417 39.5494C75.9108 39.5494 76.2246 39.5046 76.4488 39.7286C76.673 39.9525 76.8075 40.1765 76.7627 40.49C76.7179 40.8483 76.4937 41.1171 76.135 41.1619C75.8659 41.2066 75.5521 41.2066 75.283 41.2066C70.3957 41.2066 65.4635 41.2066 60.5762 41.2066C60.3072 41.2066 60.083 41.2066 59.8139 41.2066C59.3656 41.1619 59.0965 40.8931 59.0965 40.4452C59.0517 39.9973 59.3656 39.639 59.8588 39.5942C60.621 39.5494 61.3833 39.5942 62.1007 39.5942C63.0423 39.5942 63.0423 39.5942 63.0423 38.6536C63.0423 26.6948 63.0423 14.7359 63.0423 2.7771C63.0423 2.46357 63.0871 2.15003 62.9078 1.79172C62.2352 1.65735 61.5178 1.74693 60.8004 1.74693C60.5313 1.74693 60.2175 1.79172 59.9485 1.65735C59.5897 1.47819 59.3656 1.25424 59.4104 0.806345C59.4552 0.403238 59.6794 0.134504 60.083 0.0897143C60.3072 0.0449246 60.5762 0.0449219 60.8452 0.0449219C65.5084 0.0449219 70.1715 0.0449219 74.8347 0.0449219C74.9692 0.0449219 75.1037 0.0449219 75.283 0.0449219C75.8659 0.0897116 76.1798 0.403237 76.1798 0.895923C76.1798 1.38861 75.8659 1.70214 75.283 1.74693C74.5656 1.79172 73.8482 1.79172 73.1308 1.74693C72.6376 1.74693 72.3686 1.83651 72.4582 2.37398C72.5031 2.59793 72.4582 2.82189 72.4582 3.00104C72.4582 14.7359 72.4582 26.4708 72.4582 38.2057C72.4134 38.6536 72.3686 39.1015 72.5479 39.5494ZM70.6199 20.5586C70.6199 19.8868 70.6199 19.2149 70.6199 18.4983C70.6199 13.2579 70.6199 8.06228 70.6199 2.82188C70.6199 1.61256 70.7992 1.70214 69.5438 1.70214C68.378 1.70214 67.1674 1.70214 66.0016 1.70214C64.7013 1.70214 64.8806 1.56777 64.8806 2.86667C64.8806 14.6912 64.8806 26.4708 64.8806 38.2953C64.8806 38.5193 64.8806 38.7432 64.8806 38.9224C64.8358 39.4151 65.06 39.5494 65.5084 39.5046C66.8535 39.5046 68.1538 39.5046 69.4989 39.5046C70.7096 39.5046 70.6199 39.639 70.6199 38.3401C70.6199 32.4279 70.6199 26.5156 70.6199 20.5586Z" fill="#0E0D0D"/>
<path d="M56.496 64.9451C53.8057 65.0346 52.057 62.7952 51.6534 60.7796C51.0705 58.0922 52.4157 55.4496 54.7473 54.5091C58.0204 53.1654 61.5626 55.0913 62.1455 58.4953C62.3249 59.4807 62.28 59.5255 61.2936 59.5255C58.7827 59.5255 56.2718 59.5255 53.7608 59.5255C52.8192 59.5255 52.7744 59.5703 52.9986 60.5109C53.4021 62.1233 54.2989 63.3326 56.0027 63.6462C57.7066 64.0045 59.0965 63.4222 60.1727 62.0337C60.2623 61.8994 60.352 61.8098 60.4417 61.6754C60.8004 61.1827 61.3385 61.1827 61.742 61.6306C61.9213 61.8546 61.7868 62.0337 61.6523 62.2129C60.5314 64.0493 59.0069 64.9451 56.496 64.9451ZM60.621 58.2714C60.3072 56.1215 58.0653 55.0913 56.4063 55.2705C54.6576 55.4496 53.3124 56.7038 53.1779 58.2714C55.644 58.2714 58.1101 58.2714 60.621 58.2714Z" fill="#0E0D0D"/>
<path d="M152.628 59.5255C152.628 61.0484 152.628 62.5264 152.628 64.0493C152.628 64.3628 152.718 64.7211 152.225 64.7659C151.552 64.8107 151.373 64.7211 151.238 64.1837C151.059 63.5118 150.925 63.467 150.297 63.9149C148.817 65.0347 147.158 65.2586 145.41 64.7211C142.54 63.8253 141.06 60.5109 142.092 57.6444C143.123 54.8226 146.351 53.3893 149.131 54.5091C149.579 54.6882 149.983 55.0018 150.387 55.3153C150.566 55.4497 150.7 55.7632 151.014 55.6288C151.328 55.4945 151.283 55.2257 151.238 54.957C151.194 54.4643 151.418 54.3299 151.866 54.3299C152.628 54.3299 152.628 54.3299 152.628 55.0913C152.628 56.5694 152.628 58.0475 152.628 59.5255ZM147.203 55.3153C144.961 55.3153 143.078 57.2413 143.123 59.5703C143.123 61.8546 145.006 63.7805 147.248 63.7805C149.535 63.7805 151.328 61.8994 151.328 59.5255C151.328 57.1517 149.49 55.2705 147.203 55.3153Z" fill="#0E0D0D"/>
<path d="M103.71 63.3326C100.572 65.4825 97.8812 65.4825 95.8635 63.2878C94.07 61.3618 93.8458 58.3161 95.46 56.3006C96.0877 55.4496 96.8948 54.8226 97.9261 54.4642C98.9573 54.1059 100.033 54.0611 101.11 54.2851C102.141 54.509 102.948 55.1361 103.665 55.8527C104.024 55.4944 103.934 55.1809 103.89 54.9121C103.845 54.2851 104.248 54.3299 104.652 54.3299C105.055 54.3299 105.279 54.3747 105.279 54.9121C105.279 58.0026 105.279 61.0483 105.279 64.1388C105.279 64.6763 105.01 64.7211 104.607 64.6763C104.248 64.6763 103.845 64.7659 103.89 64.1836C103.89 63.9596 103.979 63.6461 103.71 63.3326ZM103.934 59.5255C103.934 57.1516 102.141 55.2704 99.8541 55.3152C97.6122 55.3152 95.729 57.1964 95.729 59.5255C95.729 61.8097 97.6122 63.7805 99.8541 63.7805C102.186 63.7805 103.979 61.8993 103.934 59.5255Z" fill="#0E0D0D"/>
<path d="M162.179 64.6316C161.955 64.6764 161.865 64.6764 161.731 64.6764C160.655 64.6764 160.789 64.6764 160.789 63.7806C160.789 60.9588 160.789 58.1371 160.789 55.3153C160.789 54.3299 160.789 54.3299 161.776 54.3747C161.865 54.3747 162 54.4195 162.134 54.4643C162.134 54.7331 162.179 54.957 162.179 55.2257C162.179 55.4497 162.179 55.6289 162.179 55.8528C162.583 55.9872 162.672 55.6289 162.852 55.4497C163.838 54.5539 164.959 54.106 166.259 54.1956C167.918 54.2852 169.263 55.3601 169.667 56.9725C169.801 57.5548 169.891 58.1819 169.891 58.7641C169.936 60.5557 169.891 62.3473 169.936 64.1389C169.936 64.6764 169.757 64.8107 169.263 64.8107C168.815 64.8107 168.546 64.766 168.546 64.1837C168.591 62.7056 168.591 61.2723 168.546 59.7943C168.546 59.1224 168.546 58.4506 168.456 57.7788C168.232 55.9872 166.842 55.0018 165.094 55.4945C163.659 55.8976 162.762 56.8382 162.403 58.2714C162.224 58.9881 162.224 59.7495 162.224 60.5109C162.179 61.8098 162.179 63.1983 162.179 64.6316Z" fill="#0E0D0D"/>
<path d="M122.632 58.0923C122.587 59.2121 122.722 60.4662 122.408 61.7651C122.049 63.3775 121.063 64.4077 119.448 64.8108C118.507 65.0347 117.52 65.0347 116.579 64.766C115.144 64.3629 114.158 63.4223 113.799 61.9442C113.619 61.362 113.575 60.7349 113.575 60.1526C113.575 58.4506 113.575 56.7038 113.53 55.0018C113.53 54.4196 113.799 54.3748 114.247 54.3748C114.74 54.3748 114.965 54.4643 114.92 55.0466C114.875 56.6142 114.92 58.1819 114.92 59.7495C114.92 60.1974 114.965 60.6901 115.009 61.138C115.144 63.0192 116.893 63.8702 118.193 63.7806C119.852 63.691 121.018 62.7057 121.152 61.0036C121.332 58.9881 121.197 57.0174 121.197 55.0018C121.197 54.5539 121.332 54.3748 121.78 54.3748C122.542 54.3748 122.542 54.3748 122.542 55.1362C122.632 56.032 122.632 56.9726 122.632 58.0923Z" fill="#0E0D0D"/>
<path d="M189.844 62.6608C190.203 62.9296 190.517 63.1983 190.83 63.3775C191.413 63.7358 192.086 63.915 192.758 63.6014C193.341 63.3327 193.79 62.9744 193.924 62.3025C194.059 61.5859 193.79 61.0484 193.207 60.6453C192.803 60.3766 192.355 60.1078 191.907 59.8839C191.413 59.6152 190.965 59.3912 190.561 59.0329C189.485 58.1371 189.171 56.7038 189.799 55.5841C190.427 54.4195 191.862 53.8821 193.207 54.2852C193.924 54.5091 194.417 54.8227 195.135 55.5841C195.09 55.808 194.911 55.9424 194.776 56.0768C194.507 56.3903 194.283 56.4351 193.969 56.1216C193.655 55.808 193.296 55.5841 192.893 55.4497C192.131 55.181 191.324 55.4049 190.92 56.0768C190.517 56.7038 190.696 57.3757 191.324 57.9579C191.727 58.3162 192.22 58.5402 192.669 58.8089C193.117 59.0777 193.61 59.3464 194.014 59.6599C195 60.3766 195.359 61.362 195.09 62.5713C194.821 63.8254 193.969 64.5868 192.758 64.8555C191.548 65.1243 190.427 64.8108 189.44 64.0493C188.902 63.6014 188.902 63.6014 189.351 63.064C189.62 62.9296 189.709 62.84 189.844 62.6608Z" fill="#0E0D0D"/>
<path d="M75.3279 55.5841C75.1486 55.7632 75.0589 55.8976 74.9244 56.032C74.6553 56.3903 74.3863 56.4351 74.0725 56.0768C73.7586 55.7632 73.3999 55.5393 72.9963 55.4049C72.2341 55.1362 71.427 55.4049 71.0235 56.0768C70.6648 56.659 70.7993 57.3309 71.427 57.9132C71.8306 58.2715 72.2789 58.5402 72.7722 58.809C73.2654 59.0777 73.7586 59.3464 74.207 59.7047C75.2382 60.511 75.5521 61.5411 75.2382 62.7504C74.9244 63.9598 74.0276 64.6764 72.817 64.9003C71.696 65.0795 70.6199 64.8108 69.6783 64.0941C69.0954 63.6462 69.0954 63.6014 69.5887 63.0192C69.6783 62.9296 69.768 62.7952 69.9025 62.6161C70.2612 62.8848 70.5751 63.1535 70.8889 63.3327C71.6512 63.8254 72.4134 63.915 73.2205 63.4671C74.2518 62.84 74.3863 61.5859 73.4896 60.7797C73.086 60.4214 72.5928 60.1526 72.1444 59.9287C71.6512 59.66 71.1131 59.3912 70.7096 59.0329C69.6335 58.1371 69.3645 56.7038 69.9922 55.5393C70.6199 54.4196 72.0099 53.8821 73.3102 54.2852C74.0725 54.4643 74.7002 54.9122 75.3279 55.5841Z" fill="#0E0D0D"/>
<path d="M179.173 60.1078C179.173 58.8089 179.128 57.51 179.173 56.2559C179.173 55.6736 178.993 55.4944 178.41 55.5392C178.231 55.5392 178.052 55.5392 177.872 55.5392C177.424 55.584 177.334 55.3601 177.334 54.957C177.334 54.5986 177.379 54.3299 177.872 54.3299C178.276 54.3299 178.859 54.5538 179.083 54.1507C179.262 53.8372 179.173 53.2997 179.173 52.8966C179.173 52.2696 179.217 51.5977 179.173 50.9707C179.128 50.4332 179.352 50.2988 179.845 50.2988C180.338 50.2988 180.563 50.3884 180.563 50.9259C180.518 51.8665 180.563 52.807 180.563 53.7028C180.563 54.1507 180.742 54.3299 181.19 54.3299C181.459 54.2851 181.773 54.3299 182.042 54.3299C182.491 54.2851 182.67 54.4195 182.67 54.9122C182.67 55.4049 182.491 55.4944 182.042 55.4944C180.563 55.5392 180.563 55.5392 180.563 57.0621C180.563 59.3463 180.563 61.6306 180.563 63.9149C180.563 64.1388 180.652 64.4524 180.383 64.5867C180.069 64.7211 179.666 64.7211 179.352 64.5867C179.128 64.4972 179.173 64.2284 179.173 64.0045C179.173 62.7504 179.173 61.4515 179.173 60.1078Z" fill="#0E0D0D"/>
<path d="M85.5957 54.2403C86.1786 54.4194 86.6718 54.3299 87.165 54.3299C87.5685 54.3299 87.7479 54.4194 87.7479 54.8673C87.7479 55.3152 87.6582 55.4944 87.165 55.4944C86.6718 55.4944 86.0441 55.2704 85.7302 55.6288C85.4163 56.0319 85.6405 56.6589 85.6405 57.1964C85.6405 59.4359 85.6405 61.7202 85.6405 63.9597C85.6405 64.1836 85.7302 64.5419 85.4612 64.6315C85.1473 64.7659 84.7438 64.7659 84.4299 64.6315C84.1609 64.4971 84.2954 64.1836 84.2954 63.9597C84.2954 61.7202 84.2954 59.4359 84.2954 57.1964C84.2954 57.062 84.2954 56.9277 84.2954 56.7485C84.2954 55.584 84.2954 55.5392 83.1296 55.5392C82.5915 55.5392 82.457 55.36 82.457 54.8225C82.5019 54.4642 82.6364 54.3299 82.9951 54.3299C83.3986 54.3299 83.8918 54.509 84.1609 54.2403C84.5196 53.882 84.2954 53.3445 84.2954 52.8966C84.3402 52.2247 84.3402 51.5529 84.2954 50.8811C84.2505 50.3436 84.6093 50.3436 84.968 50.3436C85.3267 50.3436 85.6853 50.2988 85.6853 50.8811C85.5957 52.0008 85.5957 53.1205 85.5957 54.2403Z" fill="#0E0D0D"/>
<path d="M41.52 64.6763C41.2959 64.7211 41.2062 64.7211 41.0717 64.7211C39.9956 64.7211 40.1301 64.7659 40.1301 63.8253C40.1301 60.914 40.1301 58.0475 40.1301 55.1361C40.1301 54.9122 39.9956 54.5986 40.2646 54.4643C40.5784 54.3299 40.982 54.3747 41.3407 54.4643C41.4752 54.5091 41.4752 54.6882 41.4752 54.8226C41.4752 55.0465 41.3855 55.2705 41.6546 55.4049C43.8516 53.9716 44.0758 53.882 45.2864 54.5986C45.0174 55.0913 44.838 55.5392 44.031 55.4049C43.1342 55.2705 42.5065 55.9423 42.1029 56.7038C41.6546 57.5548 41.52 58.4953 41.52 59.3911C41.4752 60.7796 41.52 62.1681 41.4752 63.5566C41.52 63.8701 41.52 64.2284 41.52 64.6763Z" fill="#0E0D0D"/>
<path d="M131.734 54.4643C131.869 54.7778 131.689 55.1809 131.913 55.4944C133.617 54.0164 134.379 53.8372 135.59 54.5986C135.276 55.0465 135.187 55.5392 134.335 55.4049C133.483 55.2257 132.9 55.8975 132.451 56.5694C132.003 57.3308 131.869 58.1818 131.824 59.0328C131.779 60.5557 131.779 62.1233 131.779 63.6462C131.779 64.8107 131.779 64.8107 130.479 64.6763C130.254 64.4524 130.389 64.1388 130.389 63.8701C130.389 61.0931 130.389 58.3162 130.389 55.4944C130.389 54.2403 130.389 54.2403 131.734 54.4643Z" fill="#0E0D0D"/>
</svg>
