<?xml version="1.0" encoding="utf-8"?>
<!-- Generator: Adobe Illustrator 22.0.0, SVG Export Plug-In . SVG Version: 6.00 Build 0)  -->
<svg version="1.1" id="Layer_1" xmlns="http://www.w3.org/2000/svg" xmlns:xlink="http://www.w3.org/1999/xlink" x="0px" y="0px"
	 width="404.933px" height="397.455px" viewBox="0 0 404.933 397.455" enable-background="new 0 0 404.933 397.455"
	 xml:space="preserve">
<g>
	<path fill="#000" d="M194.088,72.641c-0.968,0.055-1.924,0.283-2.795,0.688c-0.678,0.307-1.315,0.711-1.854,1.216
		c-0.152,0.142-0.299,0.289-0.434,0.448c0.287-0.132,0.574-0.244,0.862-0.36c1.41-0.568,2.827-0.949,4.276-1.013
		c0.866-0.048,1.743-0.013,2.613,0.147c0.589,0.084,1.171,0.237,1.762,0.398c0.294,0.08,0.585,0.161,0.889,0.24
		c-0.186-0.154-0.38-0.301-0.58-0.44c-0.575-0.4-1.206-0.731-1.887-0.94C196.036,72.694,195.053,72.604,194.088,72.641z"/>
	<path fill="#000" d="M211.342,67.087c0.005,0.012,0.009,0.023,0.014,0.035c0.015,0.012,0.029,0.024,0.043,0.036L211.342,67.087z
		"/>
	<path fill="rgba(190,190,190,0)" d="M165.585,109.359c6.575-0.213,13.631,0.978,16.217-5.941c4.225,0.707,8.076,2.516,11.14,1.624
		c3.946-1.148,7.923-2.275,12.006-2.814c2.007-0.265,4.232-0.545,6.259-0.305c0.041-0.293,0.087-0.585,0.125-0.879
		c-0.011,0.295-0.033,0.589-0.048,0.884c0.009,0.001,0.018,0.001,0.027,0.002c0.504,0.064,0.941,0.242,1.356,0.466
		c0.974,0.526,1.823,1.305,3.115,1.459c1.223,0.146,2.458-0.028,3.677-0.201c1.479-0.21,2.958-0.42,4.437-0.63
		c0.4-0.057,0.815-0.101,1.171-0.232c-4.551-1.271-9.5-0.657-14.088-2.159c-4.36-1.426-8.015-5.105-6.357-10.08
		c0.691-3.046-1.764-4.517-4.481-2.512c-4.664,3.442-8.759,3.464-13.425,0.028c-2.658-1.958-4.247-0.891-4.859,2.465
		c-0.524,2.874-0.843,5.809-1.647,8.603c-1.304,4.532-4.303,7.205-9.233,7.41c-3.719,0.155-7.468,0.2-11.136,0.748
		c-2.429,0.363-4.737,1.528-7.1,2.334C157.246,109.953,161.41,109.494,165.585,109.359z"/>
	<path fill="rgba(214,214,214,0)" d="M118.533,256.943c-3.092,1.424-6.025,3.193-9.801,5.229c6.406,11.447,12.587,22.492,18.768,33.536
		c0.399-0.199,0.798-0.397,1.197-0.596c-2-11.744-4.029-23.484-5.976-35.237C122.298,257.319,121.291,255.673,118.533,256.943z"/>
	<path fill="rgba(190,190,190,0)" d="M234.554,315.622c-7.958,6.35-16.798,11.664-26.424,14.752c-4.789,1.568-9.744,2.674-14.776,3.036
		c-5.027,0.389-10.094,0.164-15.107-0.59c-10.01-1.67-19.621-5.562-28.619-10.603c8.358,6.034,17.942,10.639,28.226,12.779
		c5.146,1.047,10.433,1.339,15.693,1.091l3.935-0.37c1.303-0.187,2.596-0.442,3.895-0.661c1.308-0.183,2.566-0.588,3.848-0.885
		c0.637-0.164,1.279-0.314,1.913-0.491l1.875-0.614c4.991-1.663,9.797-3.855,14.302-6.531c4.482-2.711,8.732-5.783,12.65-9.22
		c3.939-3.412,7.585-7.14,10.941-11.095c3.317-3.986,6.445-8.138,9.018-12.623c-3.09,4.134-6.479,8.01-10.044,11.695
		C242.323,308.982,238.527,312.427,234.554,315.622z"/>
	<path fill="rgba(161,1,1,0)" d="M211.208,101.924c-0.38,2.72-0.865,5.42-1.488,8.086c-0.651,2.96-1.43,5.89-2.374,8.762
		c-1.892,5.729-4.259,11.335-7.612,16.313c-1.657,2.492-3.527,4.849-5.685,6.913c-2.15,2.073-4.583,3.828-7.193,5.278
		c-5.268,2.877-11.387,3.922-17.459,3.83l2.279,0.171l1.144,0.073c0.382,0.008,0.763-0.016,1.145-0.022l2.298-0.063l2.286-0.279
		c3.02-0.511,6.043-1.324,8.806-2.74c2.785-1.359,5.33-3.185,7.618-5.273c2.271-2.115,4.215-4.547,5.941-7.102
		c3.423-5.149,5.801-10.897,7.471-16.782c1.573-5.608,2.609-11.365,2.901-17.159c0.015-0.295,0.037-0.589,0.048-0.884
		C211.295,101.338,211.249,101.63,211.208,101.924z"/>
	<g>
		<g>
			<path fill="#ffffff" d="M198.982,73.865c0.324-0.173,0.716-0.195,1.028-0.388c0.051-0.031,0.101-0.069,0.125-0.124
				c0.071-0.16-0.116-0.309-0.274-0.384c-1.174-0.556-2.321-1.019-3.4-1.758c-0.39-0.267-0.729-0.397-1.035-0.397
				c-0.379,0-0.628,0.199-0.829,0.358c-0.129,0.102-0.24,0.191-0.342,0.192c-0.103-0.001-0.214-0.089-0.343-0.192
				c-0.201-0.16-0.45-0.358-0.829-0.358c-0.307,0-0.645,0.13-1.035,0.397c-1.362,0.934-2.726,1.828-4.123,2.736
				c0.491,0.233,0.991,0.462,1.516,0.597c0.539-0.504,1.176-0.908,1.854-1.216c0.87-0.404,1.827-0.632,2.795-0.688
				c0.965-0.038,1.949,0.053,2.854,0.383c0.681,0.209,1.312,0.54,1.887,0.94C198.881,73.932,198.929,73.893,198.982,73.865z"/>
			<path fill="#ffffff" d="M194.144,73.619c-1.449,0.065-2.866,0.445-4.276,1.013c0.366,0.049,0.753,0.058,1.082,0.228
				c0.309,0.161,0.567,0.438,0.904,0.597c0.749,0.352,1.565,0.577,2.397,0.577c1.009,0,1.991-0.326,2.866-0.815
				c0.509-0.285,0.938-0.71,1.404-1.055c-0.591-0.162-1.174-0.314-1.762-0.398C195.887,73.606,195.01,73.571,194.144,73.619z"/>
			<path fill="#ffffff" d="M193.712,63.317c-0.226,0-0.47,0.099-0.735,0.34c-0.645,0.586-1.192,1.346-1.77,1.999
				c-0.507,0.573-1.466,1.831-0.088,2.019c0.553,0.075,1.196-0.107,1.725,0.01c0.468,0.103,0.61,0.638,0.483,1.121
				c0.236-0.088,0.281-0.393,0.407-0.611c0.524-0.903,2.764,0.158,2.972-0.994c0.121-0.669-0.797-1.664-1.181-2.147
				C195.023,64.42,194.466,63.317,193.712,63.317z"/>
			<path fill="#ffffff" d="M174.095,60.265c0.193,0.733,0.629,3.824,1.562,3.81c0.968-0.014,1.368-2.136,1.546-2.838
				c1.189-4.692,8.763-7.966,15.293-8.882c-3.67-0.155-9.007-0.012-11.528,2.243c0,0,2.25-5.75,8.25-5.25c8-4.5,9.25-4.25,10.5-2.5
				c0,0,4.75,2.864,7,7.75c-3.549-4.947-15.5-4.461-15.5-4.461s-1.177,0.661,3.668,1.984c2.283-0.115,4.295,0.11,5.654,0.726
				c3.035,1.376,5.637,3.491,7.516,6.249c0.379,0.557,2.716,6.378,3.451,8.002c0.124,0.273,0.202,0.428,0.218,0.418
				c0.207-0.126,0.227-0.412,0.239-0.654c0.041-0.827,0.559-3.875,0.658-4.639c0.377-2.922,0.875-4.765,0.54-7.72
				c-0.324-2.862-1.008-5.028-2.64-7.917c-1.463-2.589-8.161-8.886-15.59-8.775c-5.28-0.333-10.966-0.149-15.388,3.871
				c-0.734,0.667-3.481,4.357-4.137,5.661c-0.328,0.653-0.658,1.309-0.913,1.994c-0.818,2.198-0.84,4.6-0.825,6.945
				C173.68,57.722,173.732,58.884,174.095,60.265z"/>
		</g>
		<path fill="#ffffff" d="M356.129,159.659c-11.366-21.752-16.883-45.216-20.261-69.305c-0.462-3.295-0.956-6.586-1.436-9.879
			c-0.546,0.08-1.093,0.16-1.639,0.24c0.291,25.132,3.454,49.903,10.724,74.862c-1.858-0.172-3.015-0.291-4.174-0.386
			c-9.724-0.798-19.452-0.859-28.895,1.828c-2.739,0.779-5.908,2.508-6.299,5.631c-0.349,2.788,2.228,8.884,4.153,10.891
			c7.248,7.558,19.962,8.58,30.267,7.103c6.592-0.945,9.643-0.925,14.817-6.344C356.542,170.997,357.691,162.648,356.129,159.659z"
			/>
		<path fill="#ffffff" d="M304.267,60.868c2.82-6.79,5.793-13.366,10.805-18.921c1.803-1.999,2.013-4.694-0.409-6.762
			c-5.744-4.905-17.446-1.001-18.723,6.429c-1.503,8.746-2.573,17.567-3.912,26.931C297.36,67.78,302.109,66.062,304.267,60.868z"/>
		<path fill="#ffffff" d="M309.393,151.105c8.894-5.759,19.28-41.721,13.983-51.782c-1.933,9.406-3.308,18.232-5.633,26.801
			C315.419,134.692,312.144,143.001,309.393,151.105z"/>
		<path fill="#ffffff" d="M250.51,90.816c0.947-0.054,1.761-0.919,2.639-1.208c1.631-0.537,3.262-1.074,4.893-1.611
			c2.088-0.687,4.176-1.375,6.263-2.062c0,0,8.843-2.911,8.844-2.912c0.044-0.014,0.087-0.029,0.131-0.043
			c3.978-1.31,7.957-2.62,11.935-3.929c7.628-2.511,15.256-5.022,22.884-7.534c7.289-2.4,14.578-4.799,21.867-7.199
			c2.042-0.672,4.12-1.233,6.165-1.897c1.652-0.536,5.403-1.067,3.252-3.365c-0.435-0.465-0.967-0.81-1.561-1.057
			c-2.244-0.934-5.367-0.47-7.438,0.212c0,0-8.614,2.836-8.614,2.836l-0.058,0.019l-51.968,17.109c0,0-1.774,0.433-4.535,1.289
			c-2.256,0.699-5.168,1.68-8.327,2.945c-2.432,0.974-4.682,2.498-6.236,4.632c-0.418,0.573-0.834,1.263-0.973,1.968
			C249.522,89.779,249.466,90.875,250.51,90.816z"/>
		<path fill="#ffffff" d="M246.059,190.797c6.807,7.098,18.747,8.058,28.424,6.671c6.191-0.888,9.055-0.869,13.915-5.957
			c2.803-2.935,3.916-10.103,2.787-13.246l0.057,0.01c-8.352-17.702-13.832-36.209-15.575-55.763
			c-0.175-1.961-0.571-3.901-0.865-5.852c-0.477,0.076-0.953,0.152-1.43,0.229c-0.506,19.339,2.221,38.342,7.069,57.464
			l-1.313-0.425c-1.745-0.162-2.831-0.273-3.92-0.362c-8.933-0.733-17.869-0.797-26.555,1.562
			c1.029-9.109,2.086-18.468,3.144-27.838c-0.646-0.104-1.293-0.207-1.939-0.311c-0.29,1.773-0.478,3.57-0.887,5.314
			c-2.144,9.142-3.897,18.41-6.687,27.354l0.103-0.038c-0.107,0.304-0.188,0.622-0.23,0.961
			C241.831,183.187,244.251,188.912,246.059,190.797z"/>
	</g>
	<path fill="rgba(190,190,190,0)" d="M202.763,209.905c-1.291,8.544-3.676,16.978-7.221,24.823c-0.668,1.386-1.283,2.785-2.023,4.125
		l-1.072,2.016l-1.154,1.961c-0.369,0.659-0.783,1.291-1.204,1.915c-0.419,0.625-0.819,1.258-1.245,1.871
		c-0.913,1.183-1.738,2.419-2.731,3.504c-1.86,2.274-3.984,4.244-6.221,5.904c-2.212,1.716-4.687,2.891-7.197,3.752l-6.137,1.851
		c-0.548,0.147-1.082,0.366-1.614,0.593l-1.599,0.668l-1.595,0.68c-0.534,0.218-1.033,0.55-1.549,0.823
		c-1.014,0.597-2.066,1.109-3.033,1.8c-0.961,0.705-1.915,1.419-2.856,2.145c-0.872,0.832-1.733,1.674-2.58,2.523
		c-0.786,0.915-1.508,1.891-2.24,2.842c-1.72,2.48-2.908,5.239-3.658,8.052c-0.457,1.712-0.753,3.443-0.905,5.145
		c-0.24,2.262-0.173,4.491-0.055,6.684c0.151,2.192,0.405,4.337,0.608,6.519c-0.06-2.166-0.169-4.308-0.177-6.479
		c0.025-2.169,0.099-4.361,0.471-6.547c0.092-0.601,0.207-1.203,0.336-1.803c0.805-3.751,2.335-7.448,4.766-10.533
		c0.747-0.851,1.475-1.721,2.258-2.53l2.552-2.204l2.797-1.832c0.94-0.587,1.973-1.004,2.953-1.5
		c0.502-0.224,0.977-0.503,1.499-0.676l1.551-0.54l1.546-0.528c0.512-0.18,1.026-0.352,1.562-0.457
		c2.126-0.5,4.204-0.933,6.317-1.456c2.981-0.814,5.951-2.111,8.524-4.003c2.607-1.839,5.003-4.055,7.018-6.551
		c1.08-1.209,1.951-2.544,2.903-3.848c0.443-0.668,0.852-1.352,1.278-2.033c0.428-0.68,0.844-1.367,1.207-2.075l1.129-2.116
		c0.356-0.713,0.68-1.438,1.017-2.16c0.696-1.439,1.245-2.922,1.836-4.398c3.094-8.323,4.923-16.996,5.656-25.7
		c0.633-7.886,0.398-15.836-0.989-23.651c-0.026,0.24-0.048,0.48-0.075,0.72C204.183,194.766,203.87,202.399,202.763,209.905z"/>
	<g>
		<path fill="rgba(190,190,190,0)" d="M225.084,124.039c0.05,1.442,0.167,2.9,0.361,4.356c0.088,0.731,0.208,1.458,0.336,2.187
			c0.069,0.363,0.133,0.729,0.214,1.092l0.12,0.547c0.048,0.194,0.071,0.329,0.164,0.621l0.102,0.2l0.057,0.133l0.112,0.271
			l0.215,0.55c0.141,0.368,0.269,0.742,0.394,1.114c0.247,0.746,0.462,1.497,0.643,2.245c0.364,1.496,0.6,2.982,0.661,4.419
			c0.074,1.878-0.179,3.659-0.95,5.339c-0.759,1.688-2.054,3.285-3.665,4.843c1.709-1.355,3.204-2.777,4.247-4.477
			c1.053-1.688,1.603-3.67,1.741-5.773c0.208-3.206-0.56-6.706-1.883-9.713c-0.147-0.667-0.292-1.327-0.434-1.976
			c-0.141-0.693-0.283-1.383-0.403-2.074c-0.259-1.379-0.479-2.752-0.673-4.11c-0.287-2.008-0.495-3.993-0.513-5.97
			c-0.001-1.975,0.153-3.963,1.064-6.015c-1.088,1.896-1.514,3.892-1.746,5.929C225.027,119.816,225.01,121.909,225.084,124.039z"/>
		<path fill="rgba(190,190,190,0)" d="M234.554,315.622c-7.958,6.35-16.798,11.664-26.424,14.752c-4.789,1.568-9.744,2.674-14.776,3.036
			c-5.027,0.389-10.094,0.164-15.107-0.59c-10.01-1.67-19.621-5.562-28.619-10.603c8.358,6.034,17.942,10.639,28.226,12.779
			c5.146,1.047,10.433,1.339,15.693,1.091l3.935-0.37c1.303-0.187,2.596-0.442,3.895-0.661c1.308-0.183,2.566-0.588,3.848-0.885
			c0.637-0.164,1.279-0.314,1.913-0.491l1.875-0.614c4.991-1.663,9.797-3.855,14.302-6.531c4.482-2.711,8.732-5.783,12.65-9.22
			c3.939-3.412,7.585-7.14,10.941-11.095c3.317-3.986,6.445-8.138,9.018-12.623c-3.09,4.134-6.479,8.01-10.044,11.695
			C242.323,308.982,238.527,312.427,234.554,315.622z"/>
		<path fill="rgba(190,190,190,0)" d="M165.585,109.359c6.575-0.213,13.631,0.978,16.217-5.941c4.225,0.707,8.076,2.516,11.14,1.624
			c3.946-1.148,7.923-2.275,12.006-2.814c2.007-0.265,4.232-0.545,6.259-0.305c-0.38,2.72-0.865,5.42-1.488,8.086
			c-0.651,2.96-1.43,5.89-2.374,8.762c-1.892,5.729-4.259,11.335-7.612,16.313c-1.657,2.492-3.527,4.849-5.685,6.913
			c-2.15,2.073-4.583,3.828-7.193,5.278c-5.268,2.877-11.387,3.922-17.459,3.83l2.279,0.171l1.144,0.073
			c0.382,0.008,0.763-0.016,1.145-0.022l2.298-0.063l2.286-0.279c3.02-0.511,6.043-1.324,8.806-2.74
			c2.785-1.359,5.33-3.185,7.618-5.273c2.271-2.115,4.215-4.547,5.941-7.102c3.423-5.149,5.801-10.897,7.471-16.782
			c1.573-5.608,2.609-11.365,2.901-17.159c0.009,0.001,0.018,0.001,0.027,0.002c0.504,0.064,0.941,0.242,1.356,0.466
			c0.974,0.526,1.823,1.305,3.115,1.459c1.223,0.146,2.458-0.028,3.677-0.201c1.479-0.21,2.958-0.42,4.437-0.63
			c0.4-0.057,0.815-0.101,1.171-0.232c-4.551-1.271-9.5-0.657-14.088-2.159c-4.36-1.426-8.015-5.105-6.357-10.08
			c0.691-3.046-1.764-4.517-4.481-2.512c-4.664,3.442-8.759,3.464-13.425,0.028c-2.658-1.958-4.247-0.891-4.859,2.465
			c-0.524,2.874-0.843,5.809-1.647,8.603c-1.304,4.532-4.303,7.205-9.233,7.41c-3.719,0.155-7.468,0.2-11.136,0.748
			c-2.429,0.363-4.737,1.528-7.1,2.334C157.246,109.953,161.41,109.494,165.585,109.359z"/>
		<path fill="rgba(190,190,190,0)" d="M118.533,256.943c-3.092,1.424-6.025,3.193-9.801,5.229c6.406,11.447,12.587,22.492,18.768,33.536
			c0.399-0.199,0.798-0.397,1.197-0.596c-2-11.744-4.029-23.484-5.976-35.237C122.298,257.319,121.291,255.673,118.533,256.943z"/>
		<path fill="#ffffff" d="M196.125,217.958c-1.08,2.76-2.386,5.447-3.803,8.09c-0.765,1.297-1.475,2.619-2.35,3.863
			c-0.424,0.628-0.834,1.264-1.271,1.885l-1.394,1.816c-0.451,0.614-0.958,1.191-1.485,1.755c-0.521,0.567-1.027,1.146-1.562,1.701
			c-1.154,1.042-2.213,2.173-3.501,3.083c-2.431,1.962-5.263,3.485-8.215,4.608l-2.261,0.733l-2.009,0.617l-1.972,0.593
			c-0.328,0.101-0.665,0.183-0.985,0.3l-0.944,0.38c-2.544,0.967-5.015,2.106-7.25,3.576l-1.674,1.113
			c-0.535,0.397-1.018,0.852-1.535,1.276c-1.079,0.81-1.897,1.858-2.843,2.813c-1.634,2.012-3.064,4.244-4.084,6.72
			c-1.026,5.083-1.564,10.274-1.359,15.629c0.011,0.293,0.071,1.407,0.204,3.244c0.751-2.813,1.939-5.572,3.658-8.052
			c0.732-0.951,1.454-1.927,2.24-2.842c0.846-0.849,1.708-1.691,2.58-2.523c0.941-0.725,1.896-1.439,2.856-2.145
			c0.967-0.691,2.019-1.204,3.033-1.8c0.516-0.273,1.015-0.604,1.549-0.823l1.595-0.68l1.599-0.668
			c0.532-0.227,1.066-0.445,1.614-0.593l6.137-1.851c2.51-0.861,4.985-2.036,7.197-3.752c2.237-1.66,4.361-3.63,6.221-5.904
			c0.993-1.085,1.818-2.321,2.731-3.504c0.426-0.613,0.826-1.246,1.245-1.871c0.421-0.624,0.834-1.256,1.204-1.915l1.154-1.961
			l1.072-2.016c0.74-1.34,1.355-2.739,2.023-4.125c3.546-7.846,5.93-16.28,7.221-24.823c1.107-7.506,1.42-15.14,0.652-22.703
			c-0.518,4.644-1.227,9.278-2.218,13.874C199.986,206.795,198.319,212.451,196.125,217.958z"/>
		<g>
			<path fill="rgba(190,190,190,0)" d="M234.554,315.622c-7.958,6.35-16.798,11.664-26.424,14.752c-4.789,1.568-9.744,2.674-14.776,3.036
				c-5.027,0.389-10.094,0.164-15.107-0.59c-10.01-1.67-19.621-5.562-28.619-10.603c8.358,6.034,17.942,10.639,28.226,12.779
				c5.146,1.047,10.433,1.339,15.693,1.091l3.935-0.37c1.303-0.187,2.596-0.442,3.895-0.661c1.308-0.183,2.566-0.588,3.848-0.885
				c0.637-0.164,1.279-0.314,1.913-0.491l1.875-0.614c4.991-1.663,9.797-3.855,14.302-6.531c4.482-2.711,8.732-5.783,12.65-9.22
				c3.939-3.412,7.585-7.14,10.941-11.095c3.317-3.986,6.445-8.138,9.018-12.623c-3.09,4.134-6.479,8.01-10.044,11.695
				C242.323,308.982,238.527,312.427,234.554,315.622z"/>
			<path fill="rgba(190,190,190,0)" d="M225.084,124.039c0.05,1.442,0.167,2.9,0.361,4.356c0.088,0.731,0.208,1.458,0.336,2.187
				c0.069,0.363,0.133,0.729,0.214,1.092l0.12,0.547c0.048,0.194,0.071,0.329,0.164,0.621l0.102,0.2l0.057,0.133l0.112,0.271
				l0.215,0.55c0.141,0.368,0.269,0.742,0.394,1.114c0.247,0.746,0.462,1.497,0.643,2.245c0.364,1.496,0.6,2.982,0.661,4.419
				c0.074,1.878-0.179,3.659-0.95,5.339c-0.759,1.688-2.054,3.285-3.665,4.843c1.709-1.355,3.204-2.777,4.247-4.477
				c1.053-1.688,1.603-3.67,1.741-5.773c0.208-3.206-0.56-6.706-1.883-9.713c-0.147-0.667-0.292-1.327-0.434-1.976
				c-0.141-0.693-0.283-1.383-0.403-2.074c-0.259-1.379-0.479-2.752-0.673-4.11c-0.287-2.008-0.495-3.993-0.513-5.97
				c-0.001-1.975,0.153-3.963,1.064-6.015c-1.088,1.896-1.514,3.892-1.746,5.929C225.027,119.816,225.01,121.909,225.084,124.039z"
				/>
			<path fill="rgba(190,190,190,0)" d="M118.533,256.943c-3.092,1.424-6.025,3.193-9.801,5.229c6.406,11.447,12.587,22.492,18.768,33.536
				c0.399-0.199,0.798-0.397,1.197-0.596c-2-11.744-4.029-23.484-5.976-35.237C122.298,257.319,121.291,255.673,118.533,256.943z"/>
			<path fill="rgba(190,190,190,0)" d="M165.585,109.359c6.575-0.213,13.631,0.978,16.217-5.941c4.225,0.707,8.076,2.516,11.14,1.624
				c3.946-1.148,7.923-2.275,12.006-2.814c2.007-0.265,4.232-0.545,6.259-0.305c-0.38,2.72-0.865,5.42-1.488,8.086
				c-0.651,2.96-1.43,5.89-2.374,8.762c-1.892,5.729-4.259,11.335-7.612,16.313c-1.657,2.492-3.527,4.849-5.685,6.913
				c-2.15,2.073-4.583,3.828-7.193,5.278c-5.268,2.877-11.387,3.922-17.459,3.83l2.279,0.171l1.144,0.073
				c0.382,0.008,0.763-0.016,1.145-0.022l2.298-0.063l2.286-0.279c3.02-0.511,6.043-1.324,8.806-2.74
				c2.785-1.359,5.33-3.185,7.618-5.273c2.271-2.115,4.215-4.547,5.941-7.102c3.423-5.149,5.801-10.897,7.471-16.782
				c1.573-5.608,2.609-11.365,2.901-17.159c0.009,0.001,0.018,0.001,0.027,0.002c0.504,0.064,0.941,0.242,1.356,0.466
				c0.974,0.526,1.823,1.305,3.115,1.459c1.223,0.146,2.458-0.028,3.677-0.201c1.479-0.21,2.958-0.42,4.437-0.63
				c0.4-0.057,0.815-0.101,1.171-0.232c-4.551-1.271-9.5-0.657-14.088-2.159c-4.36-1.426-8.015-5.105-6.357-10.08
				c0.691-3.046-1.764-4.517-4.481-2.512c-4.664,3.442-8.759,3.464-13.425,0.028c-2.658-1.958-4.247-0.891-4.859,2.465
				c-0.524,2.874-0.843,5.809-1.647,8.603c-1.304,4.532-4.303,7.205-9.233,7.41c-3.719,0.155-7.468,0.2-11.136,0.748
				c-2.429,0.363-4.737,1.528-7.1,2.334C157.246,109.953,161.41,109.494,165.585,109.359z"/>
			<path fill="#ffffff" d="M302.208,189.41c-10.424,36.992-24.444,72.337-46.284,104.186c-2.573,4.485-5.701,8.638-9.018,12.623
				c-3.356,3.956-7.002,7.683-10.941,11.095c-3.919,3.437-8.168,6.509-12.65,9.22c-4.505,2.676-9.311,4.868-14.302,6.531
				l-1.875,0.614c-0.633,0.178-1.276,0.327-1.913,0.491c-1.282,0.298-2.54,0.702-3.848,0.885c-1.299,0.219-2.592,0.474-3.895,0.661
				l-3.935,0.37c-5.26,0.248-10.547-0.044-15.693-1.091c-10.284-2.141-19.867-6.746-28.226-12.779
				c-3.461-11.316-6.899-21.613-9.73-32.073c-2.917-10.777-5.267-21.709-7.819-32.583c-1.26-5.366-0.174-7.789,4.683-10.515
				c3.481-1.954,7.112-3.658,10.485-5.776c1.081-0.679,1.553-2.326,2.303-3.531c-1.275-0.496-2.651-1.58-3.808-1.383
				c-4.427,0.755-8.783,1.921-13.684,3.054c-1.67-7.688-4.4-15.211,1.805-22.211c0.44-0.496,0.765-1.095,1.209-1.587
				c8.839-9.787,13.941-20.989,15.003-34.382c0.824-10.398,5.276-18.743,12.117-27.471c7.407,19.589,10.295,39.327,2.892,59.479
				c-3.438,9.359-7.403,18.524-11.132,27.775c-1.384,3.434-2.692,6.885-3.85,10.37c0.311-0.356,0.632-0.702,0.982-1.021
				c0.551-0.54,1.079-1.116,1.657-1.626l1.818-1.424c2.446-1.876,5.15-3.345,7.924-4.558l1.036-0.479
				c0.348-0.148,0.706-0.259,1.059-0.39l2.132-0.745l2.092-0.73l1.82-0.673c2.371-1.016,4.668-2.264,6.671-3.982
				c1.067-0.76,1.97-1.756,2.951-2.641c0.457-0.485,0.894-0.996,1.343-1.491l0.67-0.747c0.215-0.258,0.412-0.535,0.622-0.799
				c3.363-4.226,6.066-9.094,8.304-14.204c2.25-5.111,4.125-10.443,5.708-15.888c1.58-5.446,2.99-10.98,4.139-16.586
				c1.221-5.598,2.215-11.254,3.132-16.965c0.333,5.786,0.072,11.586-0.393,17.373c-0.082,0.893-0.183,1.785-0.279,2.678
				c1.387,7.815,1.622,15.765,0.989,23.651c-0.733,8.704-2.562,17.377-5.656,25.7c-0.59,1.476-1.139,2.959-1.836,4.398
				c-0.337,0.722-0.661,1.447-1.017,2.16l-1.129,2.116c-0.364,0.708-0.779,1.395-1.207,2.075c-0.425,0.68-0.835,1.365-1.278,2.033
				c-0.953,1.304-1.824,2.64-2.903,3.848c-2.015,2.496-4.411,4.712-7.018,6.551c-2.574,1.893-5.544,3.19-8.524,4.003
				c-2.113,0.522-4.191,0.956-6.317,1.456c-0.536,0.105-1.049,0.277-1.562,0.457l-1.546,0.528l-1.551,0.54
				c-0.522,0.172-0.997,0.452-1.499,0.676c-0.979,0.496-2.013,0.913-2.953,1.5l-2.797,1.832l-2.552,2.204
				c-0.783,0.808-1.511,1.679-2.258,2.53c-2.431,3.085-3.961,6.782-4.766,10.533c0.598,7.075,1.853,19.301,4.314,35.129
				c-0.017,0.213-0.174,0.414-0.797,1.815c8.998,5.041,18.609,8.932,28.619,10.603c5.013,0.755,10.08,0.979,15.107,0.59
				c5.032-0.362,9.987-1.468,14.776-3.036c9.626-3.087,18.466-8.401,26.424-14.752c3.973-3.195,7.769-6.64,11.326-10.332
				c3.565-3.685,6.954-7.561,10.044-11.695c0.659-10.421-2.563-19.91-5.831-29.342c-2.393-6.908-5.024-13.747-7.852-20.49
				c-6.987-16.657-12.587-33.728-13.514-51.866c-0.506-9.904-0.899-20.141,1.034-29.749c1.933-9.607,3.727-18.814,2.568-28.687
				c-1.121-9.541,1.132-12.381,10.35-14.967c7.673-2.153,15.512-3.707,23.25-5.635c17.283-4.305,28.393-14.977,32.984-32.27
				c0.254-0.956,0.259-1.978,0.426-3.349c-8.868,0.475-16.05,3.369-21.984,9.601c-11.33,11.898-26.094,15.275-41.726,15.965
				c-1.998,0.088-2.995-2.22-4.167-3.477c-0.523-0.561-1.135-1.045-1.823-1.384c-1.85-0.911-4.129-1.621-5.67-3.047
				c-2.256-2.088-5.946-11.693-6.979-14.123c-1.928-4.535-3.775-9.087-5.633-13.653c-4.539-3.684-8.894-7.744-15.681-8.072
				c1.032,3.1,2.144,4.955,5.452,4.673c3.556-0.303,7.011,2.101,7.461,4.706c0.776,4.494-2.206,12.785-5.079,13.442
				c-1.286,0.294-3.056,0.036-4.15-0.674c-4.044-2.627-7.735-2.536-11.885-0.028c-3.468,2.096-6.178,0.888-7.513-2.944
				c-0.733-2.103-0.876-4.416-1.252-6.64c-0.875-5.171,1.649-8.161,6.895-7.849c3.344,0.199,4.608-1.498,5.389-5.016
				c-2.03,0.544-3.566,0.804-4.987,1.36c-10.656,4.176-14.734,12.625-15.459,23.459c-0.55,8.23-1.358,8.86-9.449,9.759
				c-4.724,0.525-8.552,2.71-10.348,7.096c-2.294,5.602-4.716,11.326-5.741,17.231c-1.471,8.478-2.025,17.152-2.43,25.768
				c-0.47,9.981-2.743,19.198-9.154,27.083c-3.287,4.043-5.243,8.552-5.548,13.819c-0.345,5.972-0.767,11.947-1.421,17.891
				c-0.536,4.874-0.83,9.89-4.093,14.755c-1.504-5.205-2.91-10.069-4.288-14.837c0.397-0.068,0.784-0.158,1.125-0.328
				c0.219-0.109,0.421-0.247,0.598-0.421c0.264-0.26,0.536-0.531,0.665-0.879c0.274-0.735,0.083-1.901-0.251-2.588
				c-0.816-1.682-2.862-2.113-4.567-2.005c-0.931,0.059-1.863,0.268-2.723,0.63c-1.219,0.514-2.209,1.999-1.893,3.335
				c0.143,0.606,0.238,0.977,0.608,1.472c0.337,0.451,0.853,0.729,1.363,0.968c0.381,0.178,0.781,0.239,1.189,0.242
				c0.004,0.199,0.007,0.398,0.023,0.595c0.443,5.428,1.062,10.86,2.003,16.222c0.58,3.306-0.169,5.719-2.324,8.299
				c-3.84,4.597-3.775,8.567-0.274,13.445c1.276,1.778,2.918,3.293,4.427,4.966c-3.957,3.029-7.721,5.911-11.766,9.008
				c-0.677-1.576-1.339-2.867-1.8-4.226c-3.504-10.322-7.324-20.554-10.376-31.009c-7.104-24.332-10.715-49.323-13.525-74.469
				c-0.796-7.12-0.491-13.663,0.703-19.632c3.822-19.096,16.856-32.255,32.974-39.106c13.465-5.723,26.79-11.777,40.168-17.704
				c1.214-0.538,2.359-1.231,3.536-1.852c-0.11-0.386-0.22-0.772-0.33-1.158c-1.615,0.129-3.26,0.102-4.84,0.41
				c-29.66,5.781-57.467,16.443-83.58,31.635c-2.688,1.564-3.792,3.339-3.472,6.377c0.749,7.107,1.367,14.234,2.008,21.357
				c1.004,11.152,2.067,22.294,3.791,33.334c6.298,40.313,17.91,79.088,36.499,115.576c19.416,38.11,45.398,70.62,80.961,95.029
				c3.699,2.539,6.231,2.415,9.884,0.119c62.126-39.039,94.6-96.457,104.398-167.972c0.539-3.935,0.521-7.946,0.762-11.922
				C303.43,189.708,302.819,189.559,302.208,189.41z M226.994,111.848c-0.911,2.052-1.065,4.039-1.064,6.015
				c0.018,1.977,0.226,3.961,0.513,5.97c0.194,1.359,0.414,2.731,0.673,4.11c0.12,0.691,0.262,1.382,0.403,2.074
				c0.143,0.65,0.288,1.309,0.434,1.976c1.323,3.007,2.091,6.507,1.883,9.713c-0.138,2.103-0.688,4.085-1.741,5.773
				c-1.043,1.699-2.538,3.122-4.247,4.477c1.611-1.558,2.905-3.154,3.665-4.843c0.77-1.681,1.024-3.461,0.95-5.339
				c-0.06-1.437-0.297-2.923-0.661-4.419c-0.181-0.748-0.396-1.499-0.643-2.245c-0.125-0.372-0.253-0.746-0.394-1.114l-0.215-0.55
				l-0.112-0.271l-0.057-0.133l-0.102-0.2c-0.093-0.292-0.115-0.428-0.164-0.621l-0.12-0.547c-0.082-0.363-0.145-0.729-0.214-1.092
				c-0.128-0.729-0.248-1.456-0.336-2.187c-0.195-1.456-0.311-2.914-0.361-4.356c-0.074-2.13-0.057-4.223,0.164-6.262
				C225.481,115.74,225.906,113.744,226.994,111.848z M159.842,107.297c3.668-0.548,7.417-0.593,11.136-0.748
				c4.93-0.206,7.93-2.878,9.233-7.41c0.804-2.795,1.123-5.729,1.647-8.603c0.612-3.356,2.201-4.423,4.859-2.465
				c4.666,3.436,8.761,3.414,13.425-0.028c2.717-2.005,5.172-0.535,4.481,2.512c-1.658,4.975,1.997,8.654,6.357,10.08
				c4.588,1.501,9.537,0.888,14.088,2.159c-0.356,0.132-0.771,0.176-1.171,0.232c-1.479,0.21-2.958,0.42-4.437,0.63
				c-1.219,0.173-2.455,0.347-3.677,0.201c-1.292-0.154-2.14-0.933-3.115-1.459c-0.415-0.224-0.852-0.402-1.356-0.466
				c-0.009-0.001-0.018-0.001-0.027-0.002c-0.291,5.794-1.328,11.55-2.901,17.159c-1.67,5.885-4.048,11.633-7.471,16.782
				c-1.726,2.555-3.67,4.987-5.941,7.102c-2.288,2.089-4.833,3.915-7.618,5.273c-2.762,1.416-5.785,2.229-8.806,2.74l-2.286,0.279
				l-2.298,0.063c-0.382,0.006-0.764,0.03-1.145,0.022l-1.144-0.073l-2.279-0.171c6.072,0.092,12.192-0.953,17.459-3.83
				c2.61-1.45,5.043-3.205,7.193-5.278c2.159-2.064,4.028-4.421,5.685-6.913c3.353-4.978,5.72-10.584,7.612-16.313
				c0.943-2.872,1.723-5.801,2.374-8.762c0.623-2.667,1.108-5.366,1.488-8.086c-2.027-0.24-4.253,0.04-6.259,0.305
				c-4.083,0.539-8.061,1.665-12.006,2.814c-3.065,0.892-6.915-0.917-11.14-1.624c-2.586,6.918-9.643,5.728-16.217,5.941
				c-4.175,0.135-8.339,0.595-12.843,0.272C155.105,108.825,157.413,107.659,159.842,107.297z M127.5,295.708
				c-6.181-11.045-12.362-22.089-18.768-33.536c3.776-2.036,6.709-3.805,9.801-5.229c2.757-1.27,3.765,0.376,4.188,2.933
				c1.947,11.753,3.976,23.492,5.976,35.237C128.298,295.311,127.899,295.509,127.5,295.708z"/>
		</g>
	</g>
	<path fill="rgba(190,190,190,0)" d="M225.084,124.039c0.05,1.442,0.167,2.9,0.361,4.356c0.088,0.731,0.208,1.458,0.336,2.187
		c0.069,0.363,0.133,0.729,0.214,1.092l0.12,0.547c0.048,0.194,0.071,0.329,0.164,0.621l0.102,0.2l0.057,0.133l0.112,0.271
		l0.215,0.55c0.141,0.368,0.269,0.742,0.394,1.114c0.247,0.746,0.462,1.497,0.643,2.245c0.364,1.496,0.6,2.982,0.661,4.419
		c0.074,1.878-0.179,3.659-0.95,5.339c-0.759,1.688-2.054,3.285-3.665,4.843c1.709-1.355,3.204-2.777,4.247-4.477
		c1.053-1.688,1.603-3.67,1.741-5.773c0.208-3.206-0.56-6.706-1.883-9.713c-0.147-0.667-0.292-1.327-0.434-1.976
		c-0.141-0.693-0.283-1.383-0.403-2.074c-0.259-1.379-0.479-2.752-0.673-4.11c-0.287-2.008-0.495-3.993-0.513-5.97
		c-0.001-1.975,0.153-3.963,1.064-6.015c-1.088,1.896-1.514,3.892-1.746,5.929C225.027,119.816,225.01,121.909,225.084,124.039z"/>
	<path fill="rgba(190,190,190,0)" d="M191.217,50.137c0,0,11.951-0.486,15.5,4.461c-2.25-4.886-7-7.75-7-7.75c-1.25-1.75-2.5-2-10.5,2.5
		c-6-0.5-8.25,5.25-8.25,5.25c2.521-2.256,7.859-2.399,11.528-2.243c3.245,0.137,5.185,0.508,2.722-0.142
		c-0.12-0.032-0.219-0.061-0.332-0.092C190.041,50.797,191.217,50.137,191.217,50.137z"/>
</g>
</svg>
