<?xml version='1.0' encoding='utf-8'?>
<!DOCTYPE svg PUBLIC '-//W3C//DTD SVG 1.1//EN' 'http://www.w3.org/Graphics/SVG/1.1/DTD/svg11.dtd'>
<svg width="100" version="1.1" xmlns="http://www.w3.org/2000/svg" height="100" viewBox="0 0 100 100" xmlns:xlink="http://www.w3.org/1999/xlink" enable-background="new 0 0 100 100">
  <g>
    <g>
      <path fill="#11cdef" d="m93.462,22.021c0-0.67-0.9-1.218-2-1.218h-82.924c-1.1,0-2,0.548-2,1.218s0.9,1.218 2,1.218h82.924c1.1,0.001 2-0.548 2-1.218z"/>
    </g>
    <g>
      <path fill="#11cdef" d="m51.924,8.023c-1.059-0.301-2.79-0.301-3.848,0l-37.613,10.695c-1.058,0.301-1.024,0.547 0.076,0.547h78.923c1.1,0 1.135-0.246 0.076-0.547l-37.614-10.695z"/>
    </g>
    <g>
      <path fill="#11cdef" d="M91.462,26.904c0-1.1-0.9-2-2-2H10.539c-1.1,0-2,0.9-2,2v3.262c0,1.1,0.9,2,2,2h78.923c1.1,0,2-0.9,2-2V26.904z"/>
    </g>
    <g>
      <path fill="#11cdef" d="m93.877,87.219c-0.228-1.076-1.314-1.957-2.414-1.957h-82.925c-1.1,0-2.187,0.881-2.415,1.957l-.709,3.348c-0.227,1.076 0.486,1.956 1.586,1.956h86c1.1,0 1.813-0.881 1.586-1.957l-.709-3.347z"/>
    </g>
    <g>
      <path fill="#11cdef" d="m10.585,34.728c-1.1,0-1.539,0.539-0.975,1.196 0.564,0.658 1.925,1.196 3.025,1.196h0.574c1.1,0 2.461-0.539 3.025-1.196 0.563-0.658 0.125-1.196-0.975-1.196h-4.674z"/>
    </g>
    <g>
      <path fill="#11cdef" d="m21.179,34.728c-1.1,0-1.539,0.539-0.975,1.196 0.564,0.658 1.925,1.196 3.025,1.196h0.574c1.1,0 2.461-0.539 3.025-1.196 0.563-0.658 0.125-1.196-0.975-1.196h-4.674z"/>
    </g>
    <g>
      <path fill="#11cdef" d="m31.772,34.728c-1.1,0-1.539,0.539-0.975,1.196 0.563,0.658 1.925,1.196 3.025,1.196h0.574c1.1,0 2.461-0.539 3.025-1.196 0.564-0.658 0.125-1.196-0.975-1.196h-4.674z"/>
    </g>
    <g>
      <path fill="#11cdef" d="m42.366,34.728c-1.1,0-1.539,0.539-0.975,1.196 0.563,0.658 1.925,1.196 3.025,1.196h0.574c1.1,0 2.461-0.539 3.025-1.196 0.564-0.658 0.125-1.196-0.975-1.196h-4.674z"/>
    </g>
    <g>
      <path fill="#11cdef" d="m52.96,34.728c-1.1,0-1.539,0.539-0.976,1.196 0.564,0.658 1.926,1.196 3.025,1.196h0.574c1.1,0 2.461-0.539 3.025-1.196s0.125-1.196-0.975-1.196h-4.673z"/>
    </g>
    <g>
      <path fill="#11cdef" d="m63.554,34.728c-1.1,0-1.539,0.539-0.976,1.196 0.564,0.658 1.926,1.196 3.025,1.196h0.574c1.1,0 2.461-0.539 3.025-1.196s0.125-1.196-0.975-1.196h-4.673z"/>
    </g>
    <g>
      <path fill="#11cdef" d="m74.147,34.728c-1.1,0-1.539,0.539-0.976,1.196 0.564,0.658 1.926,1.196 3.025,1.196h0.574c1.1,0 2.461-0.539 3.025-1.196s0.125-1.196-0.975-1.196h-4.673z"/>
    </g>
    <g>
      <path fill="#11cdef" d="m84.74,34.728c-1.1,0-1.539,0.539-0.975,1.196s1.926,1.196 3.025,1.196h0.574c1.1,0 2.461-0.539 3.025-1.196 0.563-0.658 0.124-1.196-0.976-1.196h-4.673z"/>
    </g>
    <g>
      <path fill="#11cdef" d="m12.636,38.659c-1.1,0-2.031,0.899-2.07,1.999l-1.398,40.042c-0.039,1.1 0.83,1.999 1.93,1.999h3.12c1.1,0 1.969-0.899 1.93-1.999l-1.398-40.043c-0.039-1.099-0.97-1.999-2.07-1.999h-0.044z"/>
    </g>
    <g>
      <path fill="#11cdef" d="m23.494,38.659c-1.1,0-2.031,0.899-2.07,1.999l-1.398,40.042c-0.039,1.1 0.83,1.999 1.93,1.999h3.12c1.1,0 1.969-0.899 1.93-1.999l-1.398-40.043c-0.039-1.099-0.97-1.999-2.07-1.999h-0.044z"/>
    </g>
    <g>
      <path fill="#11cdef" d="m34.088,38.659c-1.1,0-2.031,0.899-2.07,1.999l-1.398,40.042c-0.039,1.1 0.83,1.999 1.93,1.999h3.12c1.1,0 1.969-0.899 1.93-1.999l-1.398-40.043c-0.039-1.099-0.97-1.999-2.07-1.999h-0.044z"/>
    </g>
    <g>
      <path fill="#11cdef" d="m44.681,38.659c-1.1,0-2.031,0.899-2.07,1.999l-1.398,40.042c-0.039,1.1 0.83,1.999 1.93,1.999h3.12c1.1,0 1.969-0.899 1.93-1.999l-1.398-40.043c-0.039-1.099-0.97-1.999-2.07-1.999h-0.044z"/>
    </g>
    <g>
      <path fill="#11cdef" d="m55.275,38.659c-1.1,0-2.031,0.899-2.069,1.999l-1.399,40.042c-0.038,1.1 0.831,1.999 1.931,1.999h3.12c1.1,0 1.969-0.899 1.931-1.999l-1.399-40.043c-0.038-1.099-0.97-1.999-2.069-1.999h-0.046z"/>
    </g>
    <g>
      <path fill="#11cdef" d="m65.868,38.659c-1.1,0-2.031,0.899-2.069,1.999l-1.399,40.042c-0.038,1.1 0.831,1.999 1.931,1.999h3.12c1.1,0 1.969-0.899 1.931-1.999l-1.399-40.043c-0.038-1.099-0.97-1.999-2.069-1.999h-0.046z"/>
    </g>
    <g>
      <path fill="#11cdef" d="m76.462,38.659c-1.1,0-2.031,0.899-2.069,1.999l-1.399,40.042c-0.038,1.1 0.831,1.999 1.931,1.999h3.12c1.1,0 1.969-0.899 1.931-1.999l-1.399-40.043c-0.038-1.099-0.97-1.999-2.069-1.999h-0.046z"/>
    </g>
    <g>
      <path fill="#11cdef" d="m87.056,38.659c-1.1,0-2.031,0.899-2.069,1.999l-1.4,40.042c-0.038,1.1 0.831,1.999 1.931,1.999h3.12c1.1,0 1.969-0.899 1.931-1.999l-1.399-40.043c-0.038-1.099-0.97-1.999-2.069-1.999h-0.045z"/>
    </g>
  </g>
</svg>
