<svg width="40" height="37" viewBox="0 0 40 37" fill="none" xmlns="http://www.w3.org/2000/svg">
<path d="M38.3485 20.2422C38.9621 19.5573 39.3359 18.6532 39.3359 17.6641C39.3359 15.532 37.6009 13.7969 35.4688 13.7969H27.963C28.7063 11.541 29.0234 8.54781 29.0234 7.26477V5.97656C29.0234 3.13375 26.71 0.820312 23.8672 0.820312H22.5781C21.9869 0.820312 21.4713 1.2225 21.3277 1.79656L20.6256 4.60586C19.6416 8.54008 16.5178 12.8808 13.2848 13.6697C12.7185 12.2363 11.3203 11.2188 9.6875 11.2188H1.95312C1.24156 11.2188 0.664062 11.7963 0.664062 12.5078V35.7109C0.664062 36.4225 1.24156 37 1.95312 37H9.6875C11.2249 37 12.5552 36.0985 13.1783 34.7957L17.6075 36.2721C19.0555 36.7551 20.5646 37 22.0917 37H32.8906C35.0227 37 36.7578 35.2649 36.7578 33.1328C36.7578 32.6301 36.6616 32.1488 36.4863 31.708C38.1259 31.2602 39.3359 29.7572 39.3359 27.9766C39.3359 26.9874 38.9621 26.0834 38.3485 25.3984C38.9621 24.7135 39.3359 23.8095 39.3359 22.8203C39.3359 21.8312 38.9621 20.9271 38.3485 20.2422ZM10.9766 33.1328C10.9766 33.8435 10.3982 34.4219 9.6875 34.4219H3.24219V13.7969H9.6875C10.3982 13.7969 10.9766 14.3752 10.9766 15.0859V33.1328ZM32.8906 21.5312H35.4688C36.1795 21.5312 36.7578 22.1096 36.7578 22.8203C36.7578 23.531 36.1795 24.1094 35.4688 24.1094H32.8906C32.1791 24.1094 31.6016 24.6869 31.6016 25.3984C31.6016 26.11 32.1791 26.6875 32.8906 26.6875H35.4688C36.1795 26.6875 36.7578 27.2659 36.7578 27.9766C36.7578 28.6873 36.1795 29.2656 35.4688 29.2656H32.8906C32.1791 29.2656 31.6016 29.8431 31.6016 30.5547C31.6016 31.2663 32.1791 31.8438 32.8906 31.8438C33.6013 31.8438 34.1797 32.4221 34.1797 33.1328C34.1797 33.8435 33.6013 34.4219 32.8906 34.4219H22.0917C20.8422 34.4219 19.6073 34.2216 18.4222 33.8263L13.5547 32.2038V16.253C15.5768 15.8688 17.5559 14.5884 19.3426 12.4923C21.0871 10.4453 22.5016 7.73141 23.1264 5.23148L23.5845 3.39844H23.8672C25.2886 3.39844 26.4453 4.55516 26.4453 5.97656V7.26477C26.4453 8.99555 25.9039 12.3153 25.2113 13.7969H22.5781C21.8666 13.7969 21.2891 14.3744 21.2891 15.0859C21.2891 15.7975 21.8666 16.375 22.5781 16.375H35.4688C36.1795 16.375 36.7578 16.9534 36.7578 17.6641C36.7578 18.3748 36.1795 18.9531 35.4688 18.9531H32.8906C32.1791 18.9531 31.6016 19.5306 31.6016 20.2422C31.6016 20.9538 32.1791 21.5312 32.8906 21.5312Z" fill="#D9D9D9"/>
</svg>
