<svg width="512" height="512" viewBox="0 0 512 512" fill="none" xmlns="http://www.w3.org/2000/svg">
<path d="M256 0C153.755 0 70.5732 83.182 70.5732 185.426C70.5732 312.314 236.512 498.593 243.577 506.461C250.213 513.852 261.799 513.839 268.423 506.461C275.488 498.593 441.427 312.314 441.427 185.426C441.425 83.182 358.244 0 256 0ZM256 278.719C204.558 278.719 162.708 236.868 162.708 185.426C162.708 133.984 204.559 92.134 256 92.134C307.441 92.134 349.291 133.985 349.291 185.427C349.291 236.869 307.441 278.719 256 278.719Z" fill="#2D9000"/>
</svg>
