<svg width="512" height="384" viewBox="0 0 512 384" fill="none" xmlns="http://www.w3.org/2000/svg">
<path d="M10.6879 31.156C80.9579 90.667 204.26 195.365 240.5 228.01C245.365 232.416 250.583 234.656 256 234.656C261.406 234.656 266.615 232.437 271.469 228.052C307.74 195.375 431.042 90.667 501.313 31.156C505.688 27.458 506.355 20.958 502.813 16.437C494.625 5.99 482.417 0 469.333 0H42.6669C29.5839 0 17.3749 5.99 9.1879 16.438C5.6459 20.958 6.3129 27.458 10.6879 31.156Z" fill="#2D9000"/>
<path d="M505.813 63.4061C502.032 61.6461 497.584 62.2601 494.438 64.9481C416.51 131.01 317.052 215.688 285.76 243.885C268.197 259.739 243.822 259.739 226.218 243.864C192.864 213.812 81.176 118.864 17.562 64.9471C14.395 62.2591 9.937 61.6661 6.187 63.4051C2.417 65.1561 0 68.9271 0 73.0831V341.333C0 364.865 19.135 384 42.667 384H469.334C492.865 384 512 364.865 512 341.333V73.0831C512 68.9271 509.583 65.1461 505.813 63.4061Z" fill="#2D9000"/>
</svg>
