<svg width="24" height="24" viewBox="0 0 24 24" fill="none" xmlns="http://www.w3.org/2000/svg">
<path d="M8.12409 8.72446C9.04159 8.72446 9.78538 7.98067 9.78538 7.06317C9.78538 6.14566 9.04159 5.40188 8.12409 5.40188C7.20658 5.40188 6.4628 6.14566 6.4628 7.06317C6.4628 7.98067 7.20658 8.72446 8.12409 8.72446Z" fill="black"/>
<path d="M15.8768 8.72446C16.7943 8.72446 17.5381 7.98067 17.5381 7.06317C17.5381 6.14566 16.7943 5.40188 15.8768 5.40188C14.9593 5.40188 14.2155 6.14566 14.2155 7.06317C14.2155 7.98067 14.9593 8.72446 15.8768 8.72446Z" fill="black"/>
<path d="M2.98241 18.0308C2.80398 18.0305 2.62887 17.9826 2.47522 17.8919C2.32158 17.8011 2.195 17.671 2.10862 17.5149C2.02224 17.3587 1.9792 17.1823 1.98397 17.004C1.98874 16.8256 2.04113 16.6518 2.13573 16.5005L4.64599 12.4858C4.78703 12.2619 5.0111 12.103 5.26909 12.044C5.52707 11.985 5.79793 12.0307 6.02229 12.1711C6.24665 12.3114 6.40622 12.535 6.46601 12.7928C6.52581 13.0506 6.48096 13.3216 6.3413 13.5464L3.83104 17.561C3.74116 17.705 3.61607 17.8236 3.46759 17.9058C3.3191 17.988 3.15212 18.031 2.98241 18.0308V18.0308Z" fill="black"/>
<path d="M11.9912 18.7231C10.4702 18.7274 8.96848 18.3827 7.60161 17.7155C6.23475 17.0483 5.03919 16.0763 4.10693 14.8745L5.6831 13.6431C6.43099 14.602 7.38763 15.3777 8.48031 15.9115C9.573 16.4452 10.773 16.7228 11.989 16.7231C13.2051 16.7235 14.4052 16.4467 15.4983 15.9136C16.5913 15.3806 17.5484 14.6054 18.2969 13.647L19.8721 14.8784C18.9398 16.0791 17.7446 17.0499 16.3784 17.7164C15.0122 18.383 13.5113 18.7273 11.9912 18.7231V18.7231Z" fill="black"/>
<path d="M21.0093 18.0308C20.8396 18.031 20.6726 17.988 20.5241 17.9058C20.3756 17.8237 20.2505 17.705 20.1606 17.561L17.6504 13.5464C17.5107 13.3216 17.4659 13.0506 17.5257 12.7928C17.5855 12.535 17.745 12.3114 17.9694 12.171C18.1938 12.0307 18.4646 11.985 18.7226 12.044C18.9806 12.103 19.2047 12.2619 19.3457 12.4858L21.856 16.5005C21.9506 16.6518 22.003 16.8256 22.0078 17.004C22.0125 17.1823 21.9695 17.3587 21.8831 17.5148C21.7967 17.671 21.6701 17.8011 21.5165 17.8919C21.3629 17.9826 21.1877 18.0305 21.0093 18.0308H21.0093Z" fill="black"/>
</svg>
