<svg width="354" height="512" viewBox="0 0 354 512" fill="none" xmlns="http://www.w3.org/2000/svg">
<path d="M177 512C165.824 512 155.816 506.204 150.23 496.495C150.171 496.393 150.114 496.29 150.057 496.187L23.0952 263.801C-7.21079 208.33 -6.34179 142.489 25.4202 87.677C56.4932 34.053 111.685 1.29201 173.059 0.0400117C175.681 -0.0139883 178.317 -0.0139883 180.937 0.0400117C242.312 1.29201 297.504 34.053 328.578 87.677C360.34 142.489 361.209 208.329 330.903 263.801L203.941 496.187C203.884 496.29 203.827 496.393 203.768 496.495C198.183 506.203 188.176 512 177 512ZM176.999 32C175.9 32 174.804 32.011 173.71 32.033C123.611 33.055 78.5252 59.854 53.1062 103.721C26.9992 148.776 26.2772 202.883 51.1762 248.457L176.999 478.757L302.821 248.458C327.72 202.883 326.999 148.776 300.89 103.721C275.471 59.855 230.385 33.055 180.286 32.033C179.195 32.011 178.098 32 176.999 32Z" fill="#2D9000"/>
<path d="M177 232C137.299 232 105 199.701 105 160C105 120.299 137.299 88 177 88C216.701 88 249 120.299 249 160C249 199.701 216.702 232 177 232ZM177 120C154.944 120 137 137.944 137 160C137 182.056 154.944 200 177 200C199.056 200 217 182.056 217 160C217 137.944 199.056 120 177 120Z" fill="#2D9000"/>
</svg>
