<svg width="68" height="89" viewBox="0 0 68 89" fill="none" xmlns="http://www.w3.org/2000/svg">
<path d="M34.0212 14.9447C28.5619 14.9447 24.1206 19.386 24.1206 24.8453C24.1206 30.3046 28.5619 34.7459 34.0212 34.7459C39.4797 34.7459 43.9227 30.3046 43.9227 24.8453C43.9229 19.386 39.4805 14.9447 34.0212 14.9447ZM34.0212 29.1417C31.6517 29.1417 29.7248 27.2149 29.7248 24.8453C29.7248 22.4758 31.6525 20.5489 34.0212 20.5489C36.3908 20.5489 38.3187 22.4758 38.3187 24.8453C38.3187 27.2149 36.391 29.1417 34.0212 29.1417Z" fill="#081121"/>
<path d="M23.0184 13.8434C24.1131 12.7496 24.1131 10.9751 23.0184 9.8813C21.9246 8.78664 20.1501 8.78664 19.0563 9.8813C10.8061 18.1324 10.8061 31.558 19.0563 39.8093C19.6036 40.3565 20.321 40.6302 21.0382 40.6302C21.7546 40.6302 22.4719 40.3565 23.0184 39.8101C24.1122 38.7155 24.1122 36.9408 23.0184 35.8471C16.9529 29.7807 16.9529 19.9099 23.0184 13.8434Z" fill="#081121"/>
<path d="M48.9858 9.88134C47.8911 8.78754 46.1183 8.78668 45.0236 9.88134C43.929 10.976 43.929 12.7497 45.0236 13.8443C47.9723 16.793 49.5965 20.7 49.5965 24.8451C49.5965 28.9903 47.9723 32.8973 45.0236 35.847C43.929 36.9408 43.929 38.7153 45.0236 39.8091C45.5711 40.3564 46.2874 40.6301 47.0047 40.6301C47.7211 40.6301 48.4383 40.3564 48.9858 39.8091C52.9936 35.8013 55.2007 30.4876 55.2007 24.8451C55.2007 19.2029 52.9936 13.8892 48.9858 9.88134Z" fill="#081121"/>
<path d="M5.60403 24.8919C5.60403 17.3132 8.57137 10.1727 13.9599 4.78336C15.0545 3.68956 15.0545 1.91504 13.9599 0.821242C12.8661 -0.273422 11.0915 -0.273422 9.99774 0.821242C3.55026 7.26786 0 15.8169 0 24.8919C0 33.9678 3.55026 42.5159 9.99774 48.9626C10.5441 49.51 11.2615 49.7835 11.9788 49.7835C12.6952 49.7835 13.4135 49.5098 13.9599 48.9626C15.0545 47.8679 15.0545 46.0942 13.9599 45.0004C8.57155 39.6119 5.60403 32.4704 5.60403 24.8919Z" fill="#081121"/>
<path d="M58.0458 0.820349C56.9512 -0.27345 55.1784 -0.27345 54.0837 0.820349C52.989 1.91501 52.989 3.68971 54.0837 4.78333C65.1706 15.8711 65.1706 33.9127 54.0837 45.0004C52.989 46.0942 52.989 47.8687 54.0837 48.9625C54.6311 49.5099 55.3475 49.7835 56.0648 49.7835C56.782 49.7835 57.4984 49.5098 58.0458 48.9615C71.3184 35.6893 71.3184 14.0929 58.0458 0.820349Z" fill="#081121"/>
<path d="M26.8604 48.0139L22.8604 51.9382L51.9077 81.5456L55.9078 77.6212L26.8604 48.0139Z" fill="#081121"/>
<path d="M41.276 48.0107L12.1313 77.6206L16.1255 81.5519L45.2701 51.942L41.276 48.0107Z" fill="#081121"/>
<path d="M58.7948 84.8889L39.2738 30.6213C38.7498 29.1651 37.148 28.4105 35.6881 28.9335C34.2319 29.4565 33.4762 31.062 34.0003 32.5182L53.5214 86.7857C53.9324 87.9279 55.0103 88.6396 56.1581 88.6396C56.4728 88.6396 56.7922 88.5865 57.1061 88.4743C58.5623 87.9496 59.3188 86.3459 58.7948 84.8889Z" fill="#081121"/>
<path d="M32.4512 28.9335C30.9997 28.4105 29.3895 29.1605 28.8635 30.6166L9.24909 84.8841C8.72331 86.3394 9.47606 87.9458 10.9322 88.4718C11.2469 88.5857 11.5683 88.6399 11.8849 88.6399C13.031 88.6399 14.1078 87.931 14.5199 86.7887L34.1343 32.5212C34.6601 31.0659 33.9073 29.4595 32.4512 28.9335Z" fill="#081121"/>
</svg>
