<svg width="100" height="93" viewBox="0 0 100 93" fill="none" xmlns="http://www.w3.org/2000/svg">
<path d="M81.9672 37.4154V35.1445H87.118C87.8512 37.9646 90.3963 40.0625 93.4426 40.0625C97.0582 40.0625 100 37.1207 100 33.5051C100 29.8896 97.0582 26.9477 93.4426 26.9477C90.3963 26.9477 87.8512 29.0457 87.118 31.8658H81.9672V25.3084H93.4426C93.8775 25.3084 94.2943 25.1355 94.6016 24.8281L99.5197 19.91C100.16 19.2699 100.16 18.2322 99.5197 17.592C98.8795 16.9518 97.8418 16.9518 97.2016 17.592L92.7639 22.0297H81.9672V18.1195C81.9672 15.1305 80.3398 12.3785 77.7209 10.9387L59.6881 1.01947C57.2148 -0.339549 54.2611 -0.340369 51.7877 1.02029L33.7549 10.9387C31.1357 12.3785 29.5082 15.1305 29.5082 18.1195V18.9006H20.3623L14.2865 12.6867C13.9783 12.3711 13.5557 12.1936 13.1148 12.1936H1.63934C0.734016 12.1936 0 12.9277 0 13.833C0 14.7383 0.734016 15.4723 1.63934 15.4723H12.4246L18.5 21.6863C18.8082 22.0018 19.2307 22.1793 19.6717 22.1793H29.5078V25.3084H16.1607C15.4275 22.4883 12.8824 20.3904 9.83607 20.3904C6.22049 20.3904 3.27869 23.3322 3.27869 26.9477C3.27869 30.5633 6.22049 33.5051 9.83607 33.5051C12.8824 33.5051 15.4275 31.4072 16.1607 28.5871H29.5082V31.8658H21.3115C20.9393 31.8658 20.5783 31.9924 20.2877 32.2252L12.091 38.7826C11.3832 39.3477 11.2689 40.3793 11.8348 41.0863C12.1582 41.4912 12.6344 41.7018 13.1156 41.7018C13.475 41.7018 13.8369 41.5842 14.1385 41.3424L21.8861 35.1445H29.5082V37.4154C29.5082 40.4043 31.1357 43.1564 33.7545 44.5961L43.3057 49.8494H31.6586C25.732 49.8494 20.1598 52.1572 15.968 56.3482C15.8873 56.4281 15.816 56.517 15.7537 56.6125L9.83607 65.6957L2.46148 69.9367C1.67705 70.3875 1.40656 71.3896 1.85779 72.1748C2.30861 72.9592 3.31066 73.2297 4.0959 72.7785L11.8115 68.3416C12.0357 68.2129 12.2262 68.0326 12.3676 67.8158L18.4053 58.5498C21.9635 55.0527 26.6635 53.1289 31.6586 53.1289H63.3119C65.1922 53.1289 66.3377 54.524 66.6066 55.8199C66.9947 57.692 65.7701 59.4404 63.332 60.4969C62.2504 60.9654 61.0148 61.2031 59.6594 61.2031H50.109C46.8574 61.2031 44.2127 63.8486 44.2127 67.1002C44.2127 70.3518 46.8582 72.9973 50.1098 72.9973H59.0213C63.732 72.9973 68.2746 71.0195 71.4844 67.5719L89.4242 48.3023C90.6234 47.015 92.6148 46.8023 93.8602 47.8301C94.5238 48.3777 94.9279 49.1461 94.9975 49.9936C95.068 50.8428 94.7984 51.6641 94.2393 52.3064L74.9746 74.4383C72.2258 77.5961 68.2475 79.4076 64.0611 79.4076H36.7607C33.8406 79.4076 30.8996 80.0641 28.2549 81.3047C26.3266 82.21 20.323 87.9646 18.5287 89.7072C17.8795 90.3379 17.8643 91.3752 18.4951 92.0252C18.816 92.3559 19.2434 92.5223 19.6709 92.5223C20.0824 92.5223 20.4947 92.3686 20.8131 92.0588C24.3016 88.6711 28.6713 84.7314 29.648 84.2728C31.8594 83.2346 34.3193 82.6863 36.7607 82.6863H64.0611C69.1959 82.6863 74.0758 80.465 77.448 76.5916L96.7127 54.4588C97.8574 53.1437 98.409 51.4621 98.2647 49.7232C98.1213 47.9871 97.298 46.4158 95.9459 45.3006C93.7914 43.5236 90.7484 43.4723 88.3988 44.9592C80.9398 44.1391 75.9934 47.5531 70.7627 51.1617C70.0857 51.6289 69.3668 52.1051 68.6607 52.5793C68.1078 51.817 67.4189 51.1715 66.6049 50.7105L77.7197 44.5969C80.3398 43.1564 81.9672 40.4043 81.9672 37.4154ZM93.4426 30.2264C95.2508 30.2264 96.7213 31.6969 96.7213 33.5051C96.7213 35.3133 95.2508 36.7838 93.4426 36.7838C91.6344 36.7838 90.1639 35.3133 90.1639 33.5051C90.1639 31.6969 91.6344 30.2264 93.4426 30.2264ZM9.83607 30.2264C8.02787 30.2264 6.55738 28.7559 6.55738 26.9477C6.55738 25.1396 8.02787 23.6691 9.83607 23.6691C11.6443 23.6691 13.1148 25.1396 13.1148 26.9477C13.1148 28.7559 11.6443 30.2264 9.83607 30.2264ZM72.6258 53.86C76.8762 50.9281 80.4082 48.5383 85.0492 48.1891L69.0852 65.3371C66.4934 68.1211 62.8258 69.7178 59.0217 69.7178H50.1107C48.6668 69.7178 47.4922 68.5437 47.4922 67.0994C47.4922 65.6551 48.6664 64.4809 50.1098 64.4809H59.6602C61.4668 64.4809 63.1414 64.1527 64.6361 63.5043C69.0066 61.6113 70.2033 58.3383 69.8865 55.7064C70.8197 55.0896 71.7434 54.4687 72.6258 53.86ZM76.1406 41.724L61.3676 49.8494H50.1078L35.3344 41.724C33.7631 40.8596 32.7865 39.208 32.7865 37.415V18.1195C32.7865 16.3264 33.7631 14.6752 35.3344 13.8105L53.3672 3.89283C54.8512 3.07644 56.6234 3.07725 58.1074 3.89201L76.1402 13.8105C77.7115 14.6748 78.6881 16.3264 78.6881 18.1195V37.4154C78.6885 39.2084 77.7119 40.8596 76.1406 41.724Z" fill="white"/>
<path d="M55.8192 9.96912C45.9209 9.96912 37.8672 18.0216 37.8672 27.9203C37.8672 37.8191 45.9205 45.8716 55.8192 45.8716C65.4172 45.8716 73.2569 38.2945 73.7254 28.8105C73.7365 28.7343 73.7705 28.6662 73.7705 28.5871C73.7705 28.5396 73.7475 28.4999 73.7434 28.4535C73.7487 28.2749 73.7705 28.1003 73.7705 27.9203C73.7705 18.0216 65.718 9.96912 55.8192 9.96912ZM70.4426 26.9478H63.9114C63.7717 22.1441 62.7233 17.3146 60.8401 14.1515C66.1696 16.1015 70.0528 21.0482 70.4426 26.9478ZM55.7377 42.2654C53.9065 42.2654 51.3254 37.6371 50.8901 30.2265H60.5852C60.15 37.6371 57.5688 42.2654 55.7377 42.2654ZM50.8426 26.9478C51.077 18.9101 53.8192 13.833 55.7377 13.833C57.6561 13.833 60.3983 18.9101 60.6328 26.9478H50.8426ZM50.5926 14.2269C48.7369 17.3912 47.7024 22.1814 47.5639 26.9478H41.1951C41.5803 21.124 45.368 16.2281 50.5926 14.2269ZM41.3459 30.2265H47.6114C47.8549 34.4695 48.8041 38.6298 50.4078 41.5458C45.6795 39.6609 42.1664 35.3908 41.3459 30.2265ZM61.0246 41.6212C62.6541 38.7019 63.6184 34.5068 63.8639 30.2265H70.2918C69.4594 35.4646 65.8549 39.7794 61.0246 41.6212Z" fill="white"/>
</svg>
