<svg width="38" height="37" viewBox="0 0 38 37" fill="none" xmlns="http://www.w3.org/2000/svg">
<path d="M15.9326 8.87066C15.9326 13.3096 19.544 16.9213 23.983 16.9213C28.4219 16.9213 32.0333 13.3096 32.0333 8.87066C32.0333 4.4317 28.4219 0.820312 23.983 0.820312C19.544 0.820312 15.9326 4.4317 15.9326 8.87066ZM30.5698 8.87066C30.5698 12.5026 27.6149 15.4575 23.983 15.4575C20.351 15.4575 17.3962 12.5026 17.3962 8.87066C17.3962 5.23897 20.351 2.28414 23.983 2.28414C27.6149 2.28414 30.5698 5.23897 30.5698 8.87066Z" fill="#FECA26"/>
<path d="M23.4291 4.54505V5.40264C22.5772 5.70461 21.9652 6.51817 21.9652 7.47242C21.9652 8.68289 22.9501 9.66802 24.1608 9.66802C24.5643 9.66802 24.8926 9.9963 24.8926 10.3998C24.8926 10.8033 24.5643 11.1316 24.1608 11.1316C23.8483 11.1316 23.5106 10.9351 23.2106 10.5779C22.9504 10.2685 22.4888 10.2288 22.1794 10.4887C21.87 10.7489 21.83 11.2105 22.0902 11.5199C22.4814 11.9852 22.9415 12.3094 23.4291 12.473V13.3272C23.4291 13.7315 23.7568 14.0589 24.1608 14.0589C24.5649 14.0589 24.8926 13.7315 24.8926 13.3272V12.4696C25.7445 12.1673 26.3564 11.3538 26.3564 10.3998C26.3564 9.18904 25.3716 8.20419 24.1608 8.20419C23.7574 8.20419 23.4291 7.87591 23.4291 7.47242C23.4291 7.06893 23.7574 6.74036 24.1608 6.74036C24.4202 6.74036 24.6939 6.87276 24.9524 7.12297C25.2429 7.40407 25.7062 7.39635 25.9873 7.1061C26.2684 6.81557 26.2606 6.35231 25.9704 6.07121C25.5989 5.71176 25.2272 5.50844 24.8926 5.39749V4.54505C24.8926 4.1407 24.5649 3.81299 24.1608 3.81299C23.7568 3.81299 23.4291 4.1407 23.4291 4.54505Z" fill="black"/>
<path d="M8.65142 36.0091C8.93509 36.2951 9.39692 36.2982 9.68431 36.0151L13.2325 32.5195C13.8353 31.9167 14.0186 31.0243 13.7535 30.2484L14.5167 29.5124C14.9277 29.1155 15.4687 28.8967 16.0406 28.8967H25.7698C27.4959 28.8967 29.1273 28.2339 30.3641 27.0303C30.415 26.9808 29.9777 27.4958 37.0015 19.1012C38.0432 17.8687 37.8874 16.0179 36.6538 14.975C35.4279 13.9419 33.5914 14.0903 32.5468 15.3016L28.2282 19.7403C27.6829 19.0691 26.8513 18.6508 25.9529 18.6508H17.7918C16.6306 18.1649 15.3984 17.919 14.127 17.919C10.6028 17.919 7.5256 19.5467 5.87418 22.5984C5.17844 22.4666 4.44467 22.6771 3.91678 23.205L0.435221 26.6968C0.150977 26.9819 0.150405 27.4432 0.434077 27.7291L8.65142 36.0091ZM14.1267 19.3825C15.2477 19.3825 16.3314 19.6082 17.3486 20.0531C17.4413 20.0937 17.5411 20.1146 17.642 20.1146H25.9529C26.7464 20.1146 27.4167 20.7617 27.4167 21.5781C27.4167 22.3854 26.7601 23.042 25.9529 23.042H19.9817C19.5777 23.042 19.25 23.3697 19.25 23.7737C19.25 24.1781 19.5777 24.5055 19.9817 24.5055H25.9529C27.5671 24.5055 28.8802 23.1924 28.8802 21.5781C28.8802 21.4495 28.8711 21.3219 28.8545 21.1955C33.0321 16.9013 33.6212 16.2979 33.6463 16.2679C34.1679 15.6522 35.0939 15.5741 35.7098 16.0934C36.3263 16.6147 36.4044 17.5401 35.8814 18.1592L29.3172 26.0065C28.3586 26.9267 27.1001 27.4332 25.7698 27.4332H16.0406C15.0872 27.4332 14.1847 27.7978 13.5002 28.4592L12.8782 29.0594L7.1447 23.3262C8.48471 20.8123 10.9992 19.3825 14.1267 19.3825ZM4.95253 24.2393C5.19388 23.9979 5.56448 23.9545 5.85874 24.1363C5.98542 24.2135 5.62168 23.8824 12.1976 30.4492C12.4901 30.7417 12.4744 31.2078 12.2016 31.4806L9.17673 34.4606L1.9857 27.2147L4.95253 24.2393Z" fill="black"/>
</svg>
