<svg width="100" height="100" viewBox="0 0 100 100" fill="none" xmlns="http://www.w3.org/2000/svg">
<circle cx="50" cy="50" r="50" fill="#B83333"/>
<path d="M46.8994 59.8113C46.8994 71.4369 56.3241 80.8615 67.9496 80.8615C79.5758 80.8615 88.9998 71.4369 88.9998 59.8113C88.9998 48.1858 79.5758 38.7611 67.9496 38.7611C56.3241 38.7611 46.8994 48.1858 46.8994 59.8113ZM86.3686 59.8113C86.3686 69.9837 78.1227 78.2303 67.9496 78.2303C57.7772 78.2303 49.5307 69.9837 49.5307 59.8113C49.5307 49.6389 57.7772 41.3924 67.9496 41.3924C78.1227 41.3924 86.3686 49.6389 86.3686 59.8113Z" fill="white"/>
<path d="M67.9495 54.5488C69.0313 54.5629 69.903 55.4405 69.9101 56.5223C69.9101 57.2488 70.4992 57.8379 71.2257 57.8379C71.9523 57.8379 72.5413 57.2488 72.5413 56.5223C72.5362 54.4929 71.2071 52.7045 69.2651 52.1147V50.6019C69.2651 49.8753 68.676 49.2863 67.9495 49.2863C67.2229 49.2863 66.6338 49.8753 66.6338 50.6019V52.1147C64.4522 52.7751 63.082 54.9317 63.4109 57.1872C63.7404 59.4426 65.6702 61.118 67.9495 61.127C69.0396 61.127 69.9229 62.0103 69.9229 63.1005C69.9229 64.19 69.0396 65.0739 67.9495 65.0739C66.8599 65.0739 65.976 64.19 65.976 63.1005C65.976 62.3739 65.3869 61.7848 64.6604 61.7848C63.9338 61.7848 63.3447 62.3739 63.3447 63.1005C63.3518 65.1337 64.6873 66.9227 66.6338 67.508V69.0208C66.6338 69.7474 67.2229 70.3365 67.9495 70.3365C68.676 70.3365 69.2651 69.7474 69.2651 69.0208V67.508C71.4473 66.8476 72.8176 64.6904 72.488 62.4349C72.1591 60.1795 70.2293 58.5047 67.9495 58.4957C66.8599 58.4957 65.976 57.6118 65.976 56.5223C65.976 55.4321 66.8599 54.5488 67.9495 54.5488Z" fill="white"/>
<path d="M52.1621 59.8113C52.1621 68.5306 59.2305 75.5989 67.9498 75.5989C76.6691 75.5989 83.7374 68.5306 83.7374 59.8113C83.7374 59.0847 83.1484 58.4956 82.4218 58.4956C81.6952 58.4956 81.1062 59.0847 81.1062 59.8113C81.1081 66.0875 76.6749 71.4914 70.5194 72.7171C64.3632 73.9428 58.1988 70.6492 55.7962 64.8509C53.393 59.0526 55.4204 52.3639 60.6392 48.8763C65.8575 45.3881 72.8128 46.0722 77.2517 50.51C77.7676 51.0258 78.604 51.0258 79.1199 50.51C79.6357 49.9935 79.6357 49.1571 79.1199 48.6412C74.6044 44.1213 67.8097 42.7677 61.9067 45.2134C56.0037 47.6596 52.1576 53.422 52.1621 59.8113Z" fill="white"/>
<path d="M83.7378 80.8616H78.4753C77.7487 80.8616 77.1596 81.4507 77.1596 82.1772C77.1596 82.9038 77.7487 83.4928 78.4753 83.4928H80.1069L67.9501 93.6229L55.794 83.4928H57.425C58.1516 83.4928 58.7407 82.9038 58.7407 82.1772C58.7407 81.4507 58.1516 80.8616 57.425 80.8616H52.1625C51.6087 80.8616 51.1141 81.2091 50.9259 81.7301C50.7364 82.2511 50.8944 82.835 51.3209 83.1903L67.1086 96.3467C67.5962 96.7527 68.3048 96.7527 68.7923 96.3467L84.58 83.1903C85.0065 82.835 85.1639 82.2511 84.9751 81.7301C84.7862 81.2091 84.2922 80.8616 83.7378 80.8616Z" fill="white"/>
<path d="M66.6338 84.8084V88.7554C66.6338 89.4819 67.2229 90.071 67.9494 90.071C68.676 90.071 69.2651 89.4819 69.2651 88.7554V84.8084C69.2651 84.0819 68.676 83.4928 67.9494 83.4928C67.2229 83.4928 66.6338 84.0819 66.6338 84.8084Z" fill="white"/>
<path d="M53.478 76.4325H40.3216V26.4383H53.478V31.0957C53.478 31.8222 54.0671 32.4113 54.7936 32.4113C55.5202 32.4113 56.1093 31.8222 56.1093 31.0957V26.4383H78.4751C79.0745 26.4421 79.6006 26.0413 79.7554 25.4625C79.9102 24.8837 79.6546 24.2734 79.1329 23.9779L75.8438 22.0834L76.9231 20.6496C77.1955 20.2642 77.2411 19.7618 77.0413 19.334C76.8331 18.8573 76.3642 18.5477 75.8438 18.5444H67.8582C67.9217 18.1089 67.9526 17.6689 67.95 17.2288C67.9596 12.7089 64.6873 8.85061 60.2271 8.12148C55.7662 7.39236 51.4358 10.0076 50.0052 14.295C48.1557 12.9433 45.6445 12.9433 43.7951 14.295C42.3644 10.0076 38.034 7.39236 33.5732 8.12148C29.113 8.85061 25.8406 12.7089 25.8496 17.2288C25.847 17.6689 25.8779 18.1089 25.9421 18.5444H17.9558C17.4605 18.5457 17.0082 18.8258 16.7853 19.2678C16.5855 19.6963 16.6305 20.198 16.9035 20.5834L17.9558 22.0834L14.6667 23.9779C14.1457 24.2734 13.89 24.8837 14.0448 25.4625C14.1996 26.0413 14.7258 26.4421 15.3245 26.4383H19.2714V77.7482C19.2714 78.4747 19.8605 79.0638 20.587 79.0638H53.478C54.2045 79.0638 54.7936 78.4747 54.7936 77.7482C54.7936 77.0216 54.2045 76.4325 53.478 76.4325ZM73.2126 21.1757L72.8181 21.7018C72.5907 22.0031 72.5034 22.3879 72.5792 22.758C72.6543 23.128 72.8856 23.4479 73.2126 23.6361L73.5151 23.807H65.1742C65.9566 23.0522 66.5945 22.1605 67.0558 21.1757H73.2126ZM52.1624 17.2288C52.1624 13.5954 55.1078 10.6506 58.7405 10.6506C62.374 10.6506 65.3187 13.5954 65.3187 17.2288C65.32 17.9354 65.2044 18.6382 64.977 19.3076L64.898 19.544C63.9337 22.1085 61.4804 23.807 58.7405 23.807H52.1624V21.1757H58.7405C60.9209 21.1757 62.6875 19.4085 62.6875 17.2288C62.6875 15.0491 60.9209 13.2819 58.7405 13.2819C56.5609 13.2819 54.7936 15.0491 54.7936 17.2288V18.5444H52.1624V17.2288ZM57.4249 18.5444V17.2288C57.4249 16.5023 58.014 15.9132 58.7405 15.9132C59.4671 15.9132 60.0562 16.5023 60.0562 17.2288C60.0562 17.9554 59.4671 18.5444 58.7405 18.5444H57.4249ZM46.8998 15.9132C48.3536 15.9132 49.5311 17.0913 49.5311 18.5444V23.807H44.2685V18.5444C44.2685 17.0913 45.4467 15.9132 46.8998 15.9132ZM35.0591 10.6506C38.6925 10.6506 41.6372 13.5954 41.6372 17.2288V18.5444H39.006V17.2288C39.006 15.0491 37.2394 13.2819 35.0591 13.2819C32.8794 13.2819 31.1121 15.0491 31.1121 17.2288C31.1121 19.4085 32.8794 21.1757 35.0591 21.1757H41.6372V23.807H35.0591C32.3192 23.807 29.8665 22.1085 28.9023 19.544C28.9023 19.4522 28.9023 19.3866 28.8233 19.3076C28.5959 18.6382 28.4802 17.9354 28.4809 17.2288C28.4809 13.5954 31.4263 10.6506 35.0591 10.6506ZM36.3747 18.5444H35.0591C34.3325 18.5444 33.7434 17.9554 33.7434 17.2288C33.7434 16.5023 34.3325 15.9132 35.0591 15.9132C35.7856 15.9132 36.3747 16.5023 36.3747 17.2288V18.5444ZM20.587 23.6361C20.9147 23.4479 21.1459 23.128 21.2211 22.758C21.2969 22.3879 21.2095 22.0031 20.9821 21.7018L20.587 21.1757H26.7445C27.2057 22.1605 27.8436 23.0522 28.626 23.807H20.2845L20.587 23.6361ZM21.9027 26.4383H37.6903V76.4325H21.9027V26.4383Z" fill="white"/>
</svg>
