<svg width="100" height="100" viewBox="0 0 100 100" fill="none" xmlns="http://www.w3.org/2000/svg">
<path d="M99.4757 17.182L82.8185 0.524893C82.1273 -0.169708 84.7274 0.02518 46.6593 0.02518C44.8194 0.02518 43.3278 1.51671 43.3278 3.3566V12.6846C33.8319 6.73043 21.7164 6.94265 12.4348 13.2257C3.15317 19.5088 -1.54489 30.6783 0.455242 41.7067C2.45538 52.735 10.7767 61.5433 21.6736 64.1667V67.4732C12.3823 65.0329 0.0193457 68.1894 0.0193457 74.9822V91.6393C0.0193457 101.542 25.0433 102.966 29.4391 93.9713C38.7371 96.7214 51.6564 93.6282 51.6564 86.6422H84.9706C86.8105 86.6422 88.3021 85.1507 88.3021 83.3108V76.6479H96.6306C98.4705 76.6479 99.962 75.1564 99.962 73.3165C99.962 15.1565 100.202 17.9083 99.4757 17.182ZM83.3049 5.71192L94.2753 16.6823H83.3049V5.71192ZM30.0022 82.3347V77.4608C36.9448 79.2931 44.3106 78.0055 48.325 75.2954V78.3136C48.325 81.6317 38.6639 85.0864 30.0022 82.3313V82.3347ZM3.35077 80.3358C9.19409 84.3085 20.8291 84.3069 26.6707 80.3358V83.3108C26.6707 85.6694 21.6836 88.3079 15.0107 88.3079C8.33791 88.3079 3.35077 85.6694 3.35077 83.3108V80.3358ZM17.7375 26.0702C23.2416 20.6093 32.0018 20.2464 37.9387 25.2335C43.8756 30.2205 45.0301 38.9118 40.6011 45.2759C38.9074 45.0336 37.1947 44.9516 35.4857 45.031C38.5589 40.8668 35.2941 36.0029 30.0022 35.14V28.5538C31.9177 29.0252 33.3336 30.2562 33.3336 31.6737C33.3336 32.5937 34.0793 33.3394 34.9993 33.3394C38.2008 33.3394 36.8999 26.2701 30.0022 25.1458C30.0022 24.2258 29.2564 23.4801 28.3364 23.4801C27.4165 23.4801 26.6707 24.2258 26.6707 25.1458C22.8746 25.7654 20.0079 28.4555 20.0079 31.6737C20.0079 34.8919 22.8746 37.582 26.6707 38.2016V44.7878C24.7552 44.3165 23.3393 43.0855 23.3393 41.668C23.3393 40.748 22.5935 40.0023 21.6736 40.0023C18.7853 40.0023 19.5082 45.9838 25.2232 47.8311C24.1339 48.5065 23.2096 49.4171 22.5181 50.4962C17.9204 48.5545 14.5891 44.4538 13.6304 39.5558C12.6717 34.6578 14.2111 29.6038 17.7375 26.0719V26.0702ZM26.6707 18.4296C22.9721 18.756 19.4627 20.2095 16.6165 22.5939L11.9109 17.8899C16.0225 14.28 21.211 12.1288 26.6707 11.7701V18.4296ZM48.325 53.328C48.325 55.6866 43.3378 58.3251 36.665 58.3251C29.9922 58.3251 25.005 55.6866 25.005 53.328C25.005 50.9693 29.9922 48.3308 36.665 48.3308C43.3378 48.3308 48.325 50.9693 48.325 53.328ZM26.6707 34.7936C22.2449 33.7059 22.2449 29.6415 26.6707 28.5538V34.7936ZM30.0022 44.7878V38.5481C34.428 39.6358 34.428 43.7001 30.0022 44.7878ZM25.005 61.6565V58.6832C30.8483 62.6559 42.4833 62.6543 48.325 58.6832V61.6565C48.325 64.0152 43.3378 66.6536 36.665 66.6536C29.9922 66.6536 25.005 64.0152 25.005 61.6565ZM49.8924 49.2853C48.2598 47.7234 46.2581 46.6008 44.0741 46.0221C47.1813 40.8503 47.5073 34.4702 44.9436 29.0086L50.7586 25.6505C54.4638 33.1729 54.1383 42.0543 49.8924 49.2853ZM43.2745 26.1319C40.1812 21.761 35.3336 18.9588 30.0022 18.4596V11.7535C37.7351 12.2356 44.7947 16.3157 49.0729 22.7755L43.2745 26.1319ZM9.55554 20.2453L14.2612 24.9509C9.71468 30.3673 8.72669 37.9306 11.7293 44.3331L5.94262 47.6762C1.45376 38.6491 2.8824 27.8022 9.55554 20.2453ZM7.61166 50.5612L13.37 47.2298C15.4375 50.1675 18.326 52.4297 21.6736 53.7327V60.7437C15.9248 59.1284 10.9394 55.5178 7.61166 50.5595V50.5612ZM25.005 67.0118C30.8483 70.9845 42.4833 70.9828 48.325 67.0118V69.9851C48.325 73.4098 38.399 76.7395 29.8822 73.9328C29.1546 71.5234 27.3543 69.5855 25.005 68.6825V67.0118ZM22.1317 71.1178C22.4422 71.4562 22.88 71.6494 23.3393 71.6508C23.366 71.6508 23.3893 71.6375 23.4159 71.6358C31.1965 75.2671 23.6158 79.9793 15.0107 79.9793C8.33791 79.9793 3.35077 77.3409 3.35077 74.9822C3.35077 71.5792 13.5899 68.1012 22.1317 71.1178ZM15.0107 96.6365C8.33791 96.6365 3.35077 93.998 3.35077 91.6393V88.666C9.19409 92.6388 20.8291 92.6371 26.6707 88.666V91.6393C26.6707 93.998 21.6836 96.6365 15.0107 96.6365ZM30.0022 90.6482V85.7893C31.3677 86.147 32.7606 86.3905 34.1664 86.5173C34.9887 86.6808 35.8305 86.7228 36.665 86.6422C40.7573 86.7981 44.8071 85.7654 48.325 83.6689V86.6422C48.325 89.9553 38.6006 93.4016 30.0022 90.6482ZM84.9706 83.3108H51.6564V76.6479H84.9706V83.3108ZM51.6564 73.3165V52.7033C59.9074 40.7578 57.7455 24.5005 46.6593 15.1265V3.3566H79.9735V16.6823C79.9735 18.5222 81.465 20.0137 83.3049 20.0137H96.6306V73.3165H51.6564Z" fill="white"/>
<path d="M74.9762 15.0166C74.9762 14.0967 74.2304 13.3509 73.3105 13.3509H53.322C52.402 13.3509 51.6562 14.0967 51.6562 15.0166C51.6562 15.9365 52.402 16.6823 53.322 16.6823H73.3105C74.2304 16.6823 74.9762 15.9365 74.9762 15.0166Z" fill="white"/>
<path d="M53.322 10.0195H73.3105C74.2304 10.0195 74.9762 9.27371 74.9762 8.35376C74.9762 7.43381 74.2304 6.68805 73.3105 6.68805H53.322C52.402 6.68805 51.6562 7.43381 51.6562 8.35376C51.6562 9.27371 52.402 10.0195 53.322 10.0195Z" fill="white"/>
<path d="M73.3107 20.0137H59.985C59.0651 20.0137 58.3193 20.7595 58.3193 21.6794C58.3193 22.5994 59.0651 23.3452 59.985 23.3452H73.3107C74.2307 23.3452 74.9765 22.5994 74.9765 21.6794C74.9765 20.7595 74.2307 20.0137 73.3107 20.0137Z" fill="white"/>
<path d="M89.9677 46.6651H65.4484L70.1124 40.8351C72.2778 43.0005 72.461 43.3853 73.3972 43.3337C73.8706 43.3076 74.3104 43.081 74.6065 42.7107L80.1033 35.8347L83.7845 39.5159C84.1264 39.8601 84.6012 40.0381 85.0851 40.0036C85.5689 39.969 86.0137 39.7252 86.3031 39.336L91.3002 32.6731C91.6573 32.1971 91.7333 31.5666 91.4995 31.0194C91.2657 30.4721 90.7577 30.0911 90.1669 30.02C89.5761 29.9488 88.9922 30.1982 88.6351 30.6743L84.7906 35.8013L81.1511 32.1618C80.8161 31.8266 80.3543 31.65 79.8812 31.6761C79.4082 31.7022 78.9686 31.9285 78.6725 32.2984L73.1756 39.1744L71.1601 37.1589C70.8252 36.8238 70.3634 36.6471 69.8903 36.6732C69.4172 36.6993 68.9776 36.9256 68.6815 37.2955L63.3163 44V28.3423C63.3163 27.4223 62.5705 26.6766 61.6506 26.6766C60.7306 26.6766 59.9849 27.4223 59.9849 28.3423V48.3308C59.9849 49.2508 60.7306 49.9965 61.6506 49.9965H89.9677C90.8876 49.9965 91.6334 49.2508 91.6334 48.3308C91.6334 47.4109 90.8876 46.6651 89.9677 46.6651Z" fill="white"/>
<path d="M69.9795 59.9908H64.9824V56.6594C64.9824 54.8195 63.4908 53.3279 61.6509 53.3279H58.3195C57.3996 53.3279 56.6538 54.0737 56.6538 54.9937C56.6538 55.9136 57.3996 56.6594 58.3195 56.6594H61.6509V66.6536H58.3195C57.3996 66.6536 56.6538 67.3994 56.6538 68.3193C56.6538 69.2393 57.3996 69.9851 58.3195 69.9851H61.6509C63.4908 69.9851 64.9824 68.4935 64.9824 66.6536V63.3222H69.9795C70.8994 63.3222 71.6452 62.5764 71.6452 61.6565C71.6452 60.7366 70.8994 59.9908 69.9795 59.9908Z" fill="white"/>
<path d="M89.9677 53.3279H74.9763C74.0563 53.3279 73.3105 54.0737 73.3105 54.9937C73.3105 55.9136 74.0563 56.6594 74.9763 56.6594H89.9677C90.8876 56.6594 91.6334 55.9136 91.6334 54.9937C91.6334 54.0737 90.8876 53.3279 89.9677 53.3279Z" fill="white"/>
<path d="M89.9677 66.6537H74.9763C74.0563 66.6537 73.3105 67.3995 73.3105 68.3194C73.3105 69.2393 74.0563 69.9851 74.9763 69.9851H89.9677C90.8876 69.9851 91.6334 69.2393 91.6334 68.3194C91.6334 67.3995 90.8876 66.6537 89.9677 66.6537Z" fill="white"/>
<path d="M89.9677 59.9908H74.9763C74.0563 59.9908 73.3105 60.7365 73.3105 61.6565C73.3105 62.5764 74.0563 63.3222 74.9763 63.3222H89.9677C90.8876 63.3222 91.6334 62.5764 91.6334 61.6565C91.6334 60.7365 90.8876 59.9908 89.9677 59.9908Z" fill="white"/>
</svg>
