<svg width="137" height="137" viewBox="0 0 137 137" fill="none" xmlns="http://www.w3.org/2000/svg">
<path d="M102.501 15.2332C102.003 14.7355 101.313 14.4492 100.609 14.4492C99.9056 14.4492 99.2153 14.7355 98.7176 15.2332C98.2199 15.7309 97.9336 16.4213 97.9336 17.125C97.9336 17.8287 98.2196 18.5191 98.7176 19.0168C99.2156 19.5145 99.9056 19.8008 100.609 19.8008C101.313 19.8008 102.003 19.5145 102.501 19.0168C102.999 18.5191 103.285 17.8287 103.285 17.125C103.285 16.4213 102.999 15.7309 102.501 15.2332Z" fill="black"/>
<path d="M61.3916 32.6847C53.4245 32.6847 46.9424 39.1665 46.9424 47.1339C46.9424 55.1013 53.4245 61.5831 61.3916 61.5831C69.3587 61.5831 75.8408 55.1013 75.8408 47.1339C75.8408 39.1665 69.3587 32.6847 61.3916 32.6847ZM61.3916 56.2316C56.375 56.2316 52.2939 52.1505 52.2939 47.1339C52.2939 42.1174 56.375 38.0363 61.3916 38.0363C66.4082 38.0363 70.4893 42.1174 70.4893 47.1339C70.4893 52.1505 66.4082 56.2316 61.3916 56.2316Z" fill="#B83333"/>
<path d="M69.6374 97.361C69.1395 96.8633 68.4515 96.577 67.748 96.577C67.0416 96.577 66.354 96.8633 65.8536 97.361C65.3562 97.8587 65.0723 98.549 65.0723 99.2527C65.0723 99.9565 65.3562 100.647 65.8536 101.145C66.354 101.642 67.0416 101.929 67.748 101.929C68.4491 101.929 69.1395 101.642 69.6374 101.145C70.1378 100.647 70.4238 99.9565 70.4238 99.2527C70.4238 98.549 70.1378 97.8587 69.6374 97.361Z" fill="black"/>
<path d="M31.5771 81.617H14.4521C12.9746 81.617 11.7764 82.8152 11.7764 84.2928V101.418C11.7764 102.895 12.9746 104.094 14.4521 104.094H31.5771C33.0547 104.094 34.2529 102.895 34.2529 101.418V84.2928C34.2529 82.815 33.0547 81.617 31.5771 81.617ZM28.9014 98.742H17.1279V86.9686H28.9014V98.742Z" fill="#B83333"/>
<path d="M128.973 59.4023H122.551V17.125C122.551 15.6472 121.353 14.4492 119.875 14.4492H111.759C110.281 14.4492 109.083 15.6472 109.083 17.125C109.083 18.6028 110.281 19.8008 111.759 19.8008H117.199V54.8128L82.1855 19.8008H91.7793C93.2569 19.8008 94.4551 18.6028 94.4551 17.125C94.4551 15.6472 93.2569 14.4492 91.7793 14.4492H76.8337L63.1674 0.783736C62.1223 -0.261156 60.4285 -0.261156 59.3831 0.783736L45.609 14.5571C45.3719 14.4883 45.1217 14.4492 44.8621 14.4492H31.0391V2.67578C31.0391 1.19795 29.8408 0 28.3633 0H11.2383C9.76071 0 8.5625 1.19795 8.5625 2.67578V14.4492H2.67578C1.19821 14.4492 0 15.6472 0 17.125V123.604C0 125.082 1.19821 126.28 2.67578 126.28H77.0636V128.973C77.0636 133.399 80.6646 137 85.0909 137H128.973C133.399 137 137 133.399 137 128.973V67.4297C137 63.0034 133.399 59.4023 128.973 59.4023ZM13.9141 5.35156H25.6875V14.4492H13.9141V5.35156ZM5.35156 19.8008H40.3652L5.35156 54.8128V19.8008ZM77.0636 67.4297V120.929H71.6218H49.8549L63.1674 107.616C64.2123 106.571 64.2123 104.877 63.1674 103.832C62.1223 102.787 60.4285 102.787 59.3831 103.832L45.8731 117.342V105.48L66.4006 84.9528C67.4455 83.908 67.4455 82.2136 66.4006 81.1685C65.3554 80.1239 63.6617 80.1239 62.6162 81.1685L45.8731 97.9117V75.1953H63.416C64.8936 75.1953 66.0918 73.9971 66.0918 72.5196C66.0918 71.042 64.8936 69.8438 63.416 69.8438H43.1973C41.7197 69.8438 40.5215 71.042 40.5215 72.5196V120.928H5.35156V64.108V62.3808L61.2754 6.4596L114.221 59.4023H85.0909C80.6646 59.4023 77.0636 63.0034 77.0636 67.4297ZM131.648 128.973C131.648 130.448 130.448 131.648 128.973 131.648H85.0909C83.6155 131.648 82.4151 130.448 82.4151 128.973V67.4297C82.4151 65.9543 83.6155 64.7539 85.0909 64.7539H128.973C130.448 64.7539 131.648 65.9543 131.648 67.4297V128.973Z" fill="black"/>
<path d="M123.621 70.1055H90.4414C88.9638 70.1055 87.7656 71.3037 87.7656 72.7812V85.625C87.7656 87.1026 88.9638 88.3008 90.4414 88.3008H123.621C125.099 88.3008 126.297 87.1026 126.297 85.625V72.7812C126.297 71.3037 125.099 70.1055 123.621 70.1055ZM120.945 82.9492H93.1172V75.457H120.945V82.9492Z" fill="black"/>
<path d="M94.3879 95.2413H90.4414C88.9638 95.2413 87.7656 96.4395 87.7656 97.9171C87.7656 99.3946 88.9638 100.593 90.4414 100.593H94.3879C95.8655 100.593 97.0637 99.3946 97.0637 97.9171C97.0637 96.4395 95.8657 95.2413 94.3879 95.2413Z" fill="black"/>
<path d="M109.004 95.2413H105.058C103.58 95.2413 102.382 96.4395 102.382 97.9171C102.382 99.3946 103.58 100.593 105.058 100.593H109.004C110.482 100.593 111.68 99.3946 111.68 97.9171C111.68 96.4395 110.482 95.2413 109.004 95.2413Z" fill="black"/>
<path d="M123.622 95.2413H119.676C118.198 95.2413 117 96.4395 117 97.9171C117 99.3946 118.198 100.593 119.676 100.593H123.622C125.1 100.593 126.298 99.3946 126.298 97.9171C126.298 96.4395 125.1 95.2413 123.622 95.2413Z" fill="black"/>
<path d="M94.3879 108.085H90.4414C88.9638 108.085 87.7656 109.283 87.7656 110.761C87.7656 112.238 88.9638 113.437 90.4414 113.437H94.3879C95.8655 113.437 97.0637 112.238 97.0637 110.761C97.0637 109.283 95.8657 108.085 94.3879 108.085Z" fill="black"/>
<path d="M109.004 108.085H105.058C103.58 108.085 102.382 109.283 102.382 110.761C102.382 112.238 103.58 113.437 105.058 113.437H109.004C110.482 113.437 111.68 112.238 111.68 110.761C111.68 109.283 110.482 108.085 109.004 108.085Z" fill="black"/>
<path d="M123.622 108.085H119.676C118.198 108.085 117 109.283 117 110.761C117 112.238 118.198 113.437 119.676 113.437H123.622C125.1 113.437 126.298 112.238 126.298 110.761C126.298 109.283 125.1 108.085 123.622 108.085Z" fill="black"/>
<path d="M94.3879 120.929H90.4414C88.9638 120.929 87.7656 122.127 87.7656 123.605C87.7656 125.082 88.9638 126.28 90.4414 126.28H94.3879C95.8655 126.28 97.0637 125.082 97.0637 123.605C97.0637 122.127 95.8657 120.929 94.3879 120.929Z" fill="black"/>
<path d="M109.004 120.929H105.058C103.58 120.929 102.382 122.127 102.382 123.605C102.382 125.082 103.58 126.28 105.058 126.28H109.004C110.482 126.28 111.68 125.082 111.68 123.605C111.68 122.127 110.482 120.929 109.004 120.929Z" fill="black"/>
<path d="M123.622 120.929H119.676C118.198 120.929 117 122.127 117 123.605C117 125.082 118.198 126.28 119.676 126.28H123.622C125.1 126.28 126.298 125.082 126.298 123.605C126.298 122.127 125.1 120.929 123.622 120.929Z" fill="black"/>
</svg>
