<svg width="138" height="137" viewBox="0 0 138 137" fill="none" xmlns="http://www.w3.org/2000/svg">
<path d="M18.1777 83.9678H22.5971V88.3871H18.1777V83.9678Z" fill="#B83333"/>
<path d="M31.4365 83.9678H35.8559V88.3871H31.4365V83.9678Z" fill="#B83333"/>
<path d="M44.6934 83.9678H49.1127V88.3871H44.6934V83.9678Z" fill="#B83333"/>
<path d="M133.081 86.1774H115.403V77.3387H128.661C133.536 77.3387 137.5 73.3747 137.5 68.5C137.5 64.3374 134.605 60.8373 130.727 59.9041C129.773 53.5253 124.255 48.6129 117.613 48.6129C116.866 48.6129 116.13 48.6992 115.403 48.8255V13.2581H106.565V0H31.4355V4.63191C29.8883 4.89841 28.395 5.42493 27.0161 6.23306C24.9877 5.04298 22.7252 4.41935 20.3871 4.41935C13.7451 4.41935 8.2274 9.33179 7.27253 15.7105C3.39481 16.6438 0.5 20.1439 0.5 24.3065C0.5 29.1811 4.46404 33.1452 9.33871 33.1452H22.5968V75.129H4.91935V123.742H0.5V137H137.5V123.742H133.081V86.1774ZM126.452 61.871V64.0806H128.661C131.099 64.0806 133.081 66.0627 133.081 68.5C133.081 70.9373 131.099 72.9194 128.661 72.9194H93.3064C90.8691 72.9194 88.8871 70.9373 88.8871 68.5C88.8871 66.0627 90.8691 64.0806 93.3064 64.0806H95.5161V61.871C95.5161 56.9963 99.4802 53.0323 104.355 53.0323C106.248 53.0323 108.083 53.6602 109.651 54.8438L110.984 55.8494L112.316 54.8438C113.885 53.6602 115.719 53.0323 117.613 53.0323C122.488 53.0323 126.452 56.9963 126.452 61.871ZM110.984 50.4266C108.955 49.2365 106.693 48.6129 104.355 48.6129C98.5965 48.6129 93.6927 52.3115 91.8682 57.4516H75.629V61.871H87.4791C85.6362 63.4926 84.4677 65.8598 84.4677 68.5C84.4677 73.3747 88.4318 77.3387 93.3064 77.3387H110.984V86.1774H71.2097V17.6774H110.984V50.4266ZM102.145 13.2581H71.2097V4.41935H102.145V13.2581ZM66.7903 4.41935V13.2581H35.8548V4.41935H66.7903ZM9.33871 28.7258C6.90137 28.7258 4.91935 26.7438 4.91935 24.3065C4.91935 21.8691 6.90137 19.8871 9.33871 19.8871H11.5484V17.6774C11.5484 12.8027 15.5124 8.83871 20.3871 8.83871C22.2806 8.83871 24.1148 9.46666 25.6836 10.6503L27.0161 11.6558L28.3486 10.6503C29.2938 9.93707 30.3414 9.45263 31.4355 9.15916V13.2581H22.5968V28.7258H9.33871ZM27.0161 17.6774H66.7903V86.1774H62.371V75.129H27.0161V17.6774ZM9.33871 79.5484H57.9516V99.4355H119.823V95.0161H62.371V90.5968H128.661V95.0161H124.242V99.4355H128.661V123.742H124.242V103.855H106.565V123.742H102.145V103.855H84.4677V123.742H80.0484V103.855H62.371V123.742H49.1129V92.8064H44.6936V123.742H35.8548V92.8064H31.4355V123.742H22.5968V92.8064H18.1774V123.742H9.33871V79.5484ZM119.823 123.742H110.984V108.274H119.823V123.742ZM97.7258 123.742H88.8871V108.274H97.7258V123.742ZM75.629 123.742H66.7903V108.274H75.629V123.742ZM133.081 132.581H4.91935V128.161H133.081V132.581Z" fill="black"/>
<path d="M31.4365 22.0967H62.372V26.5161H31.4365V22.0967Z" fill="black"/>
<path d="M31.4365 39.7742H62.372V44.1935H31.4365V39.7742Z" fill="black"/>
<path d="M31.4365 57.4516H62.372V61.871H31.4365V57.4516Z" fill="black"/>
<path d="M35.8555 30.9355H40.2748V35.3548H35.8555V30.9355Z" fill="#B83333"/>
<path d="M44.6934 30.9355H49.1127V35.3548H44.6934V30.9355Z" fill="#B83333"/>
<path d="M53.5322 30.9355H57.9516V35.3548H53.5322V30.9355Z" fill="#B83333"/>
<path d="M35.8555 48.6129H40.2748V53.0323H35.8555V48.6129Z" fill="#B83333"/>
<path d="M44.6934 48.6129H49.1127V53.0323H44.6934V48.6129Z" fill="#B83333"/>
<path d="M53.5322 48.6129H57.9516V53.0323H53.5322V48.6129Z" fill="#B83333"/>
<path d="M35.8555 66.2903H40.2748V70.7096H35.8555V66.2903Z" fill="#B83333"/>
<path d="M44.6934 66.2903H49.1127V70.7096H44.6934V66.2903Z" fill="#B83333"/>
<path d="M53.5322 66.2903H57.9516V70.7096H53.5322V66.2903Z" fill="#B83333"/>
<path d="M75.6289 22.0967H106.564V26.5161H75.6289V22.0967Z" fill="black"/>
<path d="M75.6289 39.7742H106.564V44.1935H75.6289V39.7742Z" fill="black"/>
<path d="M80.0479 30.9355H84.4672V35.3548H80.0479V30.9355Z" fill="#B83333"/>
<path d="M88.8877 30.9355H93.3071V35.3548H88.8877V30.9355Z" fill="#B83333"/>
<path d="M97.7256 30.9355H102.145V35.3548H97.7256V30.9355Z" fill="#B83333"/>
<path d="M80.0479 48.6129H84.4672V53.0323H80.0479V48.6129Z" fill="#B83333"/>
<path d="M88.8877 48.6129H93.3071V53.0323H88.8877V48.6129Z" fill="#B83333"/>
</svg>
