<svg width="138" height="137" viewBox="0 0 138 137" fill="none" xmlns="http://www.w3.org/2000/svg">
<path d="M66.9902 53.0322V66.2903H137.7V53.0322H66.9902ZM133.281 61.8709H71.4096V57.4516H133.281V61.8709Z" fill="black"/>
<path d="M71.4102 48.6129H75.8295V45.2807L102.346 24.8854L128.862 45.2807V48.6129H133.281V43.1064L102.346 19.3082L71.4102 43.1064V48.6129Z" fill="black"/>
<path d="M137.7 112.694C137.7 106.493 135.568 100.414 131.694 95.573L129.759 93.1534C128.462 91.5293 126.524 90.5968 124.442 90.5968C122.792 90.5968 121.245 91.2045 120.023 92.2563V88.3871H106.765V101.645H113.524C111.999 105.11 111.184 108.877 111.184 112.694C111.184 119.25 115.972 124.694 122.232 125.753V132.581H111.184V112.694V110.484H93.5066V132.581H71.4099V125.753C77.6699 124.697 82.4583 119.252 82.4583 112.694C82.4583 106.493 80.3259 100.414 76.4524 95.573L74.5167 93.1534C73.2196 91.5293 71.2817 90.5968 69.2002 90.5968C67.1187 90.5968 65.1808 91.5293 63.8859 93.1512L61.948 95.573C58.0745 100.414 55.9421 106.493 55.9421 112.694C55.9421 119.25 60.7305 124.694 66.9905 125.753V132.581H47.1034V110.484H29.426V132.581H16.1679V125.753C22.428 124.697 27.2163 119.252 27.2163 112.694C27.2163 107.178 25.5193 101.765 22.4213 97.2258H25.0066V83.9678H11.7486V91.0056C10.5465 91.4188 9.45936 92.1281 8.64399 93.1512L6.7061 95.573C2.83253 100.414 0.700195 106.493 0.700195 112.694C0.700195 119.25 5.48857 124.694 11.7486 125.753V132.581H5.11955V125.952H0.700195V137H11.7486H16.1679H66.9905H71.4099H122.232H126.652H137.7V125.952H133.281V132.581H126.652V125.753C132.912 124.694 137.7 119.25 137.7 112.694ZM16.1679 88.3871H20.5873V92.8065H18.9278C18.1589 91.9734 17.2175 91.368 16.1679 91.0056V88.3871ZM11.7486 110.484V121.219C7.94794 120.231 5.11955 116.801 5.11955 112.694C5.11955 107.492 6.90939 102.394 10.1554 98.3351L12.0933 95.9111C12.5507 95.341 13.2291 95.0162 13.9583 95.0162C14.6875 95.0162 15.3658 95.341 15.8232 95.9133L17.7611 98.3351C21.0071 102.394 22.797 107.492 22.797 112.694C22.797 116.801 19.9686 120.231 16.1679 121.219V110.484H11.7486ZM42.6841 132.581H33.8454V114.903H42.6841V132.581ZM66.9905 110.484V121.219C63.1899 120.231 60.3615 116.801 60.3615 112.694C60.3615 107.492 62.1513 102.394 65.3973 98.3351L67.3352 95.9111C67.7926 95.341 68.471 95.0162 69.2002 95.0162C69.9294 95.0162 70.6078 95.341 71.0652 95.9133L73.0031 98.3351C76.2491 102.394 78.0389 107.492 78.0389 112.694C78.0389 116.801 75.2105 120.231 71.4099 121.219V110.484H66.9905ZM106.765 132.581H97.926V114.903H106.765V132.581ZM111.184 97.2258V92.8065H115.603V97.2258H111.184ZM122.232 110.484V121.219C118.432 120.231 115.603 116.801 115.603 112.694C115.603 107.492 117.393 102.394 120.639 98.3351L122.577 95.9111C123.035 95.341 123.713 95.0162 124.442 95.0162C125.171 95.0162 125.85 95.341 126.307 95.9133L128.245 98.3351C131.491 102.394 133.281 107.492 133.281 112.694C133.281 116.801 130.452 120.231 126.652 121.219V110.484H122.232Z" fill="black"/>
<path d="M75.8295 70.7097H71.4102V88.3871H75.8295V70.7097Z" fill="black"/>
<path d="M133.282 70.7097H128.862V88.3871H133.282V70.7097Z" fill="black"/>
<path d="M120.022 70.7097H106.764V83.9678H120.022V70.7097ZM115.602 79.5484H111.183V75.1291H115.602V79.5484Z" fill="#B83333"/>
<path d="M97.926 70.7097H84.668V83.9678H97.926V70.7097ZM93.5067 79.5484H89.0873V75.1291H93.5067V79.5484Z" fill="#B83333"/>
<path d="M42.6838 30.9355H29.4258V44.1936H42.6838V30.9355ZM38.2645 39.7742H33.8451V35.3548H38.2645V39.7742Z" fill="#B83333"/>
<path d="M60.3616 30.9355H47.1035V44.1936H60.3616V30.9355ZM55.9422 39.7742H51.5229V35.3548H55.9422V39.7742Z" fill="#B83333"/>
<path d="M25.0061 30.9355H11.748V44.1936H25.0061V30.9355ZM20.5868 39.7742H16.1674V35.3548H20.5868V39.7742Z" fill="#B83333"/>
<path d="M42.6838 48.6129H29.4258V61.871H42.6838V48.6129ZM38.2645 57.4516H33.8451V53.0323H38.2645V57.4516Z" fill="#B83333"/>
<path d="M60.3616 48.6129H47.1035V61.871H60.3616V48.6129ZM55.9422 57.4516H51.5229V53.0323H55.9422V57.4516Z" fill="#B83333"/>
<path d="M25.0061 48.6129H11.748V61.871H25.0061V48.6129ZM20.5868 57.4516H16.1674V53.0323H20.5868V57.4516Z" fill="#B83333"/>
<path d="M42.6838 66.2903H29.4258V79.5483H42.6838V66.2903ZM38.2645 75.129H33.8451V70.7096H38.2645V75.129Z" fill="#B83333"/>
<path d="M60.3616 66.2903H47.1035V79.5483H60.3616V66.2903ZM55.9422 75.129H51.5229V70.7096H55.9422V75.129Z" fill="#B83333"/>
<path d="M11.748 79.5483H25.0061V66.2903H11.748V79.5483ZM16.1674 70.7096H20.5868V75.129H16.1674V70.7096Z" fill="#B83333"/>
<path d="M29.4258 97.2258H42.6838V83.9678H29.4258V97.2258ZM33.8451 88.3871H38.2645V92.8065H33.8451V88.3871Z" fill="#B83333"/>
<path d="M47.1035 97.2258H60.3616V83.9678H47.1035V97.2258ZM51.5229 88.3871H55.9422V92.8065H51.5229V88.3871Z" fill="#B83333"/>
<path d="M84.668 101.645H97.926V88.3871H84.668V101.645ZM89.0873 92.8064H93.5067V97.2258H89.0873V92.8064Z" fill="#B83333"/>
<path d="M5.11955 26.5161H66.9905V37.5645H71.4099V22.0967H0.700195V95.0161H5.11955V26.5161Z" fill="black"/>
<path d="M11.7485 13.2581H60.3614V17.6774H64.7807V8.83871H60.3614V0H11.7485V8.83871H7.3291V17.6774H11.7485V13.2581ZM16.1678 4.41935H55.942V8.83871H16.1678V4.41935Z" fill="black"/>
</svg>
