<svg width="100" height="99" viewBox="0 0 100 99" fill="none" xmlns="http://www.w3.org/2000/svg">
<path d="M97.4766 43.7675C97.1204 43.4123 96.6264 43.208 96.1228 43.208C95.6192 43.208 95.1252 43.4123 94.769 43.7675C94.4129 44.1226 94.208 44.6133 94.208 45.1174C94.208 45.6196 94.4129 46.1122 94.769 46.4674C95.1252 46.8225 95.6192 47.0269 96.1228 47.0269C96.6264 47.0269 97.1204 46.8225 97.4766 46.4674C97.8327 46.1122 98.0376 45.6196 98.0376 45.1174C98.0376 44.6153 97.8327 44.1226 97.4766 43.7675Z" fill="#081121"/>
<path d="M50.3745 21.809C50.0164 21.4538 49.5243 21.2495 49.0188 21.2495C48.5152 21.2495 48.0212 21.4538 47.665 21.809C47.3089 22.1641 47.104 22.6568 47.104 23.1589C47.104 23.6611 47.3089 24.1537 47.665 24.5089C48.0212 24.8641 48.5152 25.0684 49.0188 25.0684C49.5243 25.0684 50.0164 24.8641 50.3745 24.5089C50.7306 24.1537 50.9355 23.6611 50.9355 23.1589C50.9355 22.6568 50.7306 22.1641 50.3745 21.809Z" fill="#081121"/>
<path d="M70.8525 52.1691C70.1048 51.4235 68.8924 51.4235 68.1446 52.1691L60.1111 60.1801C59.3634 60.9258 59.3634 62.1348 60.1111 62.8807C60.485 63.2536 60.975 63.4399 61.465 63.4399C61.955 63.4399 62.4452 63.2536 62.819 62.8807L70.8525 54.8696C71.6003 54.124 71.6003 52.9149 70.8525 52.1691Z" fill="#081121"/>
<path d="M43.6198 37.8479C42.8723 37.1021 41.6598 37.1021 40.9121 37.8479L18.5593 60.1381C17.8116 60.8838 17.8116 62.0928 18.5593 62.8387C18.9333 63.2116 19.4233 63.3979 19.9133 63.3979C20.4033 63.3979 20.8935 63.2116 21.2672 62.8387L43.6198 40.5485C44.3675 39.8028 44.3675 38.5938 43.6198 37.8479Z" fill="#081121"/>
<path d="M91.1808 5.30978C91.1311 5.26395 91.0786 5.22003 91.0229 5.17879C90.9671 5.13754 90.9101 5.10031 90.8517 5.06594C87.1829 2.39652 82.6673 0.818359 77.7884 0.818359C72.906 0.818359 68.3875 2.39862 64.7174 5.07148C64.6529 5.10986 64.5893 5.1511 64.5282 5.19807C64.4853 5.23092 64.4455 5.26605 64.4063 5.30176C59.0464 9.34922 55.5768 15.7619 55.5768 22.968C55.5768 24.3591 55.7073 25.7201 55.9545 27.0409C55.9588 27.064 55.9628 27.0869 55.9678 27.1098C56.6958 30.9314 58.411 34.4079 60.8386 37.2654L44.7922 53.267C44.0445 54.0127 44.0445 55.2217 44.7922 55.9676C45.1662 56.3405 45.6562 56.5269 46.1462 56.5269C46.6362 56.5269 47.1264 56.3405 47.5001 55.9676L63.5544 39.9581C67.4121 43.1769 72.377 45.1177 77.7884 45.1177C88.6165 45.1177 97.6584 37.3502 99.609 27.1098C99.614 27.0871 99.618 27.064 99.6222 27.0409C99.8694 25.7201 100 24.3591 100 22.968C100 15.7665 96.535 9.35763 91.1808 5.30978ZM77.7884 4.63727C81.2005 4.63727 84.3979 5.57023 87.1393 7.19231L82.3753 13.5926C82.3668 13.6041 82.36 13.6161 82.3519 13.6277H73.4366C73.4223 13.6077 73.4098 13.5869 73.3947 13.5672L68.4672 7.17493C71.2019 5.56354 74.3885 4.63727 77.7884 4.63727ZM59.4063 22.968C59.4063 17.621 61.7146 12.8017 65.3889 9.44775L70.1451 15.6178L67.1567 24.7894H59.4969C59.4374 24.1903 59.4063 23.5827 59.4063 22.968ZM75.8736 41.1997C68.555 40.4409 62.4997 35.382 60.2979 28.6084H68.7216C68.7574 28.6084 68.7923 28.6049 68.8277 28.603L75.8736 33.7079V41.1997ZM70.9727 25.4368L73.576 17.4466H82.0007V17.4465L84.6041 25.4366L77.7884 30.3748L70.9727 25.4368ZM79.7032 41.1997V33.7079L86.749 28.603C86.7843 28.6049 86.8193 28.6084 86.8551 28.6084H95.2789C93.0771 35.382 87.0217 40.4407 79.7032 41.1997ZM96.0798 24.7894H88.4201L85.4943 15.8099L90.2127 9.47086C93.8725 12.8239 96.1704 17.633 96.1704 22.968C96.1704 23.5827 96.1394 24.1903 96.0798 24.7894Z" fill="#081121"/>
<path d="M96.1227 51.4188C95.0652 51.4188 94.2079 52.2736 94.2079 53.3282V75.8597C94.2079 76.9125 93.349 77.7691 92.2932 77.7691H5.74439C4.68857 77.7691 3.82959 76.9125 3.82959 75.8597V26.9778C3.82959 25.925 4.68857 25.0684 5.74439 25.0684H39.2499C40.3074 25.0684 41.1647 24.2135 41.1647 23.159C41.1647 22.1044 40.3074 21.2495 39.2499 21.2495H5.74439C2.57693 21.2495 0 23.8192 0 26.9778V75.8597C0 79.0183 2.57693 81.588 5.74439 81.588H41.7425V86.9344H35.2322C32.0648 86.9344 29.4879 89.5042 29.4879 92.6628V96.4817C29.4879 97.5363 30.3451 98.3911 31.4026 98.3911H66.6349C67.6924 98.3911 68.5497 97.5363 68.5497 96.4817V92.6628C68.5497 89.5042 65.9728 86.9344 62.8053 86.9344H56.295V81.588H92.2932C95.4606 81.588 98.0375 79.0183 98.0375 75.8597V53.3282C98.0375 52.2736 97.1803 51.4188 96.1227 51.4188ZM45.5721 81.588H52.4654V86.9344H45.5721V81.588ZM62.8053 90.7533C63.8611 90.7533 64.7201 91.6099 64.7201 92.6628V94.5722H33.3174V92.6628C33.3174 91.6099 34.1764 90.7533 35.2322 90.7533H62.8053Z" fill="#081121"/>
</svg>
