<svg width="90" height="73" viewBox="0 0 90 73" fill="none" xmlns="http://www.w3.org/2000/svg">
<path d="M88.5 0.740234H1.5C0.6705 0.740234 0 1.40886 0 2.23604V59.0768C0 59.904 0.6705 60.5726 1.5 60.5726H40.5V65.06H33V72.5391H57V65.06H49.5V60.5726H88.5C89.3295 60.5726 90 59.904 90 59.0768V2.23604C90 1.40886 89.3295 0.740234 88.5 0.740234ZM54 68.0516V69.5474H36V68.0516H43.5V60.5726H46.5V68.0516H54ZM87 57.581H49.5H40.5H3V3.73185H87V57.581Z" fill="black"/>
<path d="M82.5 42.623H63.561L63.4335 42.5108C62.904 42.0441 62.3385 41.6567 61.746 41.3516L54.8145 36.8806L54.6705 36.7983C54.1455 36.5365 53.5635 36.4154 53.0505 36.3077C52.887 36.2748 52.674 36.2284 52.5 36.1835V34.236C52.5675 34.1911 52.638 34.1417 52.71 34.0924C53.7255 33.3953 54.201 33.0468 54.4875 32.6444C55.527 31.177 56.568 29.5974 57.2325 27.9012C58.674 27.243 60.0015 25.9716 60.0015 24.3576V20.9995C60.0015 20.3817 59.7585 19.7789 59.2815 19.2105C58.926 18.7856 58.5015 18.0976 58.5015 17.236V15.6594C58.4055 12.0515 55.7745 5.22754 46.5 5.22754C37.2255 5.22754 34.5945 12.0515 34.5 15.6983V17.2345C34.5 18.0961 34.077 18.7841 33.7215 19.2075C33.243 19.7789 33 20.3817 33 20.9995V24.3576C33 25.7995 34.1895 26.8212 35.0295 27.409C36.0285 30.4246 39.0525 32.6668 40.5 33.5987V35.5837C40.1085 35.9636 38.9115 36.5305 38.376 36.7848C38.046 36.9419 37.755 37.081 37.506 37.2171L30.4785 41.2858C29.8845 41.6088 29.313 42.0277 28.7805 42.5273L28.6785 42.623H21V53.0938H82.5V42.623ZM38.9775 39.8243C39.153 39.7286 39.393 39.6149 39.6645 39.4863C41.373 38.6755 43.5 37.6674 43.5 35.8245V31.8681L42.7185 31.4433C41.538 30.8016 38.3505 28.5982 37.785 26.1376L37.6485 25.5452L37.137 25.2147C36.21 24.6178 36.036 24.3112 36 24.3576V21.155C36.006 21.149 36.0135 21.1401 36.024 21.1251C36.975 19.9898 37.5 18.6061 37.5 17.2345V15.7372C37.5075 15.4305 37.7985 8.21918 46.5 8.21918C54.984 8.21918 55.473 14.9743 55.5 15.6983V17.2345C55.5 18.5882 56.01 19.9509 57 21.164L57.0015 24.3366C56.952 24.549 56.3445 25.0995 55.608 25.3239L54.8625 25.5527L54.6225 26.2947C54.114 27.8698 53.0805 29.4449 52.113 30.821C51.9585 30.9736 51.339 31.3984 51.0075 31.6273C50.3715 32.064 50.082 32.2675 49.8735 32.5023L49.5 32.9286V36.6397C49.5 38.6217 51.4815 39.036 52.434 39.235C52.7385 39.2978 53.0805 39.3696 53.274 39.4489L58.194 42.623H34.1415L38.9775 39.8243ZM79.5 50.1021H24V45.6147H30.1035H62.172H79.5V50.1021Z" fill="black"/>
<path d="M82.5 6.72363H73.5V15.6982H82.5V6.72363ZM79.5 12.7067H76.5V9.71517H79.5V12.7067Z" fill="black"/>
<path d="M18 42.623H7.5V53.0938H18V42.623ZM15 50.1021H10.5V45.6147H15V50.1021Z" fill="black"/>
</svg>
