<svg width="90" height="82" viewBox="0 0 90 82" fill="none" xmlns="http://www.w3.org/2000/svg">
<path d="M88.2422 0.762207H37.4999C36.5291 0.762207 35.7421 1.54699 35.7421 2.51513C35.7421 3.48326 36.5291 4.26804 37.4999 4.26804H86.4844V18.6159L54.4208 50.5898C53.7344 51.2743 53.7344 52.3843 54.4208 53.069C54.7641 53.4111 55.2139 53.5824 55.6638 53.5824C56.1136 53.5824 56.5636 53.4111 56.9067 53.069L86.4844 23.5738V61.0626H3.51562V4.26804H22.3242C23.2951 4.26804 24.082 3.48326 24.082 2.51513C24.082 1.54699 23.2951 0.762207 22.3242 0.762207H1.75781C0.786973 0.762207 0 1.54699 0 2.51513V62.8155C0 63.7837 0.786973 64.5685 1.75781 64.5685H31.9922V70.5284H21.7969C20.826 70.5284 20.0391 71.3132 20.0391 72.2813V77.5401H10.0466C9.07576 77.5401 8.28879 78.3248 8.28879 79.293C8.28879 80.2611 9.07576 81.0459 10.0466 81.0459H73.6599C74.6307 81.0459 75.4177 80.2611 75.4177 79.293C75.4177 78.3248 74.6307 77.5401 73.6599 77.5401H69.9609V72.2813C69.9609 71.3132 69.174 70.5284 68.2031 70.5284H58.0078V64.5685H88.2422C89.213 64.5685 90 63.7837 90 62.8155V2.51513C90 1.54699 89.213 0.762207 88.2422 0.762207ZM35.5078 64.5685H54.4922V70.5284H35.5078V64.5685ZM66.4453 74.0342V77.5401H23.5547V74.0342H33.75H56.25H66.4453Z" fill="black"/>
<path d="M73.6646 51.5844C73.3377 51.2584 72.8842 51.0708 72.4219 51.0708C71.9578 51.0708 71.5061 51.2584 71.1791 51.5844C70.8504 51.9105 70.6641 52.3627 70.6641 52.8237C70.6641 53.2848 70.8504 53.737 71.1791 54.0631C71.5043 54.3891 71.9578 54.5767 72.4219 54.5767C72.8842 54.5767 73.3377 54.3891 73.6646 54.0631C73.9916 53.737 74.1797 53.2848 74.1797 52.8237C74.1797 52.3627 73.9916 51.9105 73.6646 51.5844Z" fill="black"/>
<path d="M16.0084 32.1274C15.6814 31.8013 15.2279 31.6138 14.7656 31.6138C14.3033 31.6138 13.8498 31.8013 13.5229 32.1274C13.1959 32.4534 13.0078 32.9039 13.0078 33.3667C13.0078 33.8277 13.1959 34.28 13.5229 34.606C13.8498 34.9321 14.3033 35.1196 14.7656 35.1196C15.2279 35.1196 15.6814 34.9321 16.0084 34.606C16.3354 34.28 16.5234 33.8277 16.5234 33.3667C16.5234 32.9057 16.3354 32.4534 16.0084 32.1274Z" fill="black"/>
<path d="M25.5898 7.93672C24.9034 7.25204 23.7906 7.25239 23.1038 7.93672L7.54607 23.4508C6.85964 24.1353 6.85964 25.2453 7.54607 25.9299C7.88937 26.2723 8.3392 26.4434 8.78902 26.4434C9.23884 26.4434 9.68884 26.2721 10.032 25.9299L25.5898 10.4158C26.2763 9.73115 26.2765 8.62122 25.5898 7.93672Z" fill="black"/>
<path d="M55.0484 16.9795C54.1275 16.6736 53.1319 17.1695 52.825 18.0882L49.5708 27.8245L46.3165 18.0882C46.0096 17.1699 45.0138 16.6736 44.0931 16.9795C43.1722 17.2856 42.6743 18.2783 42.9813 19.1968L47.9031 33.9224C48.1424 34.6383 48.8142 35.1211 49.5708 35.1211C50.3273 35.1211 50.9992 34.6383 51.2384 33.9224L56.1603 19.1968C56.4673 18.2783 55.9695 17.2856 55.0484 16.9795Z" fill="black"/>
<path d="M37.793 16.8892H27.9492C26.9784 16.8892 26.1914 17.6739 26.1914 18.6421C26.1914 19.6102 26.9784 20.395 27.9492 20.395H31.1133V33.3677C31.1133 34.3358 31.9003 35.1206 32.8711 35.1206C33.8419 35.1206 34.6289 34.3358 34.6289 33.3677V20.395H37.793C38.7638 20.395 39.5508 19.6102 39.5508 18.6421C39.5508 17.6739 38.7638 16.8892 37.793 16.8892Z" fill="black"/>
</svg>
