<svg width="39" height="35" viewBox="0 0 39 35" fill="none" xmlns="http://www.w3.org/2000/svg">
<path d="M29.0958 0.141357H12.4487C11.0576 0.141357 9.92578 1.27317 9.92578 2.66464V32.4584C9.92578 33.8497 11.0576 34.9815 12.4487 34.9815H29.0959C30.4871 34.9815 31.6189 33.8497 31.6189 32.4583V2.66464C31.6187 1.27317 30.4869 0.141357 29.0958 0.141357ZM30.304 32.4583C30.304 33.1247 29.7622 33.6668 29.0958 33.6668H12.4487C11.7823 33.6668 11.2405 33.1247 11.2405 32.4583V2.66464C11.2405 1.99824 11.7823 1.45608 12.4487 1.45608H29.0959C29.7623 1.45608 30.3042 1.99824 30.3042 2.66464V32.4583H30.304Z" fill="black"/>
<path d="M23.0728 21.8344H24.3875C24.7509 21.8344 25.0449 21.54 25.0449 21.177C25.0449 20.814 24.7509 20.5197 24.3875 20.5197H23.0728C21.6227 20.5197 20.4434 21.6993 20.4434 23.1491C20.4434 24.5989 21.6227 25.7785 23.0728 25.7785H24.3875C24.7509 25.7785 25.0449 25.4842 25.0449 25.1212V23.1491C25.0449 22.7861 24.7509 22.4917 24.3875 22.4917H23.7302C23.3668 22.4917 23.0728 22.7861 23.0728 23.1491C23.0728 23.5121 23.3668 23.8065 23.7302 23.8065V24.4638H23.0728C22.3481 24.4638 21.7581 23.8742 21.7581 23.1491C21.7581 22.424 22.3481 21.8344 23.0728 21.8344Z" fill="#FECA26"/>
<path d="M4.00941 11.9738C4.37277 11.9738 4.66677 11.6795 4.66677 11.3164V10.0017C4.66677 9.63869 4.37277 9.34436 4.00941 9.34436C3.64606 9.34436 3.35205 9.63869 3.35205 10.0017V11.3164C3.35205 11.6795 3.64606 11.9738 4.00941 11.9738Z" fill="#FECA26"/>
<path d="M4.00941 13.2886C3.64606 13.2886 3.35205 13.5829 3.35205 13.9459V15.2607C3.35205 15.6237 3.64606 15.918 4.00941 15.918C4.37277 15.918 4.66677 15.6237 4.66677 15.2607V13.9459C4.66677 13.5829 4.37277 13.2886 4.00941 13.2886Z" fill="#FECA26"/>
<path d="M2.69474 11.9739H1.38002C1.01666 11.9739 0.722656 12.2682 0.722656 12.6312C0.722656 12.9943 1.01666 13.2886 1.38002 13.2886H2.69474C3.0581 13.2886 3.3521 12.9943 3.3521 12.6312C3.3521 12.2682 3.0581 11.9739 2.69474 11.9739Z" fill="#FECA26"/>
<path d="M7.29644 12.6312C7.29644 12.2682 7.00244 11.9739 6.63908 11.9739H5.32435C4.961 11.9739 4.66699 12.2682 4.66699 12.6312C4.66699 12.9943 4.961 13.2886 5.32435 13.2886H6.63908C7.00244 13.2886 7.29644 12.9943 7.29644 12.6312Z" fill="#FECA26"/>
<path d="M6.97486 23.8354C6.58668 23.8354 6.27197 24.1502 6.27197 24.5382C6.27197 24.9262 6.58668 25.2409 6.97486 25.2409C7.36303 25.2409 7.67758 24.9262 7.67758 24.5382C7.67758 24.1502 7.36303 23.8354 6.97486 23.8354Z" fill="#FECA26"/>
<path d="M34.6297 23.2236C34.6297 22.8354 34.315 22.5209 33.927 22.5209C33.539 22.5209 33.2241 22.8356 33.2241 23.2236C33.2241 23.6116 33.5388 23.9263 33.927 23.9263C34.3152 23.9263 34.6297 23.6118 34.6297 23.2236Z" fill="#FECA26"/>
<path d="M19.1286 3.42813H22.4154C22.7787 3.42813 23.0727 3.13379 23.0727 2.77077C23.0727 2.40774 22.7787 2.1134 22.4154 2.1134H19.1286C18.7652 2.1134 18.4712 2.40774 18.4712 2.77077C18.4712 3.13379 18.7652 3.42813 19.1286 3.42813Z" fill="black"/>
<path d="M35.8916 30.38C34.623 30.38 33.5908 31.4122 33.5908 32.6808C33.5908 33.9493 34.623 34.9815 35.8916 34.9815C37.1601 34.9815 38.1924 33.9493 38.1924 32.6808C38.1924 31.4122 37.1601 30.38 35.8916 30.38ZM35.8916 33.6668C35.3478 33.6668 34.9055 33.2246 34.9055 32.6808C34.9055 32.137 35.3478 31.6947 35.8916 31.6947C36.4354 31.6947 36.8776 32.137 36.8776 32.6808C36.8776 33.2246 36.4354 33.6668 35.8916 33.6668Z" fill="#FECA26"/>
<path d="M18.0021 19.2048H16.4992C16.1358 19.2048 15.8418 19.4992 15.8418 19.8622C15.8418 20.2252 16.1358 20.5196 16.4992 20.5196H18.0021C18.2607 20.5196 18.4712 20.7301 18.4712 20.9891V21.3646C18.4712 21.6236 18.2607 21.8341 18.0021 21.8341H17.1565C16.7932 21.8341 16.4992 22.1285 16.4992 22.4915C16.4992 22.8545 16.7932 23.1488 17.1565 23.1488H18.0021C18.2607 23.1488 18.4712 23.3594 18.4712 23.6184V23.9939C18.4712 24.2529 18.2607 24.4634 18.0021 24.4634H16.654C16.2906 24.4634 15.9966 24.7577 15.9966 25.1208C15.9966 25.4838 16.2906 25.7781 16.654 25.7781H18.0021C18.9855 25.7781 19.786 24.9776 19.786 23.9939V23.6184C19.786 23.1889 19.6272 22.7996 19.3735 22.4915C19.6272 22.1832 19.786 21.794 19.786 21.3646V20.9891C19.786 20.0053 18.9855 19.2048 18.0021 19.2048Z" fill="#FECA26"/>
<path d="M18.4713 15.2607C18.8347 15.2607 19.1287 14.9664 19.1287 14.6033V12.6312C19.1287 12.2682 18.8347 11.9739 18.4713 11.9739C18.108 11.9739 17.814 12.2682 17.814 12.6312V14.6033C17.814 14.9664 18.108 15.2607 18.4713 15.2607Z" fill="black"/>
<path d="M21.1009 14.6034V10.6592C21.1009 10.2962 20.8069 10.0018 20.4435 10.0018C20.0801 10.0018 19.7861 10.2962 19.7861 10.6592V14.6034C19.7861 14.9664 20.0801 15.2607 20.4435 15.2607C20.8069 15.2607 21.1009 14.9664 21.1009 14.6034Z" fill="black"/>
<path d="M22.4157 8.68701C22.0523 8.68701 21.7583 8.98135 21.7583 9.34437V14.6033C21.7583 14.9663 22.0523 15.2606 22.4157 15.2606C22.779 15.2606 23.073 14.9663 23.073 14.6033V9.34437C23.073 8.98135 22.779 8.68701 22.4157 8.68701Z" fill="black"/>
<path d="M24.3873 6.71497C24.024 6.71497 23.73 7.0093 23.73 7.37233V14.6033C23.73 14.9663 24.024 15.2607 24.3873 15.2607C24.7507 15.2607 25.0447 14.9663 25.0447 14.6033V7.37233C25.0447 7.0093 24.7507 6.71497 24.3873 6.71497Z" fill="black"/>
<path d="M16.4992 15.2607C16.8625 15.2607 17.1565 14.9663 17.1565 14.6033V13.9459C17.1565 13.5829 16.8625 13.2886 16.4992 13.2886C16.1358 13.2886 15.8418 13.5829 15.8418 13.9459V14.6033C15.8418 14.9663 16.1358 15.2607 16.4992 15.2607Z" fill="black"/>
</svg>
