<svg width="39" height="41" viewBox="0 0 39 41" fill="none" xmlns="http://www.w3.org/2000/svg">
<path d="M29.0958 5.43909H12.4487C11.0576 5.43909 9.92578 6.5709 9.92578 7.96237V37.7562C9.92578 39.1475 11.0576 40.2793 12.4487 40.2793H29.0959C30.4871 40.2793 31.6189 39.1475 31.6189 37.756V7.96237C31.6187 6.5709 30.4869 5.43909 29.0958 5.43909ZM30.304 37.756C30.304 38.4224 29.7622 38.9646 29.0958 38.9646H12.4487C11.7823 38.9646 11.2405 38.4224 11.2405 37.756V7.96237C11.2405 7.29597 11.7823 6.75381 12.4487 6.75381H29.0959C29.7623 6.75381 30.3042 7.29597 30.3042 7.96237V37.756H30.304Z" fill="black"/>
<path d="M23.0728 27.132H24.3875C24.7509 27.132 25.0449 26.8377 25.0449 26.4746C25.0449 26.1116 24.7509 25.8173 24.3875 25.8173H23.0728C21.6227 25.8173 20.4434 26.9969 20.4434 28.4467C20.4434 29.8965 21.6227 31.0762 23.0728 31.0762H24.3875C24.7509 31.0762 25.0449 30.7818 25.0449 30.4188V28.4467C25.0449 28.0837 24.7509 27.7893 24.3875 27.7893H23.7302C23.3668 27.7893 23.0728 28.0837 23.0728 28.4467C23.0728 28.8097 23.3668 29.1041 23.7302 29.1041V29.7614H23.0728C22.3481 29.7614 21.7581 29.1718 21.7581 28.4467C21.7581 27.7216 22.3481 27.132 23.0728 27.132Z" fill="#7700FF"/>
<path d="M4.00941 17.2715C4.37277 17.2715 4.66678 16.9772 4.66678 16.6142V15.2995C4.66678 14.9364 4.37277 14.6421 4.00941 14.6421C3.64606 14.6421 3.35205 14.9364 3.35205 15.2995V16.6142C3.35205 16.9772 3.64606 17.2715 4.00941 17.2715Z" fill="#7700FF"/>
<path d="M4.00941 18.5863C3.64606 18.5863 3.35205 18.8806 3.35205 19.2437V20.5584C3.35205 20.9214 3.64606 21.2158 4.00941 21.2158C4.37277 21.2158 4.66678 20.9214 4.66678 20.5584V19.2437C4.66678 18.8806 4.37277 18.5863 4.00941 18.5863Z" fill="#7700FF"/>
<path d="M2.69474 17.2716H1.38002C1.01666 17.2716 0.722656 17.5659 0.722656 17.929C0.722656 18.292 1.01666 18.5863 1.38002 18.5863H2.69474C3.0581 18.5863 3.35211 18.292 3.35211 17.929C3.35211 17.5659 3.0581 17.2716 2.69474 17.2716Z" fill="#7700FF"/>
<path d="M7.29644 17.929C7.29644 17.5659 7.00244 17.2716 6.63908 17.2716H5.32435C4.961 17.2716 4.66699 17.5659 4.66699 17.929C4.66699 18.292 4.961 18.5863 5.32435 18.5863H6.63908C7.00244 18.5863 7.29644 18.292 7.29644 17.929Z" fill="#7700FF"/>
<path d="M6.97486 29.1332C6.58668 29.1332 6.27197 29.4479 6.27197 29.8359C6.27197 30.2239 6.58668 30.5386 6.97486 30.5386C7.36303 30.5386 7.67758 30.2239 7.67758 29.8359C7.67758 29.4479 7.36303 29.1332 6.97486 29.1332Z" fill="black"/>
<path d="M34.6297 28.5213C34.6297 28.1332 34.315 27.8186 33.927 27.8186C33.539 27.8186 33.2241 28.1333 33.2241 28.5213C33.2241 28.9093 33.5388 29.224 33.927 29.224C34.3152 29.224 34.6297 28.9095 34.6297 28.5213Z" fill="black"/>
<path d="M19.1286 8.72586H22.4154C22.7787 8.72586 23.0727 8.43152 23.0727 8.0685C23.0727 7.70547 22.7787 7.41113 22.4154 7.41113H19.1286C18.7652 7.41113 18.4712 7.70547 18.4712 8.0685C18.4712 8.43152 18.7652 8.72586 19.1286 8.72586Z" fill="black"/>
<path d="M35.8916 35.6776C34.623 35.6776 33.5908 36.7098 33.5908 37.9784C33.5908 39.2469 34.623 40.2791 35.8916 40.2791C37.1601 40.2791 38.1924 39.2469 38.1924 37.9784C38.1924 36.7098 37.1601 35.6776 35.8916 35.6776ZM35.8916 38.9644C35.3478 38.9644 34.9055 38.5222 34.9055 37.9784C34.9055 37.4346 35.3478 36.9923 35.8916 36.9923C36.4354 36.9923 36.8776 37.4346 36.8776 37.9784C36.8776 38.5222 36.4354 38.9644 35.8916 38.9644Z" fill="#7700FF"/>
<path d="M28.9894 4.12435C29.3528 4.12435 29.6468 3.83001 29.6468 3.46699V0.837538C29.6468 0.47451 29.3528 0.180176 28.9894 0.180176C28.626 0.180176 28.332 0.47451 28.332 0.837538V3.46699C28.332 3.83001 28.626 4.12435 28.9894 4.12435Z" fill="#7700FF"/>
<path d="M34.0554 3.00222C33.7987 2.74552 33.3826 2.74552 33.1259 3.00222L31.8112 4.31694C31.5545 4.57364 31.5545 4.98975 31.8112 5.24645C31.9395 5.3748 32.1078 5.43906 32.2759 5.43906C32.4441 5.43906 32.6123 5.3748 32.7407 5.24645L34.0554 3.93173C34.3123 3.67503 34.3123 3.25892 34.0554 3.00222Z" fill="#7700FF"/>
<path d="M36.2204 8.72586C36.5838 8.72586 36.8778 8.43152 36.8778 8.0685C36.8778 7.70547 36.5838 7.41113 36.2204 7.41113H33.591C33.2276 7.41113 32.9336 7.70547 32.9336 8.0685C32.9336 8.43152 33.2276 8.72586 33.591 8.72586H36.2204Z" fill="#7700FF"/>
<path d="M19.1291 25.8173C18.7657 25.8173 18.4717 26.1116 18.4717 26.4747V27.132H17.157V25.1599C17.157 24.7969 16.863 24.5026 16.4996 24.5026C16.1363 24.5026 15.8423 24.7969 15.8423 25.1599V27.7894C15.8423 28.1524 16.1363 28.4467 16.4996 28.4467H18.4717V30.4188C18.4717 30.7819 18.7657 31.0762 19.1291 31.0762C19.4925 31.0762 19.7865 30.7819 19.7865 30.4188V26.4747C19.7865 26.1116 19.4925 25.8173 19.1291 25.8173Z" fill="#7700FF"/>
<path d="M18.4708 20.5584C18.8342 20.5584 19.1282 20.2641 19.1282 19.9011V17.929C19.1282 17.5659 18.8342 17.2716 18.4708 17.2716C18.1075 17.2716 17.8135 17.5659 17.8135 17.929V19.9011C17.8135 20.2641 18.1075 20.5584 18.4708 20.5584Z" fill="black"/>
<path d="M21.1009 19.901V15.9568C21.1009 15.5938 20.8069 15.2994 20.4435 15.2994C20.0801 15.2994 19.7861 15.5938 19.7861 15.9568V19.901C19.7861 20.264 20.0801 20.5583 20.4435 20.5583C20.8069 20.5583 21.1009 20.264 21.1009 19.901Z" fill="black"/>
<path d="M22.4157 13.9847C22.0523 13.9847 21.7583 14.2791 21.7583 14.6421V19.901C21.7583 20.264 22.0523 20.5584 22.4157 20.5584C22.779 20.5584 23.073 20.264 23.073 19.901V14.6421C23.073 14.2791 22.779 13.9847 22.4157 13.9847Z" fill="black"/>
<path d="M24.3873 12.0126C24.024 12.0126 23.73 12.3069 23.73 12.6699V19.9009C23.73 20.2639 24.024 20.5583 24.3873 20.5583C24.7507 20.5583 25.0447 20.2639 25.0447 19.9009V12.6699C25.0447 12.3069 24.7507 12.0126 24.3873 12.0126Z" fill="black"/>
<path d="M16.4996 20.5584C16.863 20.5584 17.157 20.2641 17.157 19.901V19.2437C17.157 18.8806 16.863 18.5863 16.4996 18.5863C16.1363 18.5863 15.8423 18.8806 15.8423 19.2437V19.901C15.8423 20.2641 16.1363 20.5584 16.4996 20.5584Z" fill="black"/>
</svg>
