<svg width="20" height="35" viewBox="0 0 20 35" fill="none" xmlns="http://www.w3.org/2000/svg">
<path d="M19.457 15.6932L4.30738 0.543854C3.95699 0.193186 3.48925 0 2.99051 0C2.49177 0 2.02402 0.193186 1.67363 0.543854L0.55797 1.65924C-0.168 2.38604 -0.168 3.5673 0.55797 4.29299L13.2795 17.0145L0.543854 29.7501C0.193463 30.1007 0 30.5682 0 31.0667C0 31.5657 0.193463 32.0332 0.543854 32.3841L1.65952 33.4992C2.01018 33.8499 2.47765 34.0431 2.97639 34.0431C3.47513 34.0431 3.94287 33.8499 4.29327 33.4992L19.457 18.3361C19.8082 17.9843 20.0011 17.5146 20 17.0153C20.0011 16.5141 19.8082 16.0447 19.457 15.6932Z" fill="white"/>
</svg>
