<svg width="100" height="108" viewBox="0 0 100 108" fill="none" xmlns="http://www.w3.org/2000/svg">
<path d="M79.1459 35.0337L50.055 16.8518C49.4655 16.4841 48.7164 16.4841 48.1268 16.8518L19.0359 35.0337C18.505 35.3664 18.1818 35.9491 18.1818 36.5759V49.6587L0.854092 60.4887C0.323183 60.8214 0 61.4041 0 62.0309V105.667C0 106.671 0.813182 107.485 1.81818 107.485H60C61.005 107.485 61.8182 106.671 61.8182 105.667V82.0309H78.1818C79.1868 82.0309 80 81.2168 80 80.2128V36.5764C80 35.9487 79.6768 35.3664 79.1459 35.0337ZM58.1818 103.848H3.63636V63.0378L30.9091 45.9923L58.1818 63.0378V103.848ZM76.3636 78.3937H61.8182V62.03C61.8182 61.4032 61.495 60.8209 60.9641 60.4878L31.8732 42.3059C31.2836 41.9382 30.5345 41.9382 29.945 42.3059L21.8182 47.3855V37.5832L49.0909 20.5378L76.3636 37.5832V78.3937Z" fill="white"/>
<path d="M69.929 3.63636H69.9326C74.7158 3.63636 79.2135 5.5 82.5976 8.88318C85.9817 12.2664 87.8444 16.7659 87.8444 21.5509C87.8444 22.555 88.6576 23.3691 89.6626 23.3691C90.6676 23.3691 91.4808 22.555 91.4808 21.5509C91.4808 15.7945 89.2399 10.3827 85.1685 6.31227C81.099 2.24182 75.6872 0 69.9322 0C69.9303 0 69.9285 0 69.9285 0C68.9235 0 68.1104 0.81409 68.1104 1.81818C68.1104 2.82227 68.9258 3.63636 69.929 3.63636Z" fill="white"/>
<path d="M69.929 7.04456C68.924 7.04456 68.1108 7.85865 68.1108 8.86274C68.1108 9.86683 68.924 10.6809 69.929 10.6809C72.834 10.6809 75.5631 11.8118 77.6154 13.8646C79.6677 15.9173 80.799 18.6468 80.799 21.5509C80.799 22.555 81.6122 23.3691 82.6172 23.3691C83.6222 23.3691 84.4354 22.555 84.4354 21.5509C84.4354 17.675 82.9263 14.0323 80.1863 11.2936C77.4486 8.55365 73.8049 7.04456 69.929 7.04456Z" fill="white"/>
<path d="M72.4999 18.9795C73.1872 19.6668 73.5654 20.58 73.5654 21.5504C73.5654 22.5545 74.3786 23.3686 75.3836 23.3686C76.3886 23.3686 77.2017 22.5545 77.2017 21.5504C77.2017 19.6082 76.4454 17.7818 75.0708 16.4086C73.6968 15.0345 71.8713 14.2777 69.929 14.2777C68.924 14.2777 68.1108 15.0918 68.1108 16.0959C68.1108 17.1 68.924 17.9141 69.929 17.9141C70.8999 17.9145 71.8127 18.2927 72.4999 18.9795Z" fill="white"/>
<path d="M9.09113 25.6664C10.0961 25.6664 10.9093 24.8523 10.9093 23.8482V20.2119C10.9093 19.2078 10.0961 18.3937 9.09113 18.3937C8.08613 18.3937 7.27295 19.2078 7.27295 20.2119V23.8482C7.27295 24.8523 8.08613 25.6664 9.09113 25.6664Z" fill="white"/>
<path d="M9.09113 29.3027C8.08613 29.3027 7.27295 30.1168 7.27295 31.1209V34.7573C7.27295 35.7614 8.08613 36.5755 9.09113 36.5755C10.0961 36.5755 10.9093 35.7614 10.9093 34.7573V31.1209C10.9093 30.1168 10.0961 29.3027 9.09113 29.3027Z" fill="white"/>
<path d="M1.81818 29.3027H5.45455C6.45955 29.3027 7.27273 28.4887 7.27273 27.4846C7.27273 26.4805 6.45955 25.6664 5.45455 25.6664H1.81818C0.813182 25.6664 0 26.4805 0 27.4846C0 28.4887 0.813182 29.3027 1.81818 29.3027Z" fill="white"/>
<path d="M12.7274 29.3027H16.3637C17.3687 29.3027 18.1819 28.4887 18.1819 27.4846C18.1819 26.4805 17.3687 25.6664 16.3637 25.6664H12.7274C11.7224 25.6664 10.9092 26.4805 10.9092 27.4846C10.9092 28.4887 11.7224 29.3027 12.7274 29.3027Z" fill="white"/>
<path d="M31.1473 9.8168C32.2209 9.8168 33.0913 8.94635 33.0913 7.87317C33.0913 6.79999 32.2209 5.92908 31.1473 5.92908C30.0736 5.92908 29.2036 6.79953 29.2036 7.87317C29.2036 8.9468 30.0741 9.8168 31.1473 9.8168Z" fill="white"/>
<path d="M92.9656 96.8382C91.892 96.8382 91.022 97.7086 91.022 98.7823C91.022 99.8559 91.8924 100.726 92.9656 100.726C94.0388 100.726 94.9097 99.8555 94.9097 98.7823C94.9097 97.7091 94.0392 96.8382 92.9656 96.8382Z" fill="white"/>
<path d="M93.6366 63.8482C90.1279 63.8482 87.2729 66.7032 87.2729 70.2118C87.2729 73.7205 90.1279 76.5755 93.6366 76.5755C97.1452 76.5755 100 73.7205 100 70.2118C100 66.7032 97.1452 63.8482 93.6366 63.8482ZM93.6366 72.9391C92.1325 72.9391 90.9093 71.7159 90.9093 70.2118C90.9093 68.7078 92.1325 67.4846 93.6366 67.4846C95.1407 67.4846 96.3639 68.7078 96.3639 70.2118C96.3639 71.7159 95.1407 72.9391 93.6366 72.9391Z" fill="white"/>
<path d="M25.4547 72.9391V76.5755H23.6365C22.6315 76.5755 21.8184 77.3896 21.8184 78.3936V91.1209C21.8184 92.125 22.6315 92.9391 23.6365 92.9391H38.182C39.187 92.9391 40.0002 92.125 40.0002 91.1209V78.3936C40.0002 77.3896 39.187 76.5755 38.182 76.5755H36.3638V72.9391C36.3638 69.9314 33.917 67.4846 30.9093 67.4846C27.9015 67.4846 25.4547 69.9314 25.4547 72.9391ZM36.3638 89.3027H25.4547V80.2118H27.2729H34.5456H36.3638V89.3027ZM32.7274 72.9391V76.5755H29.0911V72.9391C29.0911 71.9368 29.9061 71.1209 30.9093 71.1209C31.9124 71.1209 32.7274 71.9368 32.7274 72.9391Z" fill="white"/>
<path d="M30.909 82.03C29.904 82.03 29.0908 82.8441 29.0908 83.8482V85.6664C29.0908 86.6705 29.904 87.4846 30.909 87.4846C31.914 87.4846 32.7272 86.6705 32.7272 85.6664V83.8482C32.7272 82.8441 31.914 82.03 30.909 82.03Z" fill="white"/>
</svg>
