<svg width="25" height="34" viewBox="0 0 25 34" fill="none" xmlns="http://www.w3.org/2000/svg">
<path d="M12.0513 0C5.4062 0 0 5.4062 0 12.0513C0 20.298 10.7848 32.4048 11.2439 32.9161C11.6752 33.3965 12.4282 33.3956 12.8588 32.9161C13.3179 32.4048 24.1027 20.298 24.1027 12.0513C24.1026 5.4062 18.6964 0 12.0513 0ZM12.0513 18.1146C8.70801 18.1146 5.98808 15.3946 5.98808 12.0513C5.98808 8.70794 8.70807 5.98801 12.0513 5.98801C15.3946 5.98801 18.1146 8.70801 18.1146 12.0513C18.1146 15.3947 15.3946 18.1146 12.0513 18.1146Z" fill="white"/>
</svg>
