<svg width="100" height="100" viewBox="0 0 100 100" fill="none" xmlns="http://www.w3.org/2000/svg">
<circle cx="50" cy="50" r="50" fill="#B83333"/>
<path d="M73.5869 47.4519C73.5869 47.3185 73.5938 27.6473 73.5938 27.6473L44.2969 13L15 27.6484V47.0525C14.9886 59.2038 21.062 70.5541 31.178 77.2866L44.2969 86.0288L54.4032 79.2968C59.8654 86.2937 69.3011 88.828 77.534 85.5098C85.7674 82.1916 90.8085 73.8231 89.893 64.9939C88.9769 56.1643 82.3256 49.0088 73.5869 47.4507V47.4519ZM44.2969 83.2164L32.4786 75.3388C23.0137 69.0406 17.3317 58.421 17.3438 47.0525V29.0967L44.2969 15.6201L71.25 29.0967V47.1824C70.8609 47.1589 70.4753 47.1228 70.0781 47.1228C69.681 47.1228 69.2942 47.1589 68.9063 47.1824C68.9063 47.1389 68.9063 30.5421 68.9063 30.5421L44.2969 18.2385L19.6875 30.5432V47.0525C19.6789 57.6365 24.969 67.5219 33.7792 73.3865L44.2969 80.3943L51.9633 75.2862C52.2912 76.0014 52.6614 76.6967 53.0717 77.3679L44.2969 83.2164ZM51.0867 73.0552L44.2969 77.5784L35.0804 71.437C34.6255 71.1331 34.1849 70.8144 33.75 70.4877V60.0135H31.4063V68.521C30.1199 67.3285 28.9435 66.0222 27.8906 64.6186V57.8088C27.8912 56.1974 28.987 54.7927 30.5497 54.4001L38.497 52.4077C38.7522 54.9489 40.6251 57.0306 43.125 57.5524V62.3572H45.4688V57.5524C47.9687 57.0311 49.841 54.9489 50.0956 52.4077L55.3124 53.7181C50.5562 58.9486 48.9461 66.3163 51.0867 73.054V73.0552ZM38.4375 37.7478H41.6768C43.4855 37.7456 45.2719 37.345 46.909 36.576H47.2266L50.1563 40.4818V45.365L46.2504 48.2947H42.3434L38.4375 45.365V37.7478ZM36.191 35.4041C36.4285 33.9347 37.3641 32.6718 38.7013 32.0172C41.2934 30.8637 44.2139 30.68 46.9302 31.4994L47.1997 31.8885H48.9844C49.6316 31.8885 50.1563 32.4132 50.1563 33.0603V36.576L48.3985 34.2322H46.3643L46.1171 34.3552C44.7375 35.0425 43.2177 35.4018 41.6768 35.4041H36.191ZM47.8125 50.0525V51.8103C47.8125 53.7518 46.2384 55.326 44.2969 55.326C42.3554 55.326 40.7813 53.7518 40.7813 51.8103V50.0525L41.5629 50.6385H47.0309L47.8125 50.0525ZM50.1563 50.0068V48.2947L52.5 46.5369V33.0603C52.5 31.1183 50.9259 29.5447 48.9844 29.5447H48.205C46.5096 28.5142 42.2885 28.3059 39.2987 29.2409C35.9461 30.0643 33.6304 33.1256 33.75 36.576V37.7478H36.0938V46.5369L38.4375 48.2947V50.001L29.9792 52.1279C27.3722 52.7785 25.544 55.1223 25.5469 57.8088V60.9731C23.2375 56.697 22.029 51.9128 22.0313 47.0525V31.9915L44.2969 20.8587L66.5625 31.9915V47.0525C66.5625 47.1869 66.5545 47.3208 66.5534 47.4542C63.1356 48.0653 59.9387 49.5627 57.2814 51.7972L50.1563 50.0068ZM70.0781 84.6228C60.3701 84.6228 52.5 76.7527 52.5 67.0447C52.5 57.3361 60.3701 49.4666 70.0781 49.4666C79.7862 49.4666 87.6563 57.3361 87.6563 67.0447C87.6454 76.7482 79.7816 84.6114 70.0781 84.6228Z" fill="white"/>
<path d="M75.9375 33.0603H90V35.4041H75.9375V33.0603Z" fill="white"/>
<path d="M75.9375 37.7478H85.3125V40.0916H75.9375V37.7478Z" fill="white"/>
<path d="M75.9375 42.4353H80.625V44.7791H75.9375V42.4353Z" fill="white"/>
<path d="M65.7639 66.2161L61.6217 62.0734L54.9922 68.7018L65.7639 79.4736L83.9938 61.2437L77.3642 54.6158L65.7639 66.2161ZM65.7639 76.1593L58.3064 68.7018L61.6217 65.3876L65.7639 69.5298L77.3654 57.9283L80.6807 61.2425L65.7639 76.1593Z" fill="white"/>
</svg>
