<svg width="100" height="100" viewBox="0 0 100 100" fill="none" xmlns="http://www.w3.org/2000/svg">
<circle cx="50" cy="50" r="50" fill="#B83333"/>
<path d="M72.3749 51.455V85.8299C72.3749 86.6929 71.6753 87.3925 70.8123 87.3925H36.4375C35.5746 87.3925 34.8749 86.6929 34.8749 85.8299V68.6425H31.75V85.8299C31.75 88.4188 33.8487 90.5174 36.4375 90.5174H70.8125C73.4013 90.5174 75.5 88.4188 75.5 85.8299V51.455H72.3749Z" fill="white"/>
<path d="M42.6875 52.1874H28.625C22.5875 52.1951 17.6953 57.0874 17.6875 63.1249H20.8124C20.8176 58.8123 24.3124 55.3176 28.6249 55.3125H42.6874C44.4132 55.3125 45.8123 56.7115 45.8123 58.4374C45.8123 60.1633 44.4132 61.5624 42.6874 61.5624H28.6249V64.6873H42.6874C46.1391 64.6873 48.9374 61.889 48.9374 58.4373C48.9374 54.9855 46.1393 52.1874 42.6875 52.1874Z" fill="white"/>
<path d="M14.5625 56.8749C13.6996 56.8749 13 57.5745 13 58.4374V60H20.8124V56.8749H14.5625Z" fill="white"/>
<path d="M28.625 78.7498C24.3124 78.7447 20.8177 75.25 20.8124 70.9374H17.6875C17.6953 76.9747 22.5875 81.8671 28.625 81.8749H33.3125V78.75H28.625V78.7498Z" fill="white"/>
<path d="M13 74.0624V75.6249C13 76.4879 13.6996 77.1875 14.5625 77.1875H20.8126V74.0625H13V74.0624Z" fill="white"/>
<path d="M72.3749 13.125H61.4374C57.9858 13.125 55.1875 15.9233 55.1875 19.375C55.1875 22.8268 57.9858 25.6251 61.4375 25.6251H75.5V22.5H61.4375C59.7117 22.5 58.3126 21.1009 58.3126 19.375C58.3126 17.6492 59.7117 16.2501 61.4375 16.2501H72.3751C76.6877 16.2552 80.1824 19.75 80.1875 24.0625H83.3124C83.3047 18.0252 78.4124 13.1328 72.3749 13.125Z" fill="white"/>
<path d="M86.4375 17.8125H80.1875V20.9374H88.0001V19.375C88.0001 18.5121 87.3005 17.8125 86.4375 17.8125Z" fill="white"/>
<path d="M80.1875 31.8749C80.1823 36.1875 76.6875 39.6822 72.375 39.6873H61.4375V42.8124H72.375C78.4124 42.8046 83.3048 37.9124 83.3126 31.8749H80.1875Z" fill="white"/>
<path d="M80.1875 35V38.125H86.4375C87.3005 38.125 88.0001 37.4254 88.0001 36.5624V34.9999H80.1875V35Z" fill="white"/>
<path d="M68.5427 23.6328L65.5364 24.4843C66.7591 28.8055 66.059 33.444 63.6152 37.2118C58.9302 44.435 49.2768 46.4928 42.0534 41.8078C34.8301 37.1228 32.7723 27.4694 37.4573 20.246C42.1423 13.0227 51.7957 10.9649 59.0191 15.6499L60.7254 13.0312C57.6844 11.0537 54.1348 10.0006 50.5071 10C40.1517 9.99824 31.7557 18.3913 31.7539 28.7467C31.7521 39.1021 40.1452 47.4982 50.5005 47.4999C52.2223 47.4988 53.9357 47.2606 55.5926 46.7921C65.5639 43.9729 71.3619 33.6042 68.5427 23.6328Z" fill="white"/>
<path d="M47.375 24.0624H53.625V20.9375H47.375C44.7862 20.9375 42.6875 23.0362 42.6875 25.625C42.6875 28.2138 44.7862 30.3125 47.375 30.3125H53.625V27.1875H47.375C46.5121 27.1875 45.8124 26.4879 45.8124 25.625C45.8124 24.7621 46.5121 24.0624 47.375 24.0624Z" fill="white"/>
<path d="M53.625 27.1874H47.375V30.3123H53.625C54.488 30.3123 55.1876 31.0119 55.1876 31.8749C55.1876 32.7378 54.488 33.4374 53.625 33.4374H47.375C46.5121 33.4374 45.8124 32.7378 45.8124 31.8749H42.6875C42.6875 34.4637 44.7862 36.5624 47.375 36.5624H53.625C56.2138 36.5624 58.3125 34.4637 58.3125 31.8749C58.3125 29.2861 56.2138 27.1874 53.625 27.1874Z" fill="white"/>
<path d="M52.0624 35H48.9375V39.6875H52.0624V35Z" fill="white"/>
<path d="M52.0624 17.8125H48.9375V22.5H52.0624V17.8125Z" fill="white"/>
<path d="M36.4375 42.8124C33.8487 42.8124 31.75 44.9111 31.75 47.4999V53.7499H34.8749V47.4999C34.8749 46.6369 35.5746 45.9373 36.4375 45.9373H42.6875V42.8124H36.4375Z" fill="white"/>
<path d="M42.6874 44.375H39.5625V53.75H42.6874V44.375Z" fill="white"/>
<path d="M50.4999 45.9374V56.8749H47.375V59.9999H52.0625C52.9254 59.9999 53.625 59.3002 53.625 58.4373V45.9374H50.4999Z" fill="white"/>
<path d="M69.25 75.6249H59.875V78.7498H69.25V75.6249Z" fill="white"/>
<path d="M69.25 69.3749H59.875V72.4998H69.25V69.3749Z" fill="white"/>
</svg>
