<svg width="100" height="100" viewBox="0 0 100 100" fill="none" xmlns="http://www.w3.org/2000/svg">
<circle cx="50" cy="50" r="50" fill="#B83333"/>
<path d="M40.3294 50.912H35.2596C34.5597 50.912 33.9922 51.4795 33.9922 52.1794V57.2492C33.9922 57.9492 34.5597 58.5167 35.2596 58.5167H40.3294C41.0294 58.5167 41.5969 57.9492 41.5969 57.2492V52.1794C41.5969 51.4795 41.0294 50.912 40.3294 50.912ZM39.062 55.9818H36.5271V53.4469H39.062V55.9818Z" fill="white"/>
<path d="M50.4691 50.912H45.3993C44.6993 50.912 44.1318 51.4795 44.1318 52.1794V57.2492C44.1318 57.9492 44.6993 58.5167 45.3993 58.5167H50.4691C51.169 58.5167 51.7365 57.9492 51.7365 57.2492V52.1794C51.7365 51.4795 51.169 50.912 50.4691 50.912ZM49.2016 55.9818H46.6667V53.4469H49.2016V55.9818Z" fill="white"/>
<path d="M60.6087 50.912H55.5389C54.839 50.912 54.2715 51.4795 54.2715 52.1794V57.2492C54.2715 57.9492 54.839 58.5167 55.5389 58.5167H60.6087C61.3086 58.5167 61.8762 57.9492 61.8762 57.2492V52.1794C61.8762 51.4795 61.3086 50.912 60.6087 50.912ZM59.3413 55.9818H56.8064V53.4469H59.3413V55.9818Z" fill="white"/>
<path d="M40.3294 61.0514H35.2596C34.5597 61.0514 33.9922 61.6189 33.9922 62.3188V67.3886C33.9922 68.0886 34.5597 68.6561 35.2596 68.6561H40.3294C41.0294 68.6561 41.5969 68.0886 41.5969 67.3886V62.3188C41.5969 61.6189 41.0294 61.0514 40.3294 61.0514ZM39.062 66.1212H36.5271V63.5863H39.062V66.1212Z" fill="white"/>
<path d="M50.4691 61.0514H45.3993C44.6993 61.0514 44.1318 61.6189 44.1318 62.3188V67.3886C44.1318 68.0886 44.6993 68.6561 45.3993 68.6561H50.4691C51.169 68.6561 51.7365 68.0886 51.7365 67.3886V62.3188C51.7365 61.6189 51.169 61.0514 50.4691 61.0514ZM49.2016 66.1212H46.6667V63.5863H49.2016V66.1212Z" fill="white"/>
<path d="M60.6087 61.0514H55.5389C54.839 61.0514 54.2715 61.6189 54.2715 62.3188V67.3886C54.2715 68.0886 54.839 68.6561 55.5389 68.6561H60.6087C61.3086 68.6561 61.8762 68.0886 61.8762 67.3886V62.3188C61.8762 61.6189 61.3086 61.0514 60.6087 61.0514ZM59.3413 66.1212H56.8064V63.5863H59.3413V66.1212Z" fill="white"/>
<path d="M40.3294 71.191H35.2596C34.5597 71.191 33.9922 71.7585 33.9922 72.4585V77.5283C33.9922 78.2282 34.5597 78.7957 35.2596 78.7957H40.3294C41.0294 78.7957 41.5969 78.2282 41.5969 77.5283V72.4585C41.5969 71.7585 41.0294 71.191 40.3294 71.191ZM39.062 76.2608H36.5271V73.7259H39.062V76.2608Z" fill="white"/>
<path d="M50.4691 71.191H45.3993C44.6993 71.191 44.1318 71.7585 44.1318 72.4585V77.5283C44.1318 78.2282 44.6993 78.7957 45.3993 78.7957H50.4691C51.169 78.7957 51.7365 78.2282 51.7365 77.5283V72.4585C51.7365 71.7585 51.169 71.191 50.4691 71.191ZM49.2016 76.2608H46.6667V73.7259H49.2016V76.2608Z" fill="white"/>
<path d="M60.6087 71.191H55.5389C54.839 71.191 54.2715 71.7585 54.2715 72.4585V77.5283C54.2715 78.2282 54.839 78.7957 55.5389 78.7957H60.6087C61.3086 78.7957 61.8762 78.2282 61.8762 77.5283V72.4585C61.8762 71.7585 61.3086 71.191 60.6087 71.191ZM59.3413 76.2608H56.8064V73.7259H59.3413V76.2608Z" fill="white"/>
<path d="M23.6458 28.0193C23.8581 28.4563 24.3012 28.7335 24.7864 28.7329C24.9782 28.7335 25.167 28.6902 25.339 28.606C25.969 28.3003 26.2314 27.541 25.9251 26.9116C25.313 25.6528 25.8372 24.1359 27.096 23.5239C27.726 23.2175 27.9884 22.4588 27.6821 21.8288C27.3757 21.1988 26.617 20.9364 25.987 21.2421C23.4731 22.4706 22.426 25.5012 23.6458 28.0193Z" fill="white"/>
<path d="M18.6217 22.491C17.7361 25.0314 17.9038 27.8213 19.0884 30.2374C19.3947 30.8674 20.1534 31.1298 20.7834 30.8234C21.4135 30.5171 21.6759 29.7584 21.3695 29.1284C19.5327 25.3514 21.1046 20.8008 24.8816 18.9634C25.3123 18.779 25.6063 18.3724 25.6459 17.9052C25.6855 17.4385 25.4646 16.988 25.071 16.7336C24.6774 16.4793 24.1755 16.4632 23.7664 16.6909C21.346 17.8606 19.4937 19.9487 18.6217 22.491Z" fill="white"/>
<path d="M15.6687 33.1677C15.8605 33.1683 16.0499 33.125 16.2226 33.0408C16.8526 32.7351 17.1144 31.9758 16.808 31.3464C13.757 25.0525 16.376 17.4763 22.6625 14.4098C23.2925 14.1034 23.5549 13.3441 23.2486 12.7141C22.9422 12.0841 22.1835 11.8217 21.5535 12.128C14.0095 15.8096 10.8669 24.9015 14.5281 32.4554C14.7404 32.8917 15.1835 33.1683 15.6687 33.1677Z" fill="white"/>
<path d="M73.8307 50.912C75.9305 50.912 77.633 49.2095 77.633 47.1097C77.6293 46.4401 77.4467 45.7841 77.1045 45.2085C77.4467 44.633 77.6293 43.977 77.633 43.3073C77.633 41.2075 75.9305 39.505 73.8307 39.505C71.7308 39.505 70.0283 41.2075 70.0283 43.3073C70.032 43.977 70.2146 44.633 70.5568 45.2085C70.2146 45.7841 70.032 46.4401 70.0283 47.1097C70.0283 49.2095 71.7308 50.912 73.8307 50.912ZM73.8307 42.0399C74.5306 42.0399 75.0981 42.6074 75.0981 43.3073C75.0901 43.3816 75.0752 43.4552 75.0535 43.5264C74.2645 43.2343 73.3968 43.2343 72.6078 43.5264C72.5855 43.4552 72.5706 43.3816 72.5632 43.3073C72.5632 42.6074 73.1307 42.0399 73.8307 42.0399ZM72.6078 46.8906C73.3968 47.1827 74.2645 47.1827 75.0535 46.8906C75.0752 46.9618 75.0901 47.0354 75.0981 47.1097C75.0981 47.8096 74.5306 48.3771 73.8307 48.3771C73.1307 48.3771 72.5632 47.8096 72.5632 47.1097C72.5706 47.0354 72.5855 46.9618 72.6078 46.8906Z" fill="white"/>
<path d="M76.3652 57.2491H78.9001V59.784H76.3652V57.2491Z" fill="white"/>
<path d="M76.3652 62.319H78.9001V64.8539H76.3652V62.319Z" fill="white"/>
<path d="M76.3652 52.1794H78.9001V54.7143H76.3652V52.1794Z" fill="white"/>
<path d="M47.2139 36.97H49.7488V39.5049H47.2139V36.97Z" fill="white"/>
<path d="M42.1445 36.97H44.6794V39.5049H42.1445V36.97Z" fill="white"/>
<path d="M52.2842 36.97H54.8191V39.5049H52.2842V36.97Z" fill="white"/>
<path d="M80.168 59.7841H82.7029V64.8538H80.168V59.7841Z" fill="white"/>
<path d="M80.168 52.1794H82.7029V57.2492H80.168V52.1794Z" fill="white"/>
<path d="M86.7323 35.463H68.3859L68.4138 30.4285C68.423 28.7421 67.7596 27.1207 66.5702 25.925C65.3807 24.7287 63.7636 24.056 62.0765 24.056H34.2485C32.5614 24.056 30.9443 24.7287 29.7548 25.925C28.5654 27.1207 27.9019 28.7421 27.9112 30.4285L28.0102 48.1437C28.0109 48.3207 28.0486 48.4958 28.1216 48.6573L29.1496 50.9385V79.8236C29.1552 84.7213 33.124 88.6901 38.0217 88.6957H58.3008C63.1986 88.6901 67.1674 84.7213 67.1729 79.8236V70.9515H86.7323C87.4322 70.9515 87.9997 70.384 87.9997 69.684V36.7305C87.9997 36.0305 87.4322 35.463 86.7323 35.463ZM65.7811 47.8627L64.7494 50.1513C64.677 50.3153 64.6387 50.4929 64.638 50.6724V79.8236C64.6337 83.3221 61.7993 86.1565 58.3008 86.1608H38.0217C34.5238 86.1565 31.6888 83.3221 31.6845 79.8236V50.6724C31.6845 50.4935 31.6467 50.3159 31.5731 50.1525L30.5439 47.8627L30.4461 30.4149C30.4405 29.4024 30.8385 28.4302 31.552 27.7123C32.2662 26.9944 33.2366 26.5909 34.2485 26.5909H62.0765C63.089 26.5909 64.0594 26.9944 64.773 27.7123C65.4865 28.4302 65.8844 29.4024 65.8789 30.4149L65.7811 47.8627ZM85.4649 68.4166H67.1729V50.9447L68.2034 48.6635C68.2758 48.5014 68.3135 48.3262 68.3147 48.1486L68.3704 38.0091H85.4649V68.4166Z" fill="white"/>
<path d="M60.5558 28.6564H35.2069C34.507 28.6564 33.9395 29.2239 33.9395 29.9238V47.668C33.9395 48.368 34.507 48.9355 35.2069 48.9355H60.5558C61.2557 48.9355 61.8232 48.368 61.8232 47.668V29.9238C61.8232 29.2239 61.2557 28.6564 60.5558 28.6564ZM59.2883 46.4006H36.4743V31.1913H59.2883V46.4006Z" fill="white"/>
</svg>
