<svg width="100" height="100" viewBox="0 0 100 100" fill="none" xmlns="http://www.w3.org/2000/svg">
<circle cx="50" cy="50" r="50" fill="#B83333"/>
<path d="M44.4825 29.9614V34.5862H41.7239V37.3449H49.9997V34.5862H47.2411V31.1917C48.5487 31.6042 49.9377 31.8276 51.3791 31.8276C55.0632 31.8276 58.528 30.3917 61.1322 27.7876C61.6715 27.2483 61.6715 26.3766 61.1322 25.8373L53.3294 18.0345L56.5032 14.8607C57.0425 15.12 57.6384 15.2759 58.2756 15.2759C60.557 15.2759 62.4135 13.4193 62.4135 11.1379C62.4135 8.85655 60.557 7 58.2756 7C55.9942 7 54.1377 8.85655 54.1377 11.1379C54.1377 11.7752 54.2935 12.371 54.5528 12.9103L51.3791 16.0841L43.5763 8.28138C43.037 7.74207 42.1653 7.74207 41.6259 8.28138C39.0218 10.8855 37.5859 14.3504 37.5859 18.0345C37.5859 23.1269 40.3666 27.5724 44.4825 29.9614ZM58.2756 9.75862C59.0356 9.75862 59.6549 10.3779 59.6549 11.1379C59.6549 11.8979 59.0356 12.5172 58.2756 12.5172C57.5156 12.5172 56.8963 11.8979 56.8963 11.1379C56.8963 10.3779 57.5156 9.75862 58.2756 9.75862ZM42.6618 11.2676L58.146 26.7517C56.2191 28.2552 53.8618 29.069 51.3791 29.069C49.9156 29.069 48.5197 28.7766 47.2411 28.2566V20.7931H44.4825V26.6345C41.9639 24.611 40.3446 21.5104 40.3446 18.0345C40.3446 15.5517 41.1584 13.1945 42.6618 11.2676Z" fill="white"/>
<path d="M59.6552 64.931H34.8276C34.0662 64.931 33.4482 65.5476 33.4482 66.3103V85.6207C33.4482 86.3835 34.0662 87 34.8276 87H59.6552C60.4165 87 61.0345 86.3835 61.0345 85.6207V66.3103C61.0345 65.5476 60.4165 64.931 59.6552 64.931ZM58.2758 84.2414H36.2069V67.6897H58.2758V84.2414Z" fill="white"/>
<path d="M63.7939 64.931H66.5526V67.6897H63.7939V64.931Z" fill="white"/>
<path d="M63.7939 70.4484H66.5526V73.207H63.7939V70.4484Z" fill="white"/>
<path d="M63.7939 75.9656H66.5526V78.7242H63.7939V75.9656Z" fill="white"/>
<path d="M63.7939 81.4828H66.5526V84.2414H63.7939V81.4828Z" fill="white"/>
<path d="M66.9551 23.9558L68.9054 25.9061L69.7137 25.0978C71.2323 23.5806 72.0682 21.5613 72.0682 19.4137C72.0682 17.2661 71.2323 15.2468 69.7137 13.7295L68.9054 12.9213L66.9551 14.8716L67.7634 15.6799C68.7606 16.6771 69.3096 18.004 69.3096 19.4137C69.3096 20.8233 68.7606 22.1502 67.7634 23.1475L66.9551 23.9558Z" fill="white"/>
<path d="M74.8275 19.4138C74.8275 22.6028 73.5862 25.6014 71.3296 27.8579L71.0938 28.0938L73.0441 30.0442L73.28 29.8083C76.0579 27.0317 77.5862 23.3407 77.5862 19.4138C77.5862 15.4869 76.0579 11.7959 73.28 9.01931L73.0441 8.78345L71.0938 10.7338L71.3296 10.9697C73.5862 13.2262 74.8275 16.2248 74.8275 19.4138Z" fill="white"/>
<path d="M30.2851 25.0978L31.0934 25.9061L33.0438 23.9558L32.2355 23.1475C31.2383 22.1502 30.6893 20.8233 30.6893 19.4137C30.6893 18.004 31.2383 16.6771 32.2355 15.6799L33.0438 14.8716L31.0934 12.9213L30.2851 13.7295C28.7665 15.2468 27.9307 17.2661 27.9307 19.4137C27.9307 21.5613 28.7665 23.5806 30.2851 25.0978Z" fill="white"/>
<path d="M26.9561 30.0442L28.9065 28.0938L28.6706 27.8579C26.4141 25.6014 25.1727 22.6028 25.1727 19.4138C25.1727 16.2248 26.4141 13.2262 28.6706 10.9697L28.9065 10.7338L26.9561 8.78345L26.7203 9.01931C23.9423 11.7959 22.4141 15.4869 22.4141 19.4138C22.4141 23.3407 23.9423 27.0317 26.7203 29.8083L26.9561 30.0442Z" fill="white"/>
<path d="M72.1433 79.7049C72.1185 79.7228 72.0937 79.738 72.0688 79.7559V66.3104C72.0688 62.5076 68.975 59.4138 65.1723 59.4138H55.5171C55.5171 57.3283 54.3419 55.5325 52.6316 54.5945L62.0095 45.2166L60.0592 43.2662L49.9999 53.3256L39.9405 43.2662L37.9902 45.2166L47.3681 54.5945C45.6578 55.5325 44.4826 57.3283 44.4826 59.4138H34.8274C31.0247 59.4138 27.9309 62.5076 27.9309 66.3104V79.7559C27.9061 79.738 27.8798 79.7228 27.8564 79.7049L26.2178 81.9242C26.7764 82.3366 27.3557 82.7187 27.9323 83.1007V85.6208C27.9323 89.4235 31.0261 92.5173 34.8288 92.5173H65.1737C68.9764 92.5173 72.0702 89.4235 72.0702 85.6208V83.1007C72.6468 82.7187 73.2261 82.3366 73.7847 81.9242L72.1433 79.7049ZM49.9999 56.6552C51.5212 56.6552 52.7585 57.8925 52.7585 59.4138H47.2412C47.2412 57.8925 48.4785 56.6552 49.9999 56.6552ZM69.3102 85.6208C69.3102 87.9021 67.4537 89.7587 65.1723 89.7587H34.8274C32.5461 89.7587 30.6895 87.9021 30.6895 85.6208V66.3104C30.6895 64.029 32.5461 62.1725 34.8274 62.1725H65.1723C67.4537 62.1725 69.3102 64.029 69.3102 66.3104V85.6208Z" fill="white"/>
<path d="M89.6707 44.5986L86.9355 44.9517C87.1383 46.5338 87.2418 48.1504 87.2418 49.7586L87.239 50.2221L89.9976 50.2566L90.0004 49.7586C90.0004 48.0345 89.8887 46.2979 89.6707 44.5986Z" fill="white"/>
<path d="M83.7373 65.549L86.2352 66.7214C87.038 65.0111 87.7221 63.2304 88.2697 61.429L85.6311 60.6262C85.1208 62.3021 84.4835 63.9586 83.7373 65.549Z" fill="white"/>
<path d="M74.2061 78.0607L76.0005 80.1573C77.4323 78.931 78.7881 77.5931 80.035 76.1779L77.9647 74.3545C76.8047 75.6717 75.5398 76.9186 74.2061 78.0607Z" fill="white"/>
<path d="M86.3096 58.0759L88.9992 58.6897C89.4185 56.8511 89.7096 54.9669 89.8627 53.0869L87.1137 52.8607C86.9703 54.6124 86.6999 56.3655 86.3096 58.0759Z" fill="white"/>
<path d="M86.5042 42.3463L89.2077 41.8001C88.8339 39.9491 88.3235 38.1105 87.6904 36.3367L85.0918 37.2636C85.6821 38.9132 86.1566 40.6236 86.5042 42.3463Z" fill="white"/>
<path d="M79.6387 72.3104L81.8332 73.9835C82.9752 72.4842 84.0207 70.8911 84.9407 69.2442L82.5325 67.8966C81.6759 69.4304 80.7021 70.9145 79.6387 72.3104Z" fill="white"/>
<path d="M84.1185 34.8069L86.644 33.698C85.8868 31.9711 84.9971 30.2828 84.0013 28.6814L81.6592 30.1379C82.5861 31.629 83.4137 33.2 84.1185 34.8069Z" fill="white"/>
<path d="M82.3973 26.2923C81.8414 25.5268 81.2497 24.7696 80.64 24.0441L78.5283 25.8179C79.0966 26.4951 79.6483 27.1999 80.1656 27.913L82.3973 26.2923Z" fill="white"/>
<path d="M21.4715 25.8179L19.3598 24.0441C18.7501 24.7696 18.1584 25.5268 17.6025 26.2923L19.8343 27.913C20.3529 27.1999 20.9032 26.4951 21.4715 25.8179Z" fill="white"/>
<path d="M12.8828 52.818L10.1338 53.0414C10.2855 54.9242 10.5752 56.8097 10.9917 58.6456L13.6814 58.0346C13.2938 56.327 13.0248 54.5711 12.8828 52.818Z" fill="white"/>
<path d="M14.3578 60.5905L11.7178 61.3905C12.264 63.1918 12.9467 64.9739 13.7481 66.6856L16.2474 65.5187C15.5012 63.9242 14.8667 62.2649 14.3578 60.5905Z" fill="white"/>
<path d="M17.4497 67.869L15.04 69.2138C15.9587 70.858 17.0028 72.4552 18.1449 73.9559L20.3407 72.2856C19.2773 70.887 18.3049 69.4001 17.4497 67.869Z" fill="white"/>
<path d="M22.0135 74.327L19.9404 76.1477C21.1887 77.567 22.5459 78.9091 23.9735 80.1325L25.768 78.036C24.4384 76.8994 23.1749 75.6498 22.0135 74.327Z" fill="white"/>
<path d="M18.362 30.1034L16.0199 28.6455C15.0227 30.2483 14.1317 31.9338 13.373 33.6579L15.8972 34.7696C16.6048 33.1655 17.4337 31.5959 18.362 30.1034Z" fill="white"/>
<path d="M14.9212 37.2221L12.3226 36.2938C11.6881 38.069 11.1764 39.9076 10.7998 41.7559L13.5033 42.3049C13.8536 40.5849 14.3308 38.8731 14.9212 37.2221Z" fill="white"/>
<path d="M12.7586 49.7586C12.7586 48.1366 12.8635 46.5048 13.0717 44.909L10.3366 44.5531C10.1131 46.2662 10 48.0179 10 49.7586L10.0028 50.2138L12.7614 50.1766L12.7586 49.7586Z" fill="white"/>
</svg>
