<svg width="68" height="68" viewBox="0 0 68 68" fill="none" xmlns="http://www.w3.org/2000/svg">
<path d="M67.9093 57.358L62.0726 36.8787C61.4778 34.8941 59.833 33.4019 57.7999 33.0027V30.6C57.7963 29.3497 56.7836 28.337 55.5332 28.3333H54.7512L55.6692 25.806L56.7344 26.1913C56.8619 26.2358 56.9961 26.2588 57.1312 26.2593C57.6076 26.2568 58.0323 25.9585 58.1964 25.5113L64.3957 8.47729C64.8772 7.12526 64.4604 5.61637 63.353 4.70329L64.203 2.38C64.4212 1.79244 64.122 1.13927 63.5344 0.921055C62.9469 0.702844 62.2937 1.00207 62.0755 1.58963C62.0744 1.59242 62.0734 1.59521 62.0724 1.59813L61.2224 3.92142C60.7187 3.91571 60.2197 4.0201 59.7604 4.22742C58.9432 4.61231 58.3117 5.30493 58.0037 6.15413L51.8044 23.1881C51.5909 23.7749 51.8934 24.4237 52.4802 24.6372C52.4817 24.6378 52.483 24.6383 52.4844 24.6388L53.5497 25.0356L52.3824 28.2203C52.3737 28.2573 52.3698 28.2954 52.3712 28.3336H51C49.7497 28.3371 48.737 29.3498 48.7333 30.6003V32.867H38.5333V30.6C38.5296 29.3497 37.517 28.337 36.2666 28.3333H35.1333V26.0666H36.2666C36.8917 26.0647 37.398 25.5584 37.3999 24.9333V6.8C37.3923 5.36377 36.4861 4.08598 35.1332 3.604V1.13329C35.1333 0.507344 34.6259 0 34 0C33.3741 0 32.8667 0.507344 32.8667 1.13329V3.604C31.5138 4.08611 30.6076 5.36377 30.6 6.8V24.9333C30.6019 25.5584 31.1081 26.0647 31.7333 26.0666H32.8666V28.3333H31.7333C30.483 28.3369 29.4703 29.3496 29.4666 30.6V32.8667H19.2666V30.6C19.263 29.3497 18.2503 28.337 16.9999 28.3333H15.6286C15.6299 28.2952 15.6261 28.2571 15.6173 28.22L14.45 25.0353L15.5153 24.6386C16.1029 24.4274 16.4081 23.7798 16.1969 23.1921C16.1964 23.1907 16.1958 23.1893 16.1953 23.1879L9.996 6.154C9.68814 5.3048 9.05648 4.61218 8.23929 4.22729C7.78002 4.01997 7.28105 3.91558 6.77729 3.92129L5.92729 1.598C5.71373 1.00871 5.06294 0.704172 4.47366 0.917734C3.88437 1.1313 3.57983 1.78208 3.79339 2.37137C3.79445 2.37429 3.79552 2.37721 3.79658 2.38L4.64658 4.70329C3.53932 5.61637 3.12242 7.12526 3.60387 8.47729L9.80316 25.5113C9.96731 25.9585 10.392 26.2568 10.8684 26.2593C11.0035 26.2588 11.1375 26.2358 11.2652 26.1913L12.3304 25.806L13.2484 28.3333H12.4664C11.2161 28.3369 10.2035 29.3496 10.1997 30.6V33.0027C8.16664 33.4019 6.52176 34.8941 5.92702 36.8787L0.0907109 57.358C0.0313438 57.4979 0.00053125 57.6481 0 57.8V64.6C0.00544531 66.4754 1.52455 67.9946 3.4 68H64.6C66.4754 67.9946 67.9946 66.4754 68 64.6V57.8C67.9995 57.6481 67.9687 57.4979 67.9093 57.358ZM51 30.6H55.5333V32.8667H51V30.6ZM40.8 38.5333H55.5333C56.1592 38.5333 56.6666 39.0406 56.6666 39.6666C56.6666 40.2925 56.1592 40.7999 55.5333 40.7999H40.8C40.1741 40.7999 39.6667 40.2925 39.6667 39.6666C39.6667 39.0406 40.1741 38.5333 40.8 38.5333ZM40.8 43.0667H56.6667C57.2927 43.0667 57.8 43.5742 57.8 44.2C57.8 44.8259 57.2927 45.3333 56.6667 45.3333H40.8C40.1741 45.3333 39.6667 44.8258 39.6667 44.2C39.6667 43.5741 40.1741 43.0667 40.8 43.0667ZM40.8 47.6H57.8C58.4259 47.6 58.9333 48.1073 58.9333 48.7333C58.9333 49.3592 58.4259 49.8666 57.8 49.8666H40.8C40.1741 49.8666 39.6667 49.3592 39.6667 48.7333C39.6667 48.1073 40.1741 47.6 40.8 47.6ZM12.4667 30.6H17V32.8667H12.4667V30.6ZM21.5333 65.7333H19.2666V63.4666H7.93329V65.7333H5.66671V62.3333C5.66857 61.7081 6.17485 61.2019 6.8 61.2H20.4C21.0251 61.2019 21.5314 61.7081 21.5333 62.3333V65.7333ZM31.7333 65.7333H29.4666V63.4666H26.0666V65.7333H23.8V62.3333C23.8019 61.7081 24.3081 61.2019 24.9333 61.2H30.6C31.2251 61.2019 31.7314 61.7081 31.7333 62.3333V65.7333ZM31.7333 30.6H36.2666V32.8667H31.7333V30.6ZM41.9333 65.7333H39.6666V63.4666H36.2666V65.7333H34V62.3333C34.0019 61.7081 34.5081 61.2019 35.1333 61.2H40.8C41.4252 61.2019 41.9314 61.7081 41.9333 62.3333V65.7333ZM52.1333 65.7333H49.8666V63.4666H46.4666V65.7333H44.2V62.3333C44.2019 61.7081 44.7081 61.2019 45.3333 61.2H51C51.6251 61.2019 52.1314 61.7081 52.1333 62.3333V65.7333ZM58.9333 54.4H40.8C40.1741 54.4 39.6667 53.8927 39.6667 53.2667C39.6667 52.6408 40.1741 52.1334 40.8 52.1334H58.9333C59.5592 52.1334 60.0666 52.6409 60.0666 53.2667C60.0666 53.8925 59.5592 54.4 58.9333 54.4Z" fill="#081121"/>
</svg>
