<svg width="137" height="129" viewBox="0 0 137 129" fill="none" xmlns="http://www.w3.org/2000/svg">
<path d="M35.2877 115.659C34.1407 115.659 33.2118 116.589 33.2118 117.735L33.2057 124.656L12.4545 124.667V87.2919C12.4545 86.1461 11.5255 85.216 10.3786 85.216C9.23166 85.216 8.30273 86.1458 8.30273 87.2919V124.667C8.30273 126.949 10.1679 128.807 12.4584 128.807H33.2057C35.4984 128.807 37.3635 126.949 37.3635 124.667V117.735C37.3635 116.589 36.4346 115.659 35.2877 115.659Z" fill="black"/>
<path d="M128.697 85.2163C127.55 85.2163 126.621 86.1461 126.621 87.2922L126.615 124.656L105.864 124.667V117.735C105.864 116.59 104.935 115.659 103.788 115.659C102.641 115.659 101.712 116.589 101.712 117.735V124.667C101.712 126.95 103.577 128.808 105.868 128.808H126.615C128.908 128.808 130.773 126.95 130.773 124.667V87.2919C130.773 86.1461 129.844 85.2163 128.697 85.2163Z" fill="black"/>
<path d="M115.725 67.8389L111.766 49.3596C110.877 45.1997 106.924 41.2745 102.906 40.4556C102.738 40.4088 98.6694 39.3026 90.2428 38.4494C89.0898 38.3436 88.0861 39.1667 87.9687 40.3063C87.8534 41.446 88.6838 42.4652 89.8253 42.5804C97.849 43.392 101.767 44.4465 101.937 44.4891C104.468 45.0081 107.164 47.69 107.709 50.2286L111.668 68.7079C111.876 69.6815 112.735 70.3487 113.695 70.3487C113.839 70.3487 113.984 70.3341 114.131 70.304C115.25 70.0641 115.966 68.96 115.725 67.8389Z" fill="black"/>
<path d="M49.4521 39.9627C49.2353 38.8376 48.1464 38.1027 47.0193 38.3219L44.546 38.8075C38.2938 39.5817 35.2455 40.4121 35.2695 40.4121C31.0953 41.2103 27.12 45.1418 26.2181 49.3586L22.1838 68.1751C21.942 69.2959 22.656 70.3994 23.7771 70.639C23.9254 70.6712 24.0708 70.6858 24.2149 70.6858C25.1718 70.6858 26.0332 70.0196 26.243 69.0439L30.2774 50.2261C30.8287 47.6531 33.5269 44.9725 36.2131 44.4513C36.241 44.4431 39.1418 43.6604 45.197 42.9039L47.8105 42.3964C48.9352 42.1784 49.671 41.0886 49.4521 39.9627Z" fill="black"/>
<path d="M68.4996 0.109985C53.6204 0.109985 41.5146 12.2149 41.5146 27.0949C41.5146 41.975 53.6204 54.0799 68.4996 54.0799C83.3788 54.0799 95.4846 41.975 95.4846 27.0949C95.4846 12.2149 83.3788 0.109985 68.4996 0.109985ZM68.4996 49.9282C55.9091 49.9282 45.6664 39.6854 45.6664 27.0949C45.6664 14.5045 55.9091 4.2617 68.4996 4.2617C81.0901 4.2617 91.3328 14.5045 91.3328 27.0949C91.3328 39.6854 81.0901 49.9282 68.4996 49.9282Z" fill="black"/>
<path d="M135.521 60.8241L120.847 56.4048C119.209 55.9119 117.543 56.1703 116.28 57.1084C114.936 58.1078 114.166 59.7735 114.166 61.6812V67.9803C114.166 69.126 115.095 70.0561 116.242 70.0561C117.389 70.0561 118.318 69.1263 118.318 67.9803V61.6812C118.318 61.1093 118.482 60.6456 118.758 60.4409C119.019 60.2457 119.386 60.2999 119.651 60.3798L132.848 64.354V66.1963C132.848 67.5269 131.92 68.6103 130.779 68.6103H120.394C119.247 68.6103 118.318 69.5401 118.318 70.6861C118.318 71.8322 119.247 72.762 120.394 72.762H130.778C134.209 72.762 137 69.8165 137 66.1975V62.8121C137 61.895 136.4 61.0886 135.521 60.8241Z" fill="black"/>
<path d="M20.7191 57.1073C19.4569 56.168 17.7903 55.9096 16.1523 56.4037L1.47807 60.823C0.599922 61.0878 0 61.8942 0 62.8107V66.1961C0 69.8164 2.79072 72.7619 6.22119 72.7619H18.1141C19.1884 72.7619 20.0747 71.9451 20.1796 70.8967C20.3624 70.9505 20.5573 70.9788 20.7577 70.9788C21.9046 70.9788 22.8335 70.049 22.8335 68.9029V61.6805C22.8332 59.7727 22.0633 58.1068 20.7191 57.1073ZM18.6818 68.6892C18.5012 68.6372 18.3102 68.6104 18.1141 68.6104H6.22119C5.08064 68.6104 4.15172 67.527 4.15172 66.1952V64.3529L17.3485 60.3787C17.6121 60.2988 17.9828 60.245 18.2421 60.4399C18.5182 60.6442 18.6821 61.1073 18.6821 61.6802V68.6892H18.6818Z" fill="black"/>
<path d="M125.878 72.7222C122.201 68.7317 117.035 66.5345 111.334 66.5345H78.8787C77.7318 66.5345 76.8029 67.4643 76.8029 68.6103C76.8029 69.7564 77.7318 70.6862 78.8787 70.6862H111.333C115.861 70.6862 119.941 72.4081 122.824 75.5364C125.584 78.5326 126.914 82.4973 126.567 86.6986L124.721 109.169C124.551 111.253 123.574 113.136 121.969 114.47C120.268 115.884 118.072 116.528 115.85 116.308C115.669 116.283 97.5636 113.871 69.539 113.871C41.5145 113.871 23.3836 116.285 23.262 116.303C21.0077 116.541 18.8384 115.906 17.1436 114.504C15.5171 113.16 14.5262 111.265 14.3559 109.168L12.5096 86.6974C12.163 82.4983 13.4924 78.5344 16.2533 75.537C19.1355 72.4087 23.2164 70.6859 27.7427 70.6859H57.2736C58.4205 70.6859 59.3495 69.7561 59.3495 68.61C59.3495 67.464 58.4205 66.5342 57.2736 66.5342H27.7427C22.0427 66.5342 16.8781 68.7323 13.1998 72.7253C9.64501 76.5863 7.92947 81.6688 8.36945 87.0386L10.2157 109.508C10.4815 112.729 12.0018 115.639 14.4949 117.703C16.7045 119.527 19.4332 120.5 22.3382 120.5C22.8096 120.5 23.2839 120.475 23.7613 120.422C23.9389 120.399 41.8182 118.022 69.539 118.022C97.2598 118.022 115.114 120.397 115.359 120.428C118.771 120.78 122.057 119.794 124.623 117.66C127.091 115.608 128.596 112.713 128.86 109.508L130.706 87.0373C131.146 81.6657 129.434 76.582 125.878 72.7222Z" fill="black"/>
<path d="M80.9699 89.3678H56.0286C51.4597 89.3678 47.7422 93.0938 47.7422 97.674V101.818C47.7422 106.398 51.46 110.125 56.0286 110.125H80.9708C85.5397 110.125 89.2572 106.398 89.2563 101.818V97.674C89.2563 93.0938 85.5388 89.3678 80.9699 89.3678ZM85.1049 101.818C85.1049 104.11 83.2501 105.974 80.9699 105.974H56.0286C53.7484 105.974 51.8936 104.11 51.8936 101.818V97.674C51.8936 95.3834 53.7484 93.5192 56.0286 93.5192H80.9699C83.2501 93.5192 85.1049 95.3831 85.1049 97.674V101.818Z" fill="black"/>
<path d="M41.5139 105.974H18.6807V110.125H41.5139V105.974Z" fill="#B83333"/>
<path d="M118.318 105.974H95.4844V110.125H118.318V105.974Z" fill="#B83333"/>
<path d="M35.6238 88.1429L20.5445 85.3239C18.7852 84.9928 17.1195 85.4422 15.9777 86.5578C14.8144 87.6932 14.3203 89.3933 14.6161 91.2231L15.352 95.7659C15.902 99.1617 18.9825 101.822 22.368 101.822H35.1734C38.6702 101.822 41.5159 98.9212 41.5147 95.3569C41.5147 91.9304 38.9283 88.7617 35.6238 88.1429ZM35.1731 97.6708H22.368C21.0331 97.6708 19.6715 96.4701 19.4505 95.103L18.7146 90.5581C18.7146 90.5572 18.7146 90.5572 18.7146 90.556C18.6398 90.095 18.7022 89.7007 18.8785 89.5286C18.9865 89.4237 19.1796 89.3686 19.4183 89.3686C19.5292 89.3686 19.6518 89.3802 19.7816 89.4039L34.863 92.2229C36.1945 92.4731 37.3642 93.9375 37.3642 95.3572C37.3642 96.6328 36.3815 97.6708 35.1731 97.6708Z" fill="#B83333"/>
<path d="M121.022 86.5581C119.882 85.4443 118.211 84.994 116.458 85.3242L101.376 88.1432C98.0717 88.7617 95.4854 91.9304 95.4854 95.3575C95.4854 98.9214 98.3311 101.823 101.828 101.823H114.633C118.015 101.823 121.096 99.1635 121.648 95.7665L122.384 91.2237C122.681 89.3935 122.186 87.6935 121.022 86.5581ZM118.286 90.556C118.286 90.5569 118.286 90.5569 118.286 90.5581L117.551 95.1009C117.329 96.471 115.965 97.6705 114.633 97.6705H101.828C100.62 97.6705 99.6365 96.6327 99.6365 95.3572C99.6365 93.9363 100.806 92.4719 102.138 92.2229L117.221 89.4039C117.349 89.3802 117.471 89.3686 117.582 89.3686C117.821 89.3686 118.014 89.4236 118.122 89.5286C118.299 89.701 118.361 90.0953 118.286 90.556Z" fill="#B83333"/>
<path d="M74.7277 62.3828H62.2732C58.8387 62.3828 56.0459 65.1735 56.0459 68.6058V76.9129C56.0459 78.0586 56.9748 78.9888 58.1218 78.9888H78.8794C80.0264 78.9888 80.9553 78.0589 80.9553 76.9129V68.6058C80.955 65.1738 78.1621 62.3828 74.7277 62.3828ZM76.8036 74.8374H60.1976V68.6061C60.1976 67.4446 61.1098 66.5345 62.2735 66.5345H74.728C75.8737 66.5345 76.8039 67.4644 76.8039 68.6061V74.8374H76.8036Z" fill="black"/>
<path d="M68.5007 31.2464C65.0663 31.2464 62.2734 34.0392 62.2734 37.4737C62.2734 40.9081 65.0663 43.7009 68.5007 43.7009C71.9351 43.7009 74.728 40.9081 74.728 37.4737C74.728 34.0395 71.9351 31.2464 68.5007 31.2464ZM68.5007 39.5495C67.355 39.5495 66.4249 38.6185 66.4249 37.4737C66.4249 36.3289 67.3547 35.3978 68.5007 35.3978C69.6467 35.3978 70.5766 36.3289 70.5766 37.4737C70.5766 38.6185 69.6464 39.5495 68.5007 39.5495Z" fill="black"/>
<path d="M86.4983 19.3294C81.6794 14.9661 75.2861 12.5646 68.4994 12.5646C61.7087 12.5646 55.3172 14.9661 50.5014 19.3294C49.6494 20.0984 49.5849 21.4114 50.3551 22.2615C50.7641 22.7131 51.3275 22.9436 51.8934 22.9436C52.3906 22.9436 52.8886 22.766 53.2863 22.406C57.3383 18.7371 62.7425 16.7163 68.4997 16.7163C74.2569 16.7163 79.6589 18.7371 83.7139 22.4069C84.5629 23.1759 85.8749 23.1105 86.6448 22.2606C87.4147 21.4117 87.3472 20.0987 86.4983 19.3294Z" fill="black"/>
<path d="M82.325 27.6107C78.8979 24.6008 74.3573 22.9433 69.5384 22.9433C64.7196 22.9433 60.179 24.6008 56.7518 27.6107C55.8904 28.3672 55.8053 29.6793 56.563 30.5395C57.3165 31.4009 58.6282 31.486 59.4918 30.7304C62.1624 28.3858 65.7294 27.0947 69.5384 27.0947C73.3475 27.0947 76.9148 28.3858 79.5851 30.7304C79.9804 31.0762 80.4684 31.2461 80.9552 31.2461C81.5311 31.2461 82.1043 31.0074 82.5141 30.5395C83.2716 29.6793 83.1864 28.3675 82.325 27.6107Z" fill="black"/>
</svg>
