<svg width="138" height="137" viewBox="0 0 138 137" fill="none" xmlns="http://www.w3.org/2000/svg">
<path d="M130.35 122.607V50.4859L136.531 44.305C137.423 43.4145 137.423 41.9696 136.533 41.0777C136.404 40.949 136.261 40.8364 136.106 40.7419L69.89 0.334536C69.1595 -0.111512 68.2412 -0.111512 67.5107 0.334536L1.2946 40.7419C0.218409 41.398 -0.121947 42.8022 0.534148 43.8782C0.628602 44.0334 0.741519 44.1765 0.869955 44.305L7.05095 50.4859V122.606C3.26957 122.61 0.20503 125.675 0.201017 129.456V134.023C0.201017 135.284 1.22315 136.306 2.48424 136.306H134.916C136.177 136.306 137.199 135.284 137.199 134.023V129.456C137.195 125.675 134.131 122.611 130.35 122.607ZM6.15136 43.1276L68.7003 4.95797L131.249 43.1276L127.727 46.6511L69.8967 11.0632C69.1632 10.6105 68.2374 10.6105 67.504 11.0632L9.67372 46.6511L6.15136 43.1276ZM118.933 113.473H11.6174V108.907H125.783V113.473H118.933ZM125.783 118.04V122.607H121.216V118.04H125.783ZM116.65 118.04V122.607H112.083V118.04H116.65ZM107.516 118.04V122.607H102.95V118.04H107.516ZM98.3833 118.04V122.607H93.8166V118.04H98.3833ZM89.2501 118.04V122.607H84.6834V118.04H89.2501ZM80.1167 118.04V122.607H75.55V118.04H80.1167ZM70.9836 118.04V122.607H66.4169V118.04H70.9836ZM61.8504 118.04V122.607H57.2837V118.04H61.8504ZM52.717 118.04V122.607H48.1503V118.04H52.717ZM43.5838 118.04V122.607H39.0171V118.04H43.5838ZM34.4507 118.04V122.607H29.884V118.04H34.4507ZM25.3173 118.04V122.607H20.7508V118.04H25.3173ZM16.1841 118.04V122.607H11.6174V118.04H16.1841ZM20.7508 104.34V100.465L23.034 97.0398L25.3173 100.465V104.34H20.7508ZM39.0171 104.34V100.465L41.3004 97.0398L43.5836 100.465V104.34H39.0171ZM57.2837 104.34V100.465L59.5669 97.0398L61.8501 100.465V104.34H57.2837ZM75.5503 104.34V100.465L77.8335 97.0398L80.1167 100.465V104.34H75.5503ZM93.8166 104.34V100.465L96.0998 97.0398L98.383 100.465V104.34H93.8166ZM112.083 104.34V100.465L114.366 97.0398L116.65 100.465V104.34H112.083ZM121.216 104.34V99.7734C121.216 99.3225 121.083 98.8821 120.833 98.5069L116.266 91.657C115.484 90.6078 113.999 90.3914 112.95 91.1737C112.766 91.3107 112.603 91.4734 112.466 91.657L107.9 98.5069C107.65 98.8821 107.516 99.3228 107.516 99.7734V104.34H102.949V99.7734C102.949 99.3225 102.816 98.8821 102.566 98.5069L97.9991 91.657C97.2167 90.6078 95.7319 90.3914 94.6827 91.1737C94.4992 91.3107 94.3362 91.4734 94.1995 91.657L89.6328 98.5069C89.3829 98.8821 89.2493 99.3228 89.2493 99.7734V104.34H84.6826V99.7734C84.6824 99.3225 84.5491 98.8821 84.2989 98.5069L79.7322 91.657C78.9498 90.6078 77.465 90.3914 76.4159 91.1737C76.2323 91.3107 76.0694 91.4734 75.9326 91.657L71.3659 98.5069C71.116 98.8821 70.9825 99.3228 70.9825 99.7734V104.34H66.4158V99.7734C66.4155 99.3225 66.2823 98.8821 66.0321 98.5069L61.4654 91.657C60.683 90.6078 59.1982 90.3914 58.149 91.1737C57.9655 91.3107 57.8025 91.4734 57.6658 91.657L53.0991 98.5069C52.8492 98.8821 52.7157 99.3228 52.7157 99.7734V104.34H48.1489V99.7734C48.1487 99.3225 48.0154 98.8821 47.7652 98.5069L43.1985 91.657C42.4161 90.6078 40.9314 90.3914 39.8822 91.1737C39.6986 91.3107 39.536 91.4734 39.399 91.657L34.8322 98.5069C34.5823 98.8821 34.4488 99.3228 34.4488 99.7734V104.34H29.8821V99.7734C29.8818 99.3225 29.7486 98.8821 29.4984 98.5069L24.9317 91.657C24.1493 90.6078 22.6645 90.3914 21.6154 91.1737C21.4318 91.3107 21.2688 91.4734 21.1321 91.657L16.5654 98.5069C16.3155 98.8821 16.182 99.3228 16.182 99.7734V104.34H11.6174V50.8159L68.7003 15.6888L125.783 50.8159V104.34H121.216V104.34ZM132.633 131.74H4.76746V129.457C4.76907 128.196 5.7904 127.175 7.05068 127.173H130.349C131.61 127.175 132.631 128.196 132.633 129.457V131.74H132.633Z" fill="black"/>
<path d="M68.7009 26.7076C59.8778 26.7175 52.7277 33.8677 52.7178 42.6907C52.7178 51.5181 59.8738 58.6738 68.7009 58.6738C77.5279 58.6738 84.684 51.5178 84.684 42.6907C84.684 33.8637 77.5282 26.7076 68.7009 26.7076ZM66.4174 53.8765C61.9382 52.9531 58.4383 49.4532 57.5149 44.974H66.4174V53.8765ZM66.4174 40.4075H57.5149C58.4383 35.9283 61.9382 32.4284 66.4174 31.505V40.4075ZM70.9841 53.8765V44.974H79.8866C78.9632 49.4532 75.4633 52.9533 70.9841 53.8765ZM70.9841 40.4075V31.505C75.4633 32.4284 78.9632 35.9283 79.8866 40.4075H70.9841Z" fill="black"/>
<path d="M45.8665 58.6739H18.4668C17.2057 58.6739 16.1836 59.696 16.1836 60.9571V83.7902C16.1836 85.0512 17.2057 86.0734 18.4668 86.0734H45.8665C47.1276 86.0734 48.1498 85.0512 48.1498 83.7902V60.9571C48.15 59.6963 47.1276 58.6739 45.8665 58.6739ZM29.8835 81.5072H20.7503V74.6573H29.8835V81.5072ZM29.8835 70.0905H20.7503V63.2406H29.8835V70.0905ZM43.5833 81.5072H34.4502V74.6573H43.5833V81.5072ZM43.5833 70.0905H34.4502V63.2406H43.5833V70.0905Z" fill="#B83333"/>
<path d="M118.933 58.6739H91.5332C90.2721 58.6739 89.25 59.696 89.25 60.9571V83.7902C89.25 85.0512 90.2724 86.0734 91.5332 86.0734H118.933C120.194 86.0734 121.216 85.0512 121.216 83.7902V60.9571C121.216 59.6963 120.194 58.6739 118.933 58.6739ZM102.95 81.5072H93.8167V74.6573H102.95V81.5072ZM102.95 70.0905H93.8167V63.2406H102.95V70.0905ZM116.65 81.5072H107.517V74.6573H116.65V81.5072ZM116.65 70.0905H107.517V63.2406H116.65V70.0905Z" fill="#B83333"/>
</svg>
