<svg width="33" height="33" viewBox="0 0 33 33" fill="none" xmlns="http://www.w3.org/2000/svg">
<path d="M32.2602 26.0424L27.1639 20.9455C26.1488 19.9345 24.4678 19.9652 23.4173 21.016L20.8497 23.583C20.6875 23.4936 20.5196 23.4002 20.3431 23.3012C18.7217 22.4028 16.5026 21.1714 14.1674 18.8345C11.8253 16.4927 10.5928 14.2702 9.69165 12.6477C9.59656 12.4758 9.50545 12.3101 9.41548 12.1527L11.1387 10.4321L11.9859 9.58386C13.0379 8.53151 13.067 6.85096 12.0542 5.837L6.9579 0.739531C5.94517 -0.273005 4.2634 -0.242287 3.21133 0.810067L1.775 2.25464L1.81425 2.2936C1.33264 2.90814 0.930182 3.61691 0.630687 4.38125C0.35461 5.10879 0.182726 5.80306 0.104131 6.49875C-0.568807 12.0776 1.98055 17.1762 8.89916 24.0949C18.4628 33.6578 26.1698 32.9354 26.5023 32.9002C27.2264 32.8136 27.9204 32.6406 28.6257 32.3667C29.3834 32.0707 30.0917 31.6688 30.7058 31.1882L30.7372 31.2161L32.1923 29.7912C33.2422 28.7391 33.2724 27.058 32.2602 26.0424Z" fill="white"/>
</svg>
