<svg width="38" height="40" viewBox="0 0 38 40" fill="none" xmlns="http://www.w3.org/2000/svg">
<path d="M28.5339 12.2475L19.6428 5.89669C19.4219 5.73919 19.1255 5.73919 18.9048 5.89669L13.5954 9.6889C12.9016 8.1355 11.3448 7.04872 9.53675 7.04872C7.41639 7.04872 5.61213 8.57624 5.18853 10.5888C5.07501 10.5736 4.96149 10.5661 4.84686 10.5661C3.36522 10.5661 2.16016 11.7715 2.16016 13.2528C2.16016 14.7344 3.36522 15.9398 4.84686 15.9398H9.7476V26.7362C9.7476 27.0869 10.0316 27.3712 10.3827 27.3712H15.4633V30.9188L15.2094 31.1727C14.7641 30.788 14.1914 30.5468 13.5581 30.5468C12.1571 30.5468 11.0178 31.6864 11.0178 33.0871C11.0178 34.4878 12.1571 35.6274 13.5581 35.6274C14.9591 35.6274 16.0984 34.4878 16.0984 33.0871C16.0984 32.7875 16.0369 32.5041 15.9414 32.2371L16.5474 31.631C16.6665 31.512 16.7335 31.3503 16.7335 31.182V27.3716H18.6387V34.4476C17.5461 34.7316 16.7335 35.7176 16.7335 36.8977C16.7335 38.2984 17.8728 39.4381 19.2738 39.4381C20.6748 39.4381 21.8141 38.2984 21.8141 36.8977C21.8141 35.7176 21.0015 34.7316 19.9089 34.4476V27.3712H21.8141V31.1817C21.8141 31.3502 21.8811 31.5116 22.0002 31.6307L22.6062 32.2367C22.5105 32.5038 22.4492 32.7873 22.4492 33.0868C22.4492 34.4875 23.5885 35.6271 24.9895 35.6271C26.3905 35.6271 27.5298 34.4875 27.5298 33.0868C27.5298 31.6861 26.3905 30.5465 24.9895 30.5465C24.3562 30.5465 23.7833 30.7878 23.3381 31.1723L23.0843 30.9188V27.3712H28.1649C28.5159 27.3712 28.8 27.0869 28.8 26.7362V12.7644C28.8 12.5595 28.7007 12.3669 28.5339 12.2475ZM13.5581 34.3571C12.8579 34.3571 12.2879 33.7874 12.2879 33.087C12.2879 32.3865 12.8579 31.8168 13.5581 31.8168C14.2582 31.8168 14.8282 32.3865 14.8282 33.087C14.8282 33.7874 14.2582 34.3571 13.5581 34.3571ZM24.9895 31.8168C25.6897 31.8168 26.2596 32.3865 26.2596 33.087C26.2596 33.7874 25.6897 34.3571 24.9895 34.3571C24.2893 34.3571 23.7193 33.7874 23.7193 33.087C23.7193 32.3865 24.2893 31.8168 24.9895 31.8168ZM3.43031 13.2528C3.43031 12.4717 4.06603 11.8363 4.84686 11.8363C5.05088 11.8363 5.25553 11.885 5.4559 11.9811C5.64944 12.0744 5.87822 12.0624 6.06303 11.9501C6.24657 11.8372 6.36073 11.6384 6.36565 11.423C6.40359 9.71129 7.82617 8.31888 9.53675 8.31888C11.2875 8.31888 12.7121 9.74352 12.7121 11.4943C12.7121 11.7491 12.6774 12.0146 12.6086 12.2838C12.5523 12.5055 12.6191 12.7406 12.7841 12.8991C12.949 13.0582 13.1872 13.1152 13.4055 13.0494C13.4985 13.0218 13.573 13.0088 13.6405 13.0088C14.0982 13.0088 14.4708 13.3813 14.4708 13.8391C14.4708 14.297 14.098 14.6695 13.6405 14.6695H4.84686C4.06603 14.6697 3.43031 14.034 3.43031 13.2528ZM20.5439 36.8974C20.5439 37.5979 19.974 38.1676 19.2738 38.1676C18.5736 38.1676 18.0036 37.5979 18.0036 36.8974C18.0036 36.1969 18.5736 35.6273 19.2738 35.6273C19.974 35.6273 20.5439 36.1969 20.5439 36.8974ZM27.5298 26.1011H23.0843V22.9257C23.0843 22.575 22.8002 22.2906 22.4492 22.2906C22.0981 22.2906 21.8141 22.575 21.8141 22.9257V26.1011H19.9089V19.7503C19.9089 19.3996 19.6248 19.1152 19.2738 19.1152C18.9227 19.1152 18.6387 19.3996 18.6387 19.7503V26.1011H16.7335V22.9257C16.7335 22.575 16.4494 22.2906 16.0984 22.2906C15.7473 22.2906 15.4633 22.575 15.4633 22.9257V26.1011H11.0178V15.9398H13.6406C14.7992 15.9398 15.7412 14.9974 15.7412 13.8393C15.7412 12.7943 14.974 11.925 13.9736 11.7651C13.9791 11.6743 13.9823 11.584 13.9823 11.4944C13.9823 11.3255 13.9709 11.1593 13.9525 10.9951L19.2738 7.19416L27.5298 13.0913V26.1011Z" fill="black"/>
<path d="M25.2806 2.12685C26.952 2.12685 28.5236 2.7778 29.7057 3.95984C30.8877 5.14157 31.5383 6.71323 31.5383 8.3846C31.5383 8.73532 31.8224 9.01968 32.1734 9.01968C32.5245 9.01968 32.8085 8.73532 32.8085 8.3846C32.8085 6.37394 32.0258 4.48362 30.6037 3.06184C29.1816 1.63974 27.2912 0.856689 25.2806 0.856689C24.9295 0.856689 24.6455 1.14105 24.6455 1.49177C24.6455 1.84249 24.9295 2.12685 25.2806 2.12685Z" fill="#E30611"/>
<path d="M25.2806 3.3175C24.9295 3.3175 24.6455 3.60186 24.6455 3.95258C24.6455 4.30331 24.9295 4.58766 25.2806 4.58766C26.2953 4.58766 27.2485 4.98268 27.9654 5.69969C28.6824 6.41701 29.0774 7.37042 29.0774 8.38448C29.0774 8.7352 29.3614 9.01956 29.7125 9.01956C30.0635 9.01956 30.3476 8.7352 30.3476 8.38448C30.3476 7.03129 29.8204 5.75891 28.8634 4.80168C27.9071 3.84462 26.6344 3.3175 25.2806 3.3175Z" fill="#E30611"/>
<path d="M26.1786 7.48655C26.4186 7.72661 26.5507 8.04558 26.5507 8.38455C26.5507 8.73528 26.8348 9.01963 27.1858 9.01963C27.5369 9.01963 27.8209 8.73528 27.8209 8.38455C27.8209 7.70613 27.5567 7.06819 27.0766 6.58855C26.5966 6.10859 25.959 5.84424 25.2806 5.84424C24.9295 5.84424 24.6455 6.12859 24.6455 6.47932C24.6455 6.83004 24.9295 7.1144 25.2806 7.1144C25.6199 7.1144 25.9387 7.24649 26.1786 7.48655Z" fill="#E30611"/>
<path d="M34.5154 22.2906C34.8665 22.2906 35.1505 22.0062 35.1505 21.6555V20.3853C35.1505 20.0346 34.8665 19.7502 34.5154 19.7502C34.1644 19.7502 33.8804 20.0346 33.8804 20.3853V21.6555C33.8804 22.0062 34.1644 22.2906 34.5154 22.2906Z" fill="#E30611"/>
<path d="M34.5154 26.1011C34.8665 26.1011 35.1505 25.8167 35.1505 25.466V24.1959C35.1505 23.8451 34.8665 23.5608 34.5154 23.5608C34.1644 23.5608 33.8804 23.8451 33.8804 24.1959V25.466C33.8804 25.8167 34.1644 26.1011 34.5154 26.1011Z" fill="#E30611"/>
<path d="M33.2461 22.2906H31.9759C31.6249 22.2906 31.3408 22.575 31.3408 22.9257C31.3408 23.2765 31.6249 23.5608 31.9759 23.5608H33.2461C33.5971 23.5608 33.8811 23.2765 33.8811 22.9257C33.8811 22.575 33.5971 22.2906 33.2461 22.2906Z" fill="#E30611"/>
<path d="M37.0561 22.2906H35.786C35.4349 22.2906 35.1509 22.575 35.1509 22.9257C35.1509 23.2765 35.4349 23.5608 35.786 23.5608H37.0561C37.4072 23.5608 37.6912 23.2765 37.6912 22.9257C37.6912 22.575 37.4072 22.2906 37.0561 22.2906Z" fill="#E30611"/>
<path d="M2.84345 21.9803C2.46859 21.9803 2.16455 22.2844 2.16455 22.6592C2.16455 23.0341 2.46859 23.3383 2.84345 23.3383C3.21846 23.3383 3.52235 23.0343 3.52235 22.6592C3.52235 22.2842 3.21846 21.9803 2.84345 21.9803Z" fill="black"/>
<path d="M34.5969 34.0469C34.222 34.0469 33.918 34.3509 33.918 34.7258C33.918 35.1006 34.222 35.4048 34.5969 35.4048C34.9719 35.4048 35.2758 35.1008 35.2758 34.7258C35.2758 34.3508 34.9719 34.0469 34.5969 34.0469Z" fill="black"/>
<path d="M4.66723 4.82593C4.66723 3.60038 3.67 2.60315 2.44446 2.60315C1.21891 2.60315 0.22168 3.60038 0.22168 4.82593C0.22168 6.05147 1.21891 7.0487 2.44446 7.0487C3.67 7.0487 4.66723 6.05147 4.66723 4.82593ZM1.49184 4.82593C1.49184 4.30056 1.91909 3.87331 2.44446 3.87331C2.96982 3.87331 3.39707 4.30056 3.39707 4.82593C3.39707 5.35129 2.96982 5.77854 2.44446 5.77854C1.91909 5.77854 1.49184 5.35129 1.49184 4.82593Z" fill="black"/>
</svg>
