<svg width="68" height="69" viewBox="0 0 68 69" fill="none" xmlns="http://www.w3.org/2000/svg">
<path d="M28.4665 26.6125C27.8405 27.2506 27.8449 28.2748 28.4774 28.9072C29.1098 29.5396 30.1339 29.5447 30.772 28.9186C32.5833 27.1112 35.5155 27.1112 37.3262 28.9186C37.9631 29.5549 38.9955 29.5549 39.6323 28.9186C40.2686 28.2818 40.2686 27.2494 39.6323 26.6125C36.5466 23.5344 31.5522 23.5344 28.4665 26.6125Z" fill="#081121"/>
<path d="M46.4101 20.6208C47.0674 20.6208 47.6609 20.226 47.9144 19.619C48.1679 19.0127 48.0322 18.3128 47.5698 17.8447C44.0409 14.2546 39.2166 12.2331 34.1827 12.2344H34.1216C29.0533 12.2236 24.1914 14.2412 20.6198 17.8377C19.9835 18.4745 19.9835 19.5069 20.6198 20.1438C21.2566 20.78 22.289 20.78 22.9259 20.1438C25.8874 17.1607 29.9188 15.4869 34.1222 15.4952H34.1725C38.3383 15.4933 42.3296 17.1658 45.2503 20.1362C45.556 20.4469 45.9738 20.6215 46.4101 20.6208Z" fill="#081121"/>
<path d="M14.2348 11.4528C25.1604 0.527175 42.9376 0.527175 53.8632 11.4528C54.5001 12.0897 55.5325 12.0897 56.1693 11.4528C56.8056 10.8159 56.8056 9.78291 56.1687 9.14667C43.9719 -3.04889 24.1262 -3.04889 11.9293 9.14667C11.2924 9.78291 11.2924 10.8153 11.9293 11.4522C12.5662 12.089 13.5986 12.089 14.2348 11.4522V11.4528Z" fill="#081121"/>
<path d="M6.86426 61.479H61.1364V68.1516H6.86426V61.479Z" fill="#081121"/>
<path d="M63.1088 38.7546H4.89122C2.19149 38.7578 0.00318438 40.9461 0 43.6459V58.2176H68V43.6459C67.9975 40.9461 65.8091 38.7578 63.1088 38.7546ZM38.6979 50.5101H27.615C26.7144 50.5101 25.9846 49.7803 25.9846 48.8797C25.9846 47.9792 26.7144 47.2493 27.615 47.2493H38.6979C39.5985 47.2493 40.3283 47.9792 40.3283 48.8797C40.3283 49.7803 39.5985 50.5101 38.6979 50.5101Z" fill="#081121"/>
</svg>
